G04 EAGLE Gerber RS-274X export*
G75*
%MOMM*%
%FSLAX34Y34*%
%LPD*%
%INBottom Copper*%
%IPPOS*%
%AMOC8*
5,1,8,0,0,1.08239X$1,22.5*%
G01*
%ADD10C,1.270000*%
%ADD11C,1.158000*%
%ADD12C,1.200000*%
%ADD13C,2.500000*%
%ADD14C,0.711200*%
%ADD15C,0.254000*%

G36*
X7228Y3813D02*
X7228Y3813D01*
X7279Y3813D01*
X8828Y3899D01*
X8915Y3876D01*
X9005Y3843D01*
X9068Y3837D01*
X9130Y3821D01*
X9291Y3811D01*
X210728Y3811D01*
X210778Y3817D01*
X210827Y3815D01*
X210935Y3837D01*
X211044Y3851D01*
X211090Y3869D01*
X211139Y3879D01*
X211237Y3927D01*
X211339Y3968D01*
X211380Y3997D01*
X211424Y4019D01*
X211508Y4090D01*
X211597Y4154D01*
X211628Y4193D01*
X211666Y4225D01*
X211729Y4315D01*
X211800Y4399D01*
X211821Y4444D01*
X211849Y4485D01*
X211888Y4588D01*
X211935Y4687D01*
X211944Y4736D01*
X211962Y4782D01*
X211974Y4892D01*
X211995Y4999D01*
X211992Y5049D01*
X211997Y5098D01*
X211982Y5207D01*
X211975Y5317D01*
X211960Y5364D01*
X211953Y5413D01*
X211901Y5566D01*
X211548Y6417D01*
X211548Y8438D01*
X212322Y10305D01*
X213751Y11735D01*
X215618Y12508D01*
X217640Y12508D01*
X219507Y11735D01*
X220936Y10305D01*
X221710Y8438D01*
X221710Y6417D01*
X221357Y5566D01*
X221344Y5518D01*
X221323Y5473D01*
X221302Y5365D01*
X221273Y5259D01*
X221273Y5209D01*
X221263Y5160D01*
X221270Y5051D01*
X221268Y4941D01*
X221280Y4893D01*
X221283Y4843D01*
X221317Y4739D01*
X221342Y4632D01*
X221366Y4588D01*
X221381Y4541D01*
X221440Y4448D01*
X221491Y4351D01*
X221525Y4314D01*
X221551Y4272D01*
X221631Y4197D01*
X221705Y4115D01*
X221747Y4088D01*
X221783Y4054D01*
X221879Y4001D01*
X221971Y3941D01*
X222018Y3924D01*
X222061Y3900D01*
X222167Y3873D01*
X222272Y3837D01*
X222321Y3833D01*
X222369Y3821D01*
X222530Y3811D01*
X256199Y3811D01*
X256200Y3811D01*
X306386Y3835D01*
X306441Y3842D01*
X306497Y3840D01*
X306656Y3864D01*
X306860Y3908D01*
X307005Y3960D01*
X307151Y4010D01*
X307157Y4014D01*
X307160Y4015D01*
X307166Y4019D01*
X307291Y4091D01*
X307798Y4428D01*
X307854Y4476D01*
X307917Y4517D01*
X307974Y4580D01*
X308039Y4636D01*
X308082Y4696D01*
X308132Y4751D01*
X308216Y4888D01*
X308503Y5426D01*
X308558Y5569D01*
X308614Y5714D01*
X308616Y5720D01*
X308617Y5723D01*
X308618Y5731D01*
X308644Y5872D01*
X308680Y6177D01*
X308680Y6185D01*
X308685Y6260D01*
X308687Y6269D01*
X308686Y6278D01*
X308689Y6328D01*
X308689Y6336D01*
X308689Y6338D01*
X308689Y6341D01*
X308681Y8309D01*
X308686Y8386D01*
X308689Y8406D01*
X308688Y8417D01*
X308689Y8441D01*
X308689Y14388D01*
X308672Y14526D01*
X308659Y14665D01*
X308652Y14684D01*
X308649Y14704D01*
X308598Y14834D01*
X308551Y14964D01*
X308540Y14981D01*
X308532Y15000D01*
X308451Y15112D01*
X308373Y15227D01*
X308357Y15241D01*
X308346Y15257D01*
X308238Y15346D01*
X308134Y15438D01*
X308116Y15447D01*
X308101Y15460D01*
X307975Y15519D01*
X307851Y15582D01*
X307831Y15587D01*
X307813Y15595D01*
X307676Y15621D01*
X307541Y15652D01*
X307520Y15651D01*
X307501Y15655D01*
X307362Y15647D01*
X307223Y15642D01*
X307203Y15637D01*
X307183Y15635D01*
X307051Y15593D01*
X306917Y15554D01*
X306900Y15544D01*
X306881Y15537D01*
X306763Y15463D01*
X306643Y15392D01*
X306622Y15374D01*
X306612Y15367D01*
X306598Y15352D01*
X306523Y15286D01*
X306001Y14764D01*
X303106Y13565D01*
X299974Y13565D01*
X297079Y14764D01*
X294864Y16979D01*
X294248Y18467D01*
X294189Y18570D01*
X294137Y18677D01*
X294110Y18708D01*
X294090Y18743D01*
X294008Y18829D01*
X293930Y18919D01*
X293897Y18943D01*
X293869Y18972D01*
X293768Y19034D01*
X293670Y19102D01*
X293632Y19117D01*
X293598Y19138D01*
X293484Y19173D01*
X293373Y19215D01*
X293333Y19220D01*
X293294Y19231D01*
X293175Y19237D01*
X293057Y19250D01*
X293017Y19245D01*
X292976Y19247D01*
X292860Y19223D01*
X292742Y19206D01*
X292685Y19186D01*
X292665Y19182D01*
X292646Y19173D01*
X292590Y19154D01*
X291148Y18557D01*
X289127Y18557D01*
X287260Y19330D01*
X285830Y20760D01*
X285057Y22627D01*
X285057Y24648D01*
X285830Y26516D01*
X287260Y27945D01*
X289127Y28718D01*
X291148Y28718D01*
X293016Y27945D01*
X294064Y26896D01*
X294158Y26823D01*
X294248Y26744D01*
X294284Y26726D01*
X294316Y26701D01*
X294425Y26654D01*
X294531Y26600D01*
X294570Y26591D01*
X294608Y26575D01*
X294725Y26556D01*
X294841Y26530D01*
X294882Y26531D01*
X294922Y26525D01*
X295040Y26536D01*
X295159Y26540D01*
X295198Y26551D01*
X295238Y26555D01*
X295350Y26595D01*
X295465Y26628D01*
X295499Y26649D01*
X295538Y26662D01*
X295636Y26729D01*
X295739Y26790D01*
X295784Y26829D01*
X295801Y26841D01*
X295814Y26856D01*
X295859Y26896D01*
X297079Y28116D01*
X299974Y29315D01*
X303106Y29315D01*
X306001Y28116D01*
X306523Y27594D01*
X306632Y27509D01*
X306739Y27420D01*
X306758Y27412D01*
X306774Y27399D01*
X306902Y27344D01*
X307027Y27285D01*
X307047Y27281D01*
X307066Y27273D01*
X307204Y27251D01*
X307340Y27225D01*
X307360Y27226D01*
X307380Y27223D01*
X307519Y27236D01*
X307657Y27245D01*
X307676Y27251D01*
X307696Y27253D01*
X307827Y27300D01*
X307959Y27343D01*
X307977Y27353D01*
X307996Y27360D01*
X308110Y27438D01*
X308228Y27513D01*
X308242Y27528D01*
X308259Y27539D01*
X308351Y27643D01*
X308446Y27744D01*
X308456Y27762D01*
X308469Y27777D01*
X308532Y27901D01*
X308600Y28023D01*
X308605Y28042D01*
X308614Y28061D01*
X308644Y28196D01*
X308679Y28331D01*
X308681Y28359D01*
X308684Y28371D01*
X308683Y28391D01*
X308689Y28492D01*
X308689Y39788D01*
X308672Y39926D01*
X308659Y40065D01*
X308652Y40084D01*
X308649Y40104D01*
X308598Y40234D01*
X308551Y40364D01*
X308540Y40381D01*
X308532Y40400D01*
X308451Y40512D01*
X308373Y40627D01*
X308357Y40641D01*
X308346Y40657D01*
X308238Y40746D01*
X308134Y40838D01*
X308116Y40847D01*
X308101Y40860D01*
X307975Y40919D01*
X307851Y40982D01*
X307831Y40987D01*
X307813Y40995D01*
X307676Y41021D01*
X307541Y41052D01*
X307520Y41051D01*
X307501Y41055D01*
X307362Y41047D01*
X307223Y41042D01*
X307203Y41037D01*
X307183Y41035D01*
X307051Y40993D01*
X306917Y40954D01*
X306900Y40944D01*
X306881Y40937D01*
X306763Y40863D01*
X306643Y40792D01*
X306622Y40774D01*
X306612Y40767D01*
X306598Y40752D01*
X306523Y40686D01*
X306001Y40164D01*
X303106Y38965D01*
X299974Y38965D01*
X297079Y40164D01*
X294864Y42379D01*
X293926Y44644D01*
X293867Y44747D01*
X293815Y44854D01*
X293789Y44885D01*
X293769Y44920D01*
X293686Y45006D01*
X293608Y45096D01*
X293576Y45119D01*
X293547Y45149D01*
X293446Y45211D01*
X293348Y45279D01*
X293311Y45294D01*
X293276Y45315D01*
X293163Y45350D01*
X293051Y45392D01*
X293011Y45397D01*
X292972Y45408D01*
X292854Y45414D01*
X292735Y45427D01*
X292695Y45422D01*
X292655Y45424D01*
X292538Y45399D01*
X292420Y45383D01*
X292363Y45363D01*
X292343Y45359D01*
X292325Y45350D01*
X292268Y45331D01*
X291354Y44952D01*
X289332Y44952D01*
X287465Y45726D01*
X286036Y47155D01*
X285262Y49022D01*
X285262Y51044D01*
X286036Y52911D01*
X287465Y54340D01*
X289332Y55114D01*
X291354Y55114D01*
X293221Y54340D01*
X294362Y53199D01*
X294440Y53139D01*
X294512Y53071D01*
X294565Y53042D01*
X294613Y53004D01*
X294704Y52965D01*
X294791Y52917D01*
X294849Y52902D01*
X294905Y52878D01*
X295003Y52863D01*
X295099Y52838D01*
X295199Y52831D01*
X295219Y52828D01*
X295231Y52829D01*
X295259Y52828D01*
X295865Y52828D01*
X295963Y52840D01*
X296062Y52843D01*
X296121Y52860D01*
X296181Y52867D01*
X296273Y52904D01*
X296368Y52931D01*
X296420Y52962D01*
X296476Y52984D01*
X296557Y53043D01*
X296642Y53093D01*
X296717Y53159D01*
X296734Y53171D01*
X296742Y53181D01*
X296763Y53199D01*
X297079Y53516D01*
X299974Y54715D01*
X303106Y54715D01*
X306001Y53516D01*
X306523Y52994D01*
X306632Y52909D01*
X306739Y52820D01*
X306758Y52812D01*
X306774Y52799D01*
X306902Y52744D01*
X307027Y52685D01*
X307047Y52681D01*
X307066Y52673D01*
X307204Y52651D01*
X307340Y52625D01*
X307360Y52626D01*
X307380Y52623D01*
X307519Y52636D01*
X307657Y52645D01*
X307676Y52651D01*
X307696Y52653D01*
X307827Y52700D01*
X307959Y52743D01*
X307977Y52753D01*
X307996Y52760D01*
X308110Y52838D01*
X308228Y52913D01*
X308242Y52928D01*
X308259Y52939D01*
X308351Y53043D01*
X308446Y53144D01*
X308456Y53162D01*
X308469Y53177D01*
X308532Y53301D01*
X308600Y53423D01*
X308605Y53442D01*
X308614Y53461D01*
X308644Y53596D01*
X308679Y53731D01*
X308681Y53759D01*
X308684Y53771D01*
X308683Y53791D01*
X308689Y53892D01*
X308689Y65188D01*
X308672Y65326D01*
X308659Y65465D01*
X308652Y65484D01*
X308649Y65504D01*
X308598Y65634D01*
X308551Y65764D01*
X308540Y65781D01*
X308532Y65800D01*
X308451Y65912D01*
X308373Y66027D01*
X308357Y66041D01*
X308346Y66057D01*
X308238Y66146D01*
X308134Y66238D01*
X308116Y66247D01*
X308101Y66260D01*
X307975Y66319D01*
X307851Y66382D01*
X307831Y66387D01*
X307813Y66395D01*
X307676Y66421D01*
X307541Y66452D01*
X307520Y66451D01*
X307501Y66455D01*
X307362Y66447D01*
X307223Y66442D01*
X307203Y66437D01*
X307183Y66435D01*
X307051Y66393D01*
X306917Y66354D01*
X306900Y66344D01*
X306881Y66337D01*
X306763Y66263D01*
X306643Y66192D01*
X306622Y66174D01*
X306612Y66167D01*
X306598Y66152D01*
X306523Y66086D01*
X306001Y65564D01*
X303106Y64365D01*
X299974Y64365D01*
X297079Y65564D01*
X294864Y67779D01*
X294499Y68662D01*
X294484Y68687D01*
X294475Y68715D01*
X294405Y68825D01*
X294341Y68938D01*
X294321Y68959D01*
X294305Y68984D01*
X294210Y69073D01*
X294120Y69166D01*
X294095Y69182D01*
X294073Y69202D01*
X293959Y69265D01*
X293849Y69333D01*
X293820Y69341D01*
X293795Y69356D01*
X293669Y69388D01*
X293545Y69426D01*
X293515Y69428D01*
X293487Y69435D01*
X293326Y69445D01*
X291884Y69445D01*
X291504Y69826D01*
X291425Y69887D01*
X291353Y69955D01*
X291300Y69984D01*
X291252Y70021D01*
X291162Y70060D01*
X291075Y70108D01*
X291016Y70123D01*
X290961Y70147D01*
X290863Y70163D01*
X290767Y70187D01*
X290667Y70194D01*
X290647Y70197D01*
X290634Y70196D01*
X290606Y70198D01*
X288993Y70198D01*
X287126Y70971D01*
X285696Y72400D01*
X284923Y74268D01*
X284923Y76289D01*
X285696Y78156D01*
X287126Y79586D01*
X288993Y80359D01*
X291014Y80359D01*
X292882Y79586D01*
X294418Y78049D01*
X294512Y77976D01*
X294601Y77898D01*
X294637Y77879D01*
X294669Y77854D01*
X294778Y77807D01*
X294884Y77753D01*
X294924Y77744D01*
X294961Y77728D01*
X295079Y77709D01*
X295195Y77683D01*
X295235Y77685D01*
X295275Y77678D01*
X295394Y77689D01*
X295513Y77693D01*
X295551Y77704D01*
X295592Y77708D01*
X295704Y77748D01*
X295818Y77781D01*
X295853Y77802D01*
X295891Y77816D01*
X295989Y77883D01*
X296092Y77943D01*
X296137Y77983D01*
X296154Y77994D01*
X296168Y78010D01*
X296213Y78049D01*
X297079Y78916D01*
X299974Y80115D01*
X303106Y80115D01*
X306001Y78916D01*
X306523Y78394D01*
X306632Y78309D01*
X306739Y78220D01*
X306758Y78212D01*
X306774Y78199D01*
X306902Y78144D01*
X307027Y78085D01*
X307047Y78081D01*
X307066Y78073D01*
X307204Y78051D01*
X307340Y78025D01*
X307360Y78026D01*
X307380Y78023D01*
X307519Y78036D01*
X307657Y78045D01*
X307676Y78051D01*
X307696Y78053D01*
X307827Y78100D01*
X307959Y78143D01*
X307977Y78153D01*
X307996Y78160D01*
X308110Y78238D01*
X308228Y78313D01*
X308242Y78328D01*
X308259Y78339D01*
X308351Y78443D01*
X308446Y78544D01*
X308456Y78562D01*
X308469Y78577D01*
X308532Y78701D01*
X308600Y78823D01*
X308605Y78842D01*
X308614Y78861D01*
X308644Y78996D01*
X308679Y79131D01*
X308681Y79159D01*
X308684Y79171D01*
X308683Y79191D01*
X308689Y79292D01*
X308689Y90588D01*
X308672Y90726D01*
X308659Y90865D01*
X308652Y90884D01*
X308649Y90904D01*
X308598Y91034D01*
X308551Y91164D01*
X308540Y91181D01*
X308532Y91200D01*
X308451Y91312D01*
X308373Y91427D01*
X308357Y91441D01*
X308346Y91457D01*
X308238Y91546D01*
X308134Y91638D01*
X308116Y91647D01*
X308101Y91660D01*
X307975Y91719D01*
X307851Y91782D01*
X307831Y91787D01*
X307813Y91795D01*
X307676Y91821D01*
X307541Y91852D01*
X307520Y91851D01*
X307501Y91855D01*
X307362Y91847D01*
X307223Y91842D01*
X307203Y91837D01*
X307183Y91835D01*
X307051Y91793D01*
X306917Y91754D01*
X306900Y91744D01*
X306881Y91737D01*
X306763Y91663D01*
X306643Y91592D01*
X306622Y91574D01*
X306612Y91567D01*
X306598Y91552D01*
X306523Y91486D01*
X306001Y90964D01*
X303106Y89765D01*
X299974Y89765D01*
X297079Y90964D01*
X294864Y93179D01*
X293650Y96111D01*
X293639Y96162D01*
X293625Y96271D01*
X293607Y96317D01*
X293597Y96366D01*
X293549Y96465D01*
X293508Y96567D01*
X293479Y96607D01*
X293457Y96652D01*
X293386Y96735D01*
X293322Y96824D01*
X293283Y96856D01*
X293251Y96894D01*
X293161Y96957D01*
X293077Y97027D01*
X293031Y97048D01*
X292991Y97077D01*
X292888Y97115D01*
X292789Y97162D01*
X292740Y97172D01*
X292693Y97189D01*
X292584Y97201D01*
X292477Y97222D01*
X292427Y97219D01*
X292377Y97224D01*
X292268Y97209D01*
X292159Y97202D01*
X292133Y97194D01*
X290048Y97194D01*
X288180Y97967D01*
X286751Y99396D01*
X285978Y101264D01*
X285978Y103285D01*
X286751Y105152D01*
X288180Y106582D01*
X290048Y107355D01*
X292069Y107355D01*
X293936Y106582D01*
X295077Y105441D01*
X295155Y105380D01*
X295228Y105312D01*
X295281Y105283D01*
X295328Y105246D01*
X295419Y105207D01*
X295506Y105159D01*
X295565Y105144D01*
X295620Y105120D01*
X295718Y105104D01*
X295814Y105079D01*
X295914Y105073D01*
X295934Y105070D01*
X295947Y105071D01*
X295975Y105069D01*
X298465Y105069D01*
X298565Y105053D01*
X298595Y105056D01*
X298624Y105053D01*
X298752Y105071D01*
X298882Y105083D01*
X298910Y105093D01*
X298939Y105097D01*
X299091Y105149D01*
X299974Y105515D01*
X303106Y105515D01*
X306001Y104316D01*
X306523Y103794D01*
X306632Y103709D01*
X306739Y103620D01*
X306758Y103612D01*
X306774Y103599D01*
X306902Y103544D01*
X307027Y103485D01*
X307047Y103481D01*
X307066Y103473D01*
X307204Y103451D01*
X307340Y103425D01*
X307360Y103426D01*
X307380Y103423D01*
X307519Y103436D01*
X307657Y103445D01*
X307676Y103451D01*
X307696Y103453D01*
X307827Y103500D01*
X307959Y103543D01*
X307977Y103553D01*
X307996Y103560D01*
X308110Y103638D01*
X308228Y103713D01*
X308242Y103728D01*
X308259Y103739D01*
X308351Y103843D01*
X308446Y103944D01*
X308456Y103962D01*
X308469Y103977D01*
X308532Y104101D01*
X308600Y104223D01*
X308605Y104242D01*
X308614Y104261D01*
X308644Y104396D01*
X308679Y104531D01*
X308681Y104559D01*
X308684Y104571D01*
X308683Y104591D01*
X308689Y104692D01*
X308689Y114750D01*
X308687Y114764D01*
X308689Y114779D01*
X308667Y114922D01*
X308649Y115065D01*
X308644Y115079D01*
X308642Y115094D01*
X308585Y115227D01*
X308532Y115361D01*
X308524Y115373D01*
X308518Y115386D01*
X308430Y115502D01*
X308346Y115618D01*
X308334Y115628D01*
X308325Y115639D01*
X308212Y115729D01*
X308101Y115821D01*
X308087Y115827D01*
X308076Y115836D01*
X307944Y115895D01*
X307813Y115957D01*
X307798Y115959D01*
X307785Y115965D01*
X307642Y115989D01*
X307501Y116016D01*
X307486Y116015D01*
X307471Y116018D01*
X307327Y116005D01*
X307183Y115997D01*
X307169Y115992D01*
X307154Y115991D01*
X307018Y115943D01*
X306881Y115899D01*
X306868Y115891D01*
X306854Y115886D01*
X306715Y115805D01*
X305751Y115161D01*
X304133Y114491D01*
X304079Y114480D01*
X304079Y121770D01*
X304064Y121888D01*
X304057Y122007D01*
X304044Y122045D01*
X304039Y122085D01*
X303995Y122196D01*
X303959Y122309D01*
X303937Y122344D01*
X303922Y122381D01*
X303852Y122477D01*
X303789Y122578D01*
X303759Y122606D01*
X303735Y122638D01*
X303644Y122714D01*
X303557Y122796D01*
X303522Y122815D01*
X303490Y122841D01*
X303383Y122892D01*
X303279Y122949D01*
X303239Y122960D01*
X303203Y122977D01*
X303086Y122999D01*
X302971Y123029D01*
X302910Y123033D01*
X302890Y123037D01*
X302870Y123035D01*
X302810Y123039D01*
X301539Y123039D01*
X301539Y123041D01*
X302810Y123041D01*
X302928Y123056D01*
X303047Y123063D01*
X303085Y123076D01*
X303125Y123081D01*
X303236Y123125D01*
X303349Y123161D01*
X303384Y123183D01*
X303421Y123198D01*
X303517Y123268D01*
X303618Y123331D01*
X303646Y123361D01*
X303678Y123385D01*
X303754Y123476D01*
X303836Y123563D01*
X303855Y123598D01*
X303881Y123630D01*
X303932Y123737D01*
X303989Y123841D01*
X304000Y123881D01*
X304017Y123917D01*
X304039Y124034D01*
X304069Y124149D01*
X304073Y124210D01*
X304077Y124230D01*
X304075Y124250D01*
X304079Y124310D01*
X304079Y131600D01*
X304133Y131589D01*
X305751Y130919D01*
X306715Y130275D01*
X306728Y130268D01*
X306739Y130259D01*
X306870Y130198D01*
X306999Y130133D01*
X307014Y130130D01*
X307027Y130123D01*
X307168Y130096D01*
X307310Y130066D01*
X307325Y130066D01*
X307340Y130064D01*
X307483Y130073D01*
X307628Y130078D01*
X307642Y130083D01*
X307657Y130083D01*
X307794Y130128D01*
X307933Y130169D01*
X307945Y130177D01*
X307959Y130181D01*
X308082Y130259D01*
X308205Y130333D01*
X308216Y130344D01*
X308228Y130352D01*
X308328Y130457D01*
X308428Y130560D01*
X308436Y130572D01*
X308446Y130583D01*
X308516Y130710D01*
X308588Y130835D01*
X308592Y130849D01*
X308600Y130862D01*
X308636Y131001D01*
X308675Y131141D01*
X308675Y131155D01*
X308679Y131170D01*
X308689Y131330D01*
X308689Y335716D01*
X308686Y335743D01*
X308688Y335769D01*
X308671Y335929D01*
X308310Y338050D01*
X308279Y338152D01*
X308257Y338256D01*
X308224Y338334D01*
X308218Y338355D01*
X308210Y338368D01*
X308194Y338404D01*
X306214Y342370D01*
X306155Y342458D01*
X306103Y342551D01*
X306049Y342616D01*
X306037Y342634D01*
X306025Y342645D01*
X306000Y342675D01*
X304784Y343961D01*
X304775Y343968D01*
X304759Y343986D01*
X304310Y344435D01*
X304293Y344448D01*
X304244Y344496D01*
X303120Y345472D01*
X303110Y345509D01*
X303056Y345599D01*
X303011Y345694D01*
X302976Y345736D01*
X302948Y345783D01*
X302842Y345903D01*
X293812Y354933D01*
X292324Y356421D01*
X292309Y356433D01*
X292232Y356504D01*
X290300Y358090D01*
X290210Y358146D01*
X290125Y358210D01*
X290050Y358248D01*
X290031Y358259D01*
X290016Y358264D01*
X289981Y358281D01*
X285385Y360185D01*
X285282Y360213D01*
X285183Y360250D01*
X285099Y360263D01*
X285078Y360269D01*
X285062Y360269D01*
X285024Y360275D01*
X282536Y360520D01*
X282517Y360520D01*
X282412Y360527D01*
X245234Y360527D01*
X245218Y360525D01*
X245202Y360526D01*
X245042Y360512D01*
X242646Y360144D01*
X242604Y360132D01*
X242560Y360128D01*
X242405Y360083D01*
X237623Y358345D01*
X237546Y358306D01*
X237466Y358276D01*
X237349Y358205D01*
X237340Y358200D01*
X237337Y358197D01*
X237329Y358192D01*
X233159Y355276D01*
X233126Y355246D01*
X233089Y355223D01*
X232970Y355114D01*
X232397Y354516D01*
X232346Y354447D01*
X232287Y354384D01*
X232252Y354320D01*
X232208Y354261D01*
X232200Y354242D01*
X231084Y353124D01*
X231070Y353107D01*
X231010Y353043D01*
X230099Y351960D01*
X230097Y351959D01*
X230057Y351939D01*
X230015Y351927D01*
X229916Y351868D01*
X229813Y351817D01*
X229779Y351788D01*
X229741Y351765D01*
X229620Y351659D01*
X176610Y298591D01*
X176604Y298582D01*
X176586Y298566D01*
X174459Y296314D01*
X169065Y292993D01*
X162996Y291181D01*
X161849Y291148D01*
X161769Y291136D01*
X161688Y291133D01*
X161613Y291111D01*
X161535Y291099D01*
X161512Y291089D01*
X159794Y291089D01*
X159783Y291088D01*
X159758Y291089D01*
X158042Y291040D01*
X158022Y291048D01*
X157941Y291059D01*
X157862Y291079D01*
X157710Y291089D01*
X157706Y291089D01*
X157705Y291089D01*
X157702Y291089D01*
X148613Y291089D01*
X148575Y291084D01*
X148537Y291087D01*
X148418Y291065D01*
X148297Y291049D01*
X148262Y291035D01*
X148225Y291028D01*
X148114Y290977D01*
X148045Y290950D01*
X146668Y291083D01*
X146647Y291083D01*
X146545Y291089D01*
X145163Y291089D01*
X145133Y291112D01*
X145098Y291127D01*
X145067Y291148D01*
X144953Y291190D01*
X144841Y291238D01*
X144804Y291244D01*
X144768Y291257D01*
X144609Y291283D01*
X143617Y291379D01*
X138336Y293357D01*
X133748Y296635D01*
X132048Y298700D01*
X132034Y298713D01*
X132000Y298754D01*
X77385Y357865D01*
X77353Y357892D01*
X77327Y357924D01*
X77203Y358028D01*
X75922Y358966D01*
X75829Y359018D01*
X75741Y359077D01*
X75663Y359110D01*
X75644Y359121D01*
X75628Y359125D01*
X75592Y359140D01*
X72388Y360266D01*
X72285Y360288D01*
X72183Y360319D01*
X72099Y360328D01*
X72077Y360333D01*
X72062Y360332D01*
X72023Y360336D01*
X70493Y360402D01*
X70478Y360401D01*
X70438Y360404D01*
X70124Y360404D01*
X70105Y360401D01*
X70054Y360402D01*
X68500Y360316D01*
X68418Y360338D01*
X68329Y360370D01*
X68265Y360377D01*
X68202Y360393D01*
X68042Y360403D01*
X34244Y360400D01*
X34242Y360400D01*
X32139Y360400D01*
X32119Y360397D01*
X32056Y360397D01*
X30109Y360269D01*
X30066Y360261D01*
X30021Y360261D01*
X29864Y360229D01*
X26101Y359221D01*
X26022Y359188D01*
X25940Y359165D01*
X25817Y359105D01*
X25807Y359101D01*
X25804Y359098D01*
X25795Y359094D01*
X22422Y357147D01*
X22387Y357120D01*
X22347Y357100D01*
X22220Y357002D01*
X20753Y355715D01*
X20739Y355699D01*
X20692Y355658D01*
X11104Y346070D01*
X11050Y346000D01*
X10988Y345937D01*
X10953Y345876D01*
X9636Y344602D01*
X9632Y344597D01*
X9622Y344588D01*
X9582Y344548D01*
X9571Y344534D01*
X9539Y344503D01*
X8225Y343054D01*
X8199Y343018D01*
X8168Y342987D01*
X8076Y342854D01*
X6054Y339482D01*
X6019Y339404D01*
X5976Y339330D01*
X5930Y339201D01*
X5925Y339191D01*
X5925Y339187D01*
X5922Y339178D01*
X4840Y335398D01*
X4834Y335354D01*
X4819Y335312D01*
X4796Y335153D01*
X4635Y333198D01*
X4636Y333176D01*
X4630Y333094D01*
X4630Y45400D01*
X4648Y45262D01*
X4661Y45124D01*
X4668Y45105D01*
X4670Y45085D01*
X4722Y44955D01*
X4769Y44825D01*
X4780Y44808D01*
X4787Y44789D01*
X4869Y44677D01*
X4947Y44561D01*
X4962Y44548D01*
X4974Y44532D01*
X5081Y44443D01*
X5186Y44351D01*
X5204Y44342D01*
X5219Y44329D01*
X5345Y44270D01*
X5469Y44206D01*
X5489Y44202D01*
X5507Y44193D01*
X5643Y44167D01*
X5779Y44137D01*
X5799Y44137D01*
X5819Y44134D01*
X5958Y44142D01*
X6097Y44146D01*
X6117Y44152D01*
X6137Y44153D01*
X6269Y44196D01*
X6402Y44235D01*
X6420Y44245D01*
X6439Y44251D01*
X6557Y44326D01*
X6676Y44396D01*
X6697Y44415D01*
X6708Y44421D01*
X6722Y44436D01*
X6797Y44503D01*
X8033Y45739D01*
X9900Y46512D01*
X11922Y46512D01*
X13789Y45739D01*
X15218Y44309D01*
X15992Y42442D01*
X15992Y40421D01*
X15884Y40160D01*
X15871Y40112D01*
X15849Y40067D01*
X15829Y39959D01*
X15800Y39853D01*
X15799Y39803D01*
X15790Y39754D01*
X15796Y39645D01*
X15795Y39535D01*
X15806Y39487D01*
X15809Y39437D01*
X15843Y39333D01*
X15869Y39226D01*
X15892Y39182D01*
X15907Y39135D01*
X15966Y39042D01*
X16018Y38945D01*
X16051Y38908D01*
X16078Y38866D01*
X16136Y38811D01*
X16136Y25488D01*
X9219Y25488D01*
X9219Y30705D01*
X9548Y32355D01*
X10191Y33910D01*
X10546Y34441D01*
X10584Y34517D01*
X10631Y34587D01*
X10655Y34658D01*
X10689Y34726D01*
X10706Y34808D01*
X10734Y34888D01*
X10740Y34963D01*
X10756Y35036D01*
X10752Y35121D01*
X10759Y35205D01*
X10746Y35279D01*
X10743Y35354D01*
X10719Y35435D01*
X10705Y35518D01*
X10674Y35587D01*
X10652Y35659D01*
X10609Y35731D01*
X10574Y35808D01*
X10527Y35867D01*
X10488Y35931D01*
X10428Y35991D01*
X10376Y36057D01*
X10315Y36102D01*
X10262Y36155D01*
X10189Y36197D01*
X10121Y36248D01*
X9995Y36310D01*
X9987Y36315D01*
X9983Y36316D01*
X9977Y36319D01*
X8033Y37124D01*
X6797Y38360D01*
X6688Y38445D01*
X6580Y38534D01*
X6562Y38542D01*
X6546Y38555D01*
X6418Y38610D01*
X6293Y38669D01*
X6273Y38673D01*
X6254Y38681D01*
X6116Y38703D01*
X5980Y38729D01*
X5960Y38728D01*
X5940Y38731D01*
X5801Y38718D01*
X5663Y38709D01*
X5644Y38703D01*
X5623Y38701D01*
X5492Y38654D01*
X5360Y38611D01*
X5343Y38600D01*
X5324Y38594D01*
X5209Y38516D01*
X5092Y38441D01*
X5078Y38426D01*
X5061Y38415D01*
X4969Y38311D01*
X4874Y38210D01*
X4864Y38192D01*
X4850Y38177D01*
X4787Y38052D01*
X4720Y37931D01*
X4715Y37911D01*
X4706Y37893D01*
X4675Y37758D01*
X4641Y37623D01*
X4639Y37595D01*
X4636Y37583D01*
X4637Y37563D01*
X4630Y37462D01*
X4630Y6083D01*
X4635Y6045D01*
X4633Y6007D01*
X4652Y5847D01*
X4699Y5603D01*
X4702Y5594D01*
X4702Y5585D01*
X4750Y5444D01*
X4796Y5300D01*
X4801Y5292D01*
X4804Y5283D01*
X4884Y5143D01*
X5200Y4660D01*
X5259Y4590D01*
X5312Y4513D01*
X5362Y4469D01*
X5406Y4418D01*
X5481Y4365D01*
X5551Y4303D01*
X5652Y4244D01*
X5666Y4234D01*
X5673Y4231D01*
X5689Y4222D01*
X6205Y3961D01*
X6214Y3958D01*
X6221Y3953D01*
X6363Y3905D01*
X6504Y3855D01*
X6514Y3854D01*
X6522Y3851D01*
X6682Y3828D01*
X6868Y3814D01*
X6890Y3815D01*
X6964Y3811D01*
X7209Y3811D01*
X7228Y3813D01*
G37*
%LPC*%
G36*
X145357Y94197D02*
X145357Y94197D01*
X139548Y96603D01*
X135103Y101048D01*
X132697Y106857D01*
X132697Y113143D01*
X135103Y118952D01*
X139548Y123397D01*
X145357Y125803D01*
X151643Y125803D01*
X157452Y123397D01*
X161897Y118952D01*
X164303Y113143D01*
X164303Y106857D01*
X161897Y101048D01*
X157452Y96603D01*
X151643Y94197D01*
X145357Y94197D01*
G37*
%LPD*%
%LPC*%
G36*
X18302Y173043D02*
X18302Y173043D01*
X16435Y173817D01*
X15005Y175246D01*
X14232Y177113D01*
X14232Y179135D01*
X15005Y181002D01*
X16435Y182431D01*
X18302Y183205D01*
X20275Y183205D01*
X20325Y183211D01*
X20374Y183209D01*
X20482Y183231D01*
X20591Y183245D01*
X20637Y183263D01*
X20686Y183273D01*
X20784Y183321D01*
X20887Y183362D01*
X20927Y183391D01*
X20971Y183413D01*
X21055Y183484D01*
X21144Y183549D01*
X21176Y183587D01*
X21213Y183619D01*
X21277Y183709D01*
X21347Y183794D01*
X21368Y183839D01*
X21397Y183879D01*
X21435Y183982D01*
X21482Y184081D01*
X21492Y184130D01*
X21509Y184176D01*
X21521Y184286D01*
X21542Y184394D01*
X21539Y184443D01*
X21544Y184493D01*
X21529Y184602D01*
X21522Y184711D01*
X21507Y184758D01*
X21500Y184807D01*
X21448Y184960D01*
X20590Y187030D01*
X20590Y189051D01*
X21364Y190919D01*
X22793Y192348D01*
X24660Y193121D01*
X26682Y193121D01*
X28549Y192348D01*
X29978Y190919D01*
X30752Y189051D01*
X30752Y188477D01*
X30767Y188359D01*
X30774Y188240D01*
X30787Y188201D01*
X30792Y188161D01*
X30836Y188051D01*
X30872Y187937D01*
X30894Y187903D01*
X30909Y187866D01*
X30979Y187769D01*
X31042Y187669D01*
X31072Y187641D01*
X31096Y187608D01*
X31187Y187532D01*
X31274Y187451D01*
X31309Y187431D01*
X31341Y187405D01*
X31448Y187355D01*
X31553Y187297D01*
X31592Y187287D01*
X31628Y187270D01*
X31745Y187248D01*
X31860Y187218D01*
X31921Y187214D01*
X31941Y187210D01*
X31961Y187211D01*
X32021Y187208D01*
X33351Y187208D01*
X35219Y186434D01*
X36648Y185005D01*
X37421Y183138D01*
X37421Y181116D01*
X36648Y179249D01*
X35219Y177820D01*
X33351Y177046D01*
X31330Y177046D01*
X29463Y177820D01*
X28033Y179249D01*
X27260Y181116D01*
X27260Y181691D01*
X27245Y181809D01*
X27238Y181928D01*
X27225Y181966D01*
X27220Y182006D01*
X27176Y182117D01*
X27139Y182230D01*
X27118Y182264D01*
X27103Y182302D01*
X27033Y182398D01*
X26969Y182499D01*
X26940Y182527D01*
X26916Y182559D01*
X26824Y182635D01*
X26738Y182717D01*
X26702Y182736D01*
X26671Y182762D01*
X26563Y182813D01*
X26459Y182870D01*
X26420Y182880D01*
X26383Y182898D01*
X26267Y182920D01*
X26151Y182950D01*
X26091Y182954D01*
X26071Y182957D01*
X26051Y182956D01*
X25991Y182960D01*
X24708Y182960D01*
X24659Y182954D01*
X24610Y182956D01*
X24502Y182934D01*
X24393Y182920D01*
X24347Y182902D01*
X24298Y182892D01*
X24200Y182844D01*
X24097Y182803D01*
X24057Y182774D01*
X24012Y182752D01*
X23929Y182681D01*
X23840Y182616D01*
X23808Y182578D01*
X23770Y182546D01*
X23707Y182456D01*
X23637Y182371D01*
X23616Y182326D01*
X23587Y182286D01*
X23548Y182183D01*
X23502Y182084D01*
X23492Y182035D01*
X23475Y181988D01*
X23462Y181879D01*
X23442Y181771D01*
X23445Y181722D01*
X23439Y181672D01*
X23455Y181563D01*
X23462Y181454D01*
X23477Y181407D01*
X23484Y181357D01*
X23536Y181205D01*
X24393Y179135D01*
X24393Y177113D01*
X23620Y175246D01*
X22191Y173817D01*
X20323Y173043D01*
X18302Y173043D01*
G37*
%LPD*%
%LPC*%
G36*
X13118Y92550D02*
X13118Y92550D01*
X11251Y93324D01*
X9821Y94753D01*
X9048Y96620D01*
X9048Y98642D01*
X9821Y100509D01*
X11251Y101938D01*
X13118Y102712D01*
X15139Y102712D01*
X16089Y102318D01*
X16203Y102287D01*
X16316Y102248D01*
X16356Y102245D01*
X16395Y102234D01*
X16515Y102232D01*
X16633Y102223D01*
X16673Y102230D01*
X16713Y102229D01*
X16829Y102257D01*
X16946Y102277D01*
X16983Y102294D01*
X17023Y102303D01*
X17128Y102359D01*
X17236Y102408D01*
X17268Y102433D01*
X17304Y102452D01*
X17392Y102532D01*
X17485Y102607D01*
X17509Y102639D01*
X17539Y102666D01*
X17604Y102765D01*
X17676Y102861D01*
X17703Y102915D01*
X17714Y102932D01*
X17721Y102951D01*
X17747Y103005D01*
X18045Y103724D01*
X19474Y105153D01*
X20450Y105558D01*
X20554Y105617D01*
X20660Y105669D01*
X20691Y105695D01*
X20726Y105715D01*
X20812Y105798D01*
X20902Y105875D01*
X20926Y105908D01*
X20955Y105936D01*
X21017Y106038D01*
X21085Y106135D01*
X21100Y106173D01*
X21121Y106207D01*
X21156Y106321D01*
X21198Y106433D01*
X21203Y106473D01*
X21215Y106511D01*
X21220Y106630D01*
X21233Y106749D01*
X21228Y106789D01*
X21230Y106829D01*
X21206Y106946D01*
X21189Y107064D01*
X21169Y107120D01*
X21165Y107140D01*
X21156Y107159D01*
X21137Y107216D01*
X20827Y107963D01*
X20827Y109985D01*
X21601Y111852D01*
X23030Y113281D01*
X24897Y114055D01*
X26919Y114055D01*
X28786Y113281D01*
X30215Y111852D01*
X30989Y109985D01*
X30989Y107963D01*
X30215Y106096D01*
X28786Y104667D01*
X27810Y104262D01*
X27706Y104203D01*
X27600Y104151D01*
X27569Y104125D01*
X27534Y104105D01*
X27448Y104022D01*
X27358Y103945D01*
X27334Y103912D01*
X27305Y103884D01*
X27243Y103782D01*
X27175Y103685D01*
X27160Y103647D01*
X27139Y103613D01*
X27104Y103499D01*
X27062Y103387D01*
X27057Y103347D01*
X27045Y103309D01*
X27040Y103190D01*
X27027Y103071D01*
X27032Y103031D01*
X27030Y102991D01*
X27054Y102874D01*
X27071Y102756D01*
X27091Y102700D01*
X27095Y102680D01*
X27104Y102661D01*
X27123Y102604D01*
X27433Y101857D01*
X27433Y99835D01*
X26659Y97968D01*
X25230Y96539D01*
X23363Y95765D01*
X21341Y95765D01*
X20392Y96159D01*
X20277Y96190D01*
X20164Y96229D01*
X20124Y96232D01*
X20085Y96243D01*
X19966Y96244D01*
X19847Y96254D01*
X19808Y96247D01*
X19767Y96248D01*
X19651Y96220D01*
X19534Y96199D01*
X19497Y96183D01*
X19458Y96173D01*
X19353Y96118D01*
X19244Y96069D01*
X19212Y96044D01*
X19177Y96025D01*
X19089Y95945D01*
X18996Y95870D01*
X18971Y95838D01*
X18941Y95811D01*
X18876Y95711D01*
X18804Y95616D01*
X18778Y95562D01*
X18767Y95545D01*
X18760Y95526D01*
X18733Y95472D01*
X18436Y94753D01*
X17006Y93324D01*
X15139Y92550D01*
X13118Y92550D01*
G37*
%LPD*%
%LPC*%
G36*
X19384Y63738D02*
X19384Y63738D01*
X19384Y76075D01*
X19825Y75987D01*
X19980Y75976D01*
X20131Y75964D01*
X20136Y75965D01*
X20142Y75965D01*
X20293Y75992D01*
X20444Y76019D01*
X20449Y76021D01*
X20455Y76022D01*
X20593Y76086D01*
X20734Y76149D01*
X20739Y76153D01*
X20744Y76155D01*
X20862Y76251D01*
X20983Y76348D01*
X20986Y76352D01*
X20990Y76356D01*
X21081Y76478D01*
X21174Y76602D01*
X21177Y76608D01*
X21179Y76611D01*
X21183Y76620D01*
X21245Y76746D01*
X22109Y78832D01*
X23538Y80261D01*
X25405Y81035D01*
X27427Y81035D01*
X29450Y80197D01*
X29465Y80187D01*
X29516Y80169D01*
X29527Y80165D01*
X29539Y80161D01*
X29568Y80152D01*
X29668Y80108D01*
X29718Y80100D01*
X29766Y80084D01*
X29874Y80075D01*
X29982Y80058D01*
X30032Y80062D01*
X30083Y80058D01*
X30190Y80077D01*
X30298Y80087D01*
X30346Y80104D01*
X30396Y80113D01*
X30496Y80158D01*
X30598Y80194D01*
X30640Y80223D01*
X30686Y80243D01*
X30771Y80311D01*
X30861Y80373D01*
X30895Y80411D01*
X30934Y80442D01*
X31000Y80529D01*
X31072Y80611D01*
X31095Y80656D01*
X31126Y80696D01*
X31197Y80841D01*
X31353Y81218D01*
X32782Y82647D01*
X34649Y83421D01*
X36671Y83421D01*
X38538Y82647D01*
X39967Y81218D01*
X40741Y79351D01*
X40741Y77329D01*
X39967Y75462D01*
X38538Y74033D01*
X36671Y73259D01*
X34649Y73259D01*
X32626Y74097D01*
X32611Y74107D01*
X32560Y74125D01*
X32549Y74129D01*
X32537Y74133D01*
X32508Y74142D01*
X32408Y74186D01*
X32358Y74194D01*
X32310Y74210D01*
X32202Y74219D01*
X32094Y74236D01*
X32044Y74232D01*
X31993Y74236D01*
X31886Y74217D01*
X31778Y74207D01*
X31730Y74190D01*
X31680Y74181D01*
X31581Y74136D01*
X31478Y74100D01*
X31436Y74071D01*
X31390Y74051D01*
X31305Y73983D01*
X31215Y73922D01*
X31181Y73884D01*
X31142Y73852D01*
X31076Y73765D01*
X31004Y73683D01*
X30981Y73638D01*
X30950Y73598D01*
X30880Y73453D01*
X30723Y73076D01*
X29294Y71647D01*
X27427Y70873D01*
X27210Y70873D01*
X27126Y70863D01*
X27042Y70862D01*
X26969Y70843D01*
X26894Y70833D01*
X26816Y70802D01*
X26734Y70781D01*
X26669Y70744D01*
X26599Y70716D01*
X26530Y70667D01*
X26457Y70626D01*
X26402Y70574D01*
X26341Y70530D01*
X26287Y70464D01*
X26226Y70406D01*
X26186Y70343D01*
X26139Y70285D01*
X26103Y70208D01*
X26058Y70137D01*
X26035Y70065D01*
X26003Y69997D01*
X25987Y69914D01*
X25962Y69833D01*
X25957Y69758D01*
X25943Y69685D01*
X25948Y69600D01*
X25944Y69516D01*
X25962Y69376D01*
X25963Y69367D01*
X25964Y69364D01*
X25965Y69356D01*
X26091Y68725D01*
X26091Y63738D01*
X19384Y63738D01*
G37*
%LPD*%
%LPC*%
G36*
X19384Y60490D02*
X19384Y60490D01*
X26162Y60490D01*
X26207Y60397D01*
X26248Y60295D01*
X26277Y60255D01*
X26299Y60210D01*
X26370Y60127D01*
X26434Y60038D01*
X26473Y60006D01*
X26505Y59968D01*
X26595Y59905D01*
X26679Y59835D01*
X26724Y59814D01*
X26765Y59785D01*
X26868Y59746D01*
X26967Y59699D01*
X27016Y59690D01*
X27062Y59672D01*
X27172Y59660D01*
X27279Y59640D01*
X27329Y59643D01*
X27378Y59637D01*
X27487Y59652D01*
X27597Y59659D01*
X27644Y59675D01*
X27693Y59682D01*
X27846Y59734D01*
X29828Y60555D01*
X32092Y60555D01*
X34184Y59688D01*
X35784Y58088D01*
X36651Y55996D01*
X36651Y53732D01*
X35784Y51640D01*
X34184Y50040D01*
X32092Y49173D01*
X29828Y49173D01*
X27736Y50040D01*
X26339Y51438D01*
X26272Y51489D01*
X26212Y51549D01*
X26147Y51586D01*
X26087Y51632D01*
X26010Y51666D01*
X25937Y51708D01*
X25864Y51729D01*
X25795Y51759D01*
X25712Y51772D01*
X25631Y51795D01*
X25556Y51797D01*
X25481Y51809D01*
X25397Y51801D01*
X25313Y51803D01*
X25240Y51786D01*
X25165Y51779D01*
X25085Y51750D01*
X25003Y51731D01*
X24936Y51697D01*
X24865Y51671D01*
X24796Y51624D01*
X24721Y51585D01*
X24665Y51535D01*
X24602Y51493D01*
X24546Y51429D01*
X24483Y51373D01*
X24398Y51261D01*
X24392Y51254D01*
X24390Y51251D01*
X24386Y51245D01*
X24231Y51013D01*
X23071Y49853D01*
X21706Y48941D01*
X20190Y48313D01*
X19384Y48153D01*
X19384Y60490D01*
G37*
%LPD*%
%LPC*%
G36*
X101730Y48313D02*
X101730Y48313D01*
X100214Y48941D01*
X98849Y49853D01*
X97689Y51013D01*
X97534Y51245D01*
X97479Y51309D01*
X97432Y51379D01*
X97375Y51429D01*
X97326Y51485D01*
X97256Y51533D01*
X97193Y51589D01*
X97126Y51623D01*
X97064Y51666D01*
X96985Y51696D01*
X96910Y51734D01*
X96837Y51750D01*
X96766Y51776D01*
X96682Y51785D01*
X96600Y51804D01*
X96524Y51801D01*
X96450Y51809D01*
X96366Y51796D01*
X96282Y51794D01*
X96209Y51773D01*
X96135Y51762D01*
X96057Y51729D01*
X95976Y51705D01*
X95911Y51667D01*
X95842Y51638D01*
X95775Y51587D01*
X95702Y51544D01*
X95597Y51451D01*
X95589Y51445D01*
X95587Y51442D01*
X95581Y51438D01*
X94184Y50040D01*
X92092Y49173D01*
X89828Y49173D01*
X87736Y50040D01*
X86136Y51640D01*
X85269Y53732D01*
X85269Y55996D01*
X86136Y58088D01*
X87736Y59688D01*
X89828Y60555D01*
X92092Y60555D01*
X94074Y59734D01*
X94122Y59720D01*
X94167Y59699D01*
X94275Y59679D01*
X94381Y59650D01*
X94431Y59649D01*
X94480Y59640D01*
X94589Y59646D01*
X94699Y59645D01*
X94747Y59656D01*
X94797Y59659D01*
X94901Y59693D01*
X95008Y59719D01*
X95052Y59742D01*
X95099Y59757D01*
X95192Y59816D01*
X95289Y59867D01*
X95326Y59901D01*
X95368Y59927D01*
X95443Y60008D01*
X95525Y60081D01*
X95552Y60123D01*
X95586Y60159D01*
X95639Y60255D01*
X95699Y60347D01*
X95716Y60394D01*
X95740Y60438D01*
X95753Y60490D01*
X102536Y60490D01*
X102536Y48153D01*
X101730Y48313D01*
G37*
%LPD*%
%LPC*%
G36*
X237971Y213051D02*
X237971Y213051D01*
X236104Y213825D01*
X234675Y215254D01*
X233901Y217121D01*
X233901Y219143D01*
X234675Y221010D01*
X236104Y222439D01*
X237971Y223213D01*
X239993Y223213D01*
X241860Y222439D01*
X243283Y221017D01*
X243322Y220986D01*
X243355Y220949D01*
X243447Y220889D01*
X243534Y220822D01*
X243580Y220802D01*
X243621Y220775D01*
X243725Y220739D01*
X243826Y220695D01*
X243875Y220687D01*
X243922Y220671D01*
X244031Y220663D01*
X244140Y220645D01*
X244189Y220650D01*
X244239Y220646D01*
X244347Y220665D01*
X244456Y220675D01*
X244503Y220692D01*
X244552Y220701D01*
X244652Y220746D01*
X244756Y220783D01*
X244797Y220811D01*
X244842Y220831D01*
X244928Y220900D01*
X245019Y220961D01*
X245052Y220999D01*
X245091Y221030D01*
X245157Y221117D01*
X245229Y221200D01*
X245252Y221244D01*
X245282Y221284D01*
X245353Y221428D01*
X245964Y222903D01*
X247393Y224332D01*
X249260Y225106D01*
X251281Y225106D01*
X253149Y224332D01*
X254578Y222903D01*
X255352Y221036D01*
X255352Y219014D01*
X254578Y217147D01*
X253149Y215718D01*
X251281Y214944D01*
X249260Y214944D01*
X247393Y215718D01*
X245970Y217140D01*
X245931Y217171D01*
X245898Y217208D01*
X245806Y217268D01*
X245719Y217335D01*
X245673Y217355D01*
X245632Y217382D01*
X245528Y217418D01*
X245427Y217462D01*
X245378Y217469D01*
X245331Y217485D01*
X245222Y217494D01*
X245113Y217511D01*
X245063Y217507D01*
X245014Y217511D01*
X244906Y217492D01*
X244796Y217482D01*
X244750Y217465D01*
X244701Y217456D01*
X244601Y217411D01*
X244497Y217374D01*
X244456Y217346D01*
X244411Y217326D01*
X244325Y217257D01*
X244234Y217195D01*
X244201Y217158D01*
X244162Y217127D01*
X244096Y217039D01*
X244023Y216957D01*
X244001Y216913D01*
X243971Y216873D01*
X243900Y216729D01*
X243289Y215254D01*
X241860Y213825D01*
X239993Y213051D01*
X237971Y213051D01*
G37*
%LPD*%
%LPC*%
G36*
X114773Y155117D02*
X114773Y155117D01*
X112906Y155890D01*
X111477Y157319D01*
X110703Y159187D01*
X110703Y161208D01*
X111477Y163075D01*
X112906Y164505D01*
X113089Y164580D01*
X113210Y164649D01*
X113333Y164715D01*
X113348Y164728D01*
X113365Y164738D01*
X113465Y164835D01*
X113568Y164929D01*
X113579Y164945D01*
X113594Y164959D01*
X113666Y165078D01*
X113743Y165194D01*
X113749Y165213D01*
X113760Y165230D01*
X113801Y165363D01*
X113846Y165495D01*
X113848Y165515D01*
X113853Y165534D01*
X113860Y165673D01*
X113871Y165812D01*
X113868Y165832D01*
X113869Y165852D01*
X113840Y165988D01*
X113817Y166126D01*
X113808Y166144D01*
X113804Y166163D01*
X113743Y166289D01*
X113686Y166416D01*
X113673Y166431D01*
X113665Y166449D01*
X113574Y166556D01*
X113487Y166664D01*
X113471Y166676D01*
X113458Y166691D01*
X113368Y166754D01*
X111844Y168278D01*
X111071Y170146D01*
X111071Y172167D01*
X111844Y174034D01*
X113274Y175464D01*
X115141Y176237D01*
X117162Y176237D01*
X119030Y175464D01*
X120459Y174034D01*
X121232Y172167D01*
X121232Y170146D01*
X120459Y168278D01*
X119030Y166849D01*
X118847Y166773D01*
X118726Y166704D01*
X118603Y166639D01*
X118588Y166626D01*
X118570Y166616D01*
X118471Y166519D01*
X118367Y166425D01*
X118356Y166408D01*
X118342Y166395D01*
X118270Y166276D01*
X118193Y166159D01*
X118186Y166140D01*
X118176Y166123D01*
X118135Y165991D01*
X118090Y165859D01*
X118088Y165839D01*
X118082Y165820D01*
X118076Y165681D01*
X118065Y165542D01*
X118068Y165522D01*
X118067Y165502D01*
X118095Y165365D01*
X118119Y165228D01*
X118127Y165210D01*
X118131Y165190D01*
X118193Y165065D01*
X118250Y164938D01*
X118262Y164923D01*
X118271Y164905D01*
X118362Y164798D01*
X118448Y164690D01*
X118464Y164678D01*
X118477Y164663D01*
X118567Y164600D01*
X120091Y163075D01*
X120865Y161208D01*
X120865Y159187D01*
X120091Y157319D01*
X118662Y155890D01*
X116795Y155117D01*
X114773Y155117D01*
G37*
%LPD*%
%LPC*%
G36*
X153866Y256104D02*
X153866Y256104D01*
X151999Y256877D01*
X150570Y258306D01*
X149796Y260174D01*
X149796Y262195D01*
X150570Y264062D01*
X151999Y265492D01*
X153866Y266265D01*
X155888Y266265D01*
X157755Y265492D01*
X157765Y265482D01*
X157820Y265439D01*
X157868Y265389D01*
X157945Y265342D01*
X158016Y265287D01*
X158080Y265259D01*
X158140Y265223D01*
X158225Y265196D01*
X158308Y265161D01*
X158377Y265150D01*
X158444Y265129D01*
X158533Y265125D01*
X158622Y265111D01*
X158691Y265117D01*
X158761Y265114D01*
X158849Y265132D01*
X158938Y265140D01*
X159004Y265164D01*
X159073Y265178D01*
X159153Y265218D01*
X159238Y265248D01*
X159296Y265287D01*
X159358Y265318D01*
X159427Y265376D01*
X159501Y265427D01*
X159547Y265479D01*
X159600Y265524D01*
X159652Y265598D01*
X159711Y265665D01*
X159743Y265727D01*
X159783Y265784D01*
X159815Y265868D01*
X159856Y265948D01*
X159871Y266016D01*
X159896Y266082D01*
X159906Y266171D01*
X159926Y266259D01*
X159924Y266328D01*
X159931Y266398D01*
X159919Y266487D01*
X159916Y266576D01*
X159897Y266643D01*
X159887Y266713D01*
X159835Y266865D01*
X159755Y267059D01*
X159755Y269080D01*
X160528Y270948D01*
X161957Y272377D01*
X163825Y273150D01*
X165846Y273150D01*
X167713Y272377D01*
X169143Y270948D01*
X169916Y269080D01*
X169916Y267059D01*
X169143Y265192D01*
X167713Y263762D01*
X165846Y262989D01*
X163825Y262989D01*
X161957Y263762D01*
X161947Y263772D01*
X161892Y263815D01*
X161844Y263865D01*
X161767Y263912D01*
X161696Y263967D01*
X161632Y263995D01*
X161573Y264031D01*
X161487Y264058D01*
X161404Y264093D01*
X161335Y264104D01*
X161269Y264125D01*
X161179Y264129D01*
X161090Y264143D01*
X161021Y264137D01*
X160951Y264140D01*
X160863Y264122D01*
X160774Y264114D01*
X160708Y264090D01*
X160639Y264076D01*
X160559Y264036D01*
X160474Y264006D01*
X160417Y263967D01*
X160354Y263936D01*
X160285Y263878D01*
X160211Y263827D01*
X160165Y263775D01*
X160112Y263730D01*
X160060Y263656D01*
X160001Y263589D01*
X159969Y263527D01*
X159929Y263470D01*
X159897Y263386D01*
X159856Y263306D01*
X159841Y263238D01*
X159816Y263172D01*
X159806Y263083D01*
X159786Y262995D01*
X159789Y262926D01*
X159781Y262856D01*
X159793Y262767D01*
X159796Y262678D01*
X159815Y262611D01*
X159825Y262541D01*
X159877Y262389D01*
X159958Y262195D01*
X159958Y260174D01*
X159184Y258306D01*
X157755Y256877D01*
X155888Y256104D01*
X153866Y256104D01*
G37*
%LPD*%
%LPC*%
G36*
X193790Y41851D02*
X193790Y41851D01*
X191922Y42624D01*
X190493Y44053D01*
X189720Y45921D01*
X189720Y47942D01*
X190493Y49809D01*
X191727Y51043D01*
X191757Y51082D01*
X191794Y51115D01*
X191854Y51207D01*
X191921Y51294D01*
X191941Y51340D01*
X191969Y51381D01*
X192004Y51485D01*
X192048Y51586D01*
X192056Y51635D01*
X192072Y51682D01*
X192080Y51791D01*
X192098Y51900D01*
X192093Y51950D01*
X192097Y51999D01*
X192078Y52107D01*
X192068Y52217D01*
X192051Y52263D01*
X192043Y52312D01*
X191997Y52413D01*
X191960Y52516D01*
X191932Y52557D01*
X191912Y52602D01*
X191843Y52688D01*
X191782Y52779D01*
X191744Y52812D01*
X191713Y52851D01*
X191626Y52917D01*
X191543Y52990D01*
X191499Y53012D01*
X191459Y53042D01*
X191315Y53113D01*
X191122Y53193D01*
X189693Y54622D01*
X188919Y56489D01*
X188919Y58511D01*
X189693Y60378D01*
X191122Y61807D01*
X192989Y62581D01*
X195011Y62581D01*
X196878Y61807D01*
X198307Y60378D01*
X199081Y58511D01*
X199081Y56489D01*
X198307Y54622D01*
X197074Y53389D01*
X197043Y53349D01*
X197007Y53316D01*
X196946Y53224D01*
X196879Y53137D01*
X196859Y53092D01*
X196832Y53050D01*
X196796Y52946D01*
X196752Y52845D01*
X196745Y52796D01*
X196729Y52749D01*
X196720Y52640D01*
X196703Y52531D01*
X196707Y52482D01*
X196703Y52432D01*
X196722Y52324D01*
X196732Y52215D01*
X196749Y52168D01*
X196758Y52119D01*
X196803Y52019D01*
X196840Y51915D01*
X196868Y51874D01*
X196888Y51829D01*
X196957Y51743D01*
X197019Y51652D01*
X197056Y51619D01*
X197087Y51581D01*
X197174Y51515D01*
X197257Y51442D01*
X197301Y51419D01*
X197341Y51389D01*
X197486Y51318D01*
X197678Y51239D01*
X199108Y49809D01*
X199881Y47942D01*
X199881Y45921D01*
X199108Y44053D01*
X197678Y42624D01*
X195811Y41851D01*
X193790Y41851D01*
G37*
%LPD*%
%LPC*%
G36*
X210592Y207868D02*
X210592Y207868D01*
X208725Y208641D01*
X207295Y210070D01*
X206522Y211938D01*
X206522Y213959D01*
X207295Y215826D01*
X208725Y217256D01*
X210592Y218029D01*
X211778Y218029D01*
X211916Y218047D01*
X212055Y218060D01*
X212074Y218067D01*
X212094Y218069D01*
X212223Y218120D01*
X212354Y218167D01*
X212371Y218179D01*
X212389Y218186D01*
X212502Y218268D01*
X212617Y218346D01*
X212630Y218361D01*
X212647Y218373D01*
X212736Y218480D01*
X212828Y218584D01*
X212837Y218602D01*
X212850Y218618D01*
X212909Y218744D01*
X212972Y218868D01*
X212977Y218887D01*
X212985Y218906D01*
X213011Y219041D01*
X213042Y219178D01*
X213041Y219198D01*
X213045Y219218D01*
X213036Y219356D01*
X213032Y219496D01*
X213026Y219515D01*
X213025Y219535D01*
X212982Y219667D01*
X212944Y219801D01*
X212933Y219819D01*
X212927Y219838D01*
X212853Y219955D01*
X212782Y220075D01*
X212764Y220096D01*
X212757Y220107D01*
X212742Y220121D01*
X212676Y220196D01*
X211394Y221478D01*
X210620Y223345D01*
X210620Y225367D01*
X211394Y227234D01*
X212823Y228663D01*
X214690Y229437D01*
X216711Y229437D01*
X218579Y228663D01*
X220008Y227234D01*
X220782Y225367D01*
X220782Y223345D01*
X220008Y221478D01*
X218579Y220049D01*
X216711Y219275D01*
X215525Y219275D01*
X215387Y219258D01*
X215249Y219245D01*
X215230Y219238D01*
X215210Y219236D01*
X215081Y219184D01*
X214950Y219137D01*
X214933Y219126D01*
X214914Y219119D01*
X214802Y219037D01*
X214686Y218959D01*
X214673Y218944D01*
X214657Y218932D01*
X214568Y218824D01*
X214476Y218720D01*
X214467Y218702D01*
X214454Y218687D01*
X214395Y218561D01*
X214331Y218437D01*
X214327Y218417D01*
X214318Y218399D01*
X214292Y218263D01*
X214262Y218127D01*
X214262Y218107D01*
X214259Y218087D01*
X214267Y217948D01*
X214271Y217809D01*
X214277Y217789D01*
X214278Y217769D01*
X214321Y217637D01*
X214360Y217503D01*
X214370Y217486D01*
X214376Y217467D01*
X214451Y217349D01*
X214521Y217229D01*
X214540Y217208D01*
X214546Y217198D01*
X214561Y217184D01*
X214628Y217109D01*
X215910Y215826D01*
X216683Y213959D01*
X216683Y211938D01*
X215910Y210070D01*
X214481Y208641D01*
X212613Y207868D01*
X210592Y207868D01*
G37*
%LPD*%
%LPC*%
G36*
X150406Y206702D02*
X150406Y206702D01*
X148539Y207475D01*
X147110Y208904D01*
X146336Y210772D01*
X146336Y212793D01*
X147110Y214660D01*
X148539Y216090D01*
X150406Y216863D01*
X152428Y216863D01*
X154295Y216090D01*
X155071Y215313D01*
X155111Y215283D01*
X155144Y215246D01*
X155236Y215186D01*
X155323Y215118D01*
X155368Y215099D01*
X155410Y215071D01*
X155513Y215036D01*
X155614Y214992D01*
X155664Y214984D01*
X155710Y214968D01*
X155820Y214959D01*
X155928Y214942D01*
X155978Y214947D01*
X156028Y214943D01*
X156136Y214962D01*
X156245Y214972D01*
X156292Y214989D01*
X156341Y214997D01*
X156441Y215042D01*
X156544Y215080D01*
X156585Y215107D01*
X156631Y215128D01*
X156717Y215197D01*
X156808Y215258D01*
X156840Y215296D01*
X156879Y215327D01*
X156945Y215414D01*
X157018Y215497D01*
X157041Y215541D01*
X157070Y215581D01*
X157141Y215725D01*
X157480Y216543D01*
X158909Y217972D01*
X160777Y218745D01*
X162798Y218745D01*
X164665Y217972D01*
X166095Y216543D01*
X166868Y214675D01*
X166868Y212654D01*
X166095Y210787D01*
X164665Y209357D01*
X162798Y208584D01*
X160777Y208584D01*
X158909Y209357D01*
X158133Y210134D01*
X158094Y210164D01*
X158060Y210201D01*
X157968Y210261D01*
X157882Y210329D01*
X157836Y210348D01*
X157795Y210376D01*
X157691Y210411D01*
X157590Y210455D01*
X157541Y210463D01*
X157494Y210479D01*
X157384Y210488D01*
X157276Y210505D01*
X157226Y210500D01*
X157177Y210504D01*
X157068Y210485D01*
X156959Y210475D01*
X156912Y210458D01*
X156863Y210450D01*
X156763Y210405D01*
X156660Y210367D01*
X156619Y210339D01*
X156573Y210319D01*
X156488Y210251D01*
X156397Y210189D01*
X156364Y210152D01*
X156325Y210121D01*
X156259Y210033D01*
X156186Y209950D01*
X156164Y209906D01*
X156134Y209866D01*
X156063Y209722D01*
X155724Y208904D01*
X154295Y207475D01*
X152428Y206702D01*
X150406Y206702D01*
G37*
%LPD*%
%LPC*%
G36*
X61219Y98813D02*
X61219Y98813D01*
X59352Y99587D01*
X57923Y101016D01*
X57149Y102883D01*
X57149Y104905D01*
X57923Y106772D01*
X58909Y107759D01*
X58940Y107798D01*
X58977Y107831D01*
X59037Y107923D01*
X59104Y108010D01*
X59124Y108055D01*
X59151Y108097D01*
X59187Y108201D01*
X59231Y108302D01*
X59238Y108351D01*
X59254Y108398D01*
X59263Y108507D01*
X59280Y108616D01*
X59276Y108665D01*
X59280Y108715D01*
X59261Y108823D01*
X59251Y108932D01*
X59234Y108979D01*
X59225Y109028D01*
X59180Y109128D01*
X59143Y109232D01*
X59115Y109273D01*
X59095Y109318D01*
X59026Y109404D01*
X58964Y109495D01*
X58927Y109528D01*
X58896Y109566D01*
X58808Y109633D01*
X58726Y109705D01*
X58682Y109728D01*
X58642Y109758D01*
X58497Y109829D01*
X58082Y110001D01*
X56653Y111430D01*
X55879Y113297D01*
X55879Y115319D01*
X56653Y117186D01*
X58082Y118615D01*
X59949Y119389D01*
X61971Y119389D01*
X63838Y118615D01*
X65267Y117186D01*
X66041Y115319D01*
X66041Y113297D01*
X65267Y111430D01*
X64281Y110443D01*
X64250Y110404D01*
X64213Y110371D01*
X64153Y110279D01*
X64086Y110192D01*
X64066Y110147D01*
X64039Y110105D01*
X64003Y110001D01*
X63959Y109900D01*
X63952Y109851D01*
X63936Y109804D01*
X63927Y109695D01*
X63910Y109586D01*
X63914Y109537D01*
X63910Y109487D01*
X63929Y109379D01*
X63939Y109270D01*
X63956Y109223D01*
X63965Y109174D01*
X64010Y109074D01*
X64047Y108970D01*
X64075Y108929D01*
X64095Y108884D01*
X64164Y108798D01*
X64226Y108707D01*
X64263Y108674D01*
X64294Y108636D01*
X64382Y108569D01*
X64464Y108497D01*
X64508Y108474D01*
X64548Y108444D01*
X64693Y108373D01*
X65108Y108201D01*
X66537Y106772D01*
X67311Y104905D01*
X67311Y102883D01*
X66537Y101016D01*
X65108Y99587D01*
X63241Y98813D01*
X61219Y98813D01*
G37*
%LPD*%
%LPC*%
G36*
X15499Y122943D02*
X15499Y122943D01*
X13632Y123717D01*
X12203Y125146D01*
X11429Y127013D01*
X11429Y129035D01*
X12203Y130902D01*
X13632Y132331D01*
X15499Y133105D01*
X17521Y133105D01*
X18854Y132552D01*
X18988Y132516D01*
X19121Y132475D01*
X19141Y132474D01*
X19161Y132468D01*
X19300Y132466D01*
X19439Y132460D01*
X19458Y132464D01*
X19479Y132463D01*
X19614Y132496D01*
X19750Y132524D01*
X19768Y132533D01*
X19788Y132538D01*
X19911Y132602D01*
X20036Y132664D01*
X20051Y132677D01*
X20069Y132686D01*
X20172Y132780D01*
X20278Y132870D01*
X20289Y132887D01*
X20304Y132900D01*
X20381Y133017D01*
X20461Y133130D01*
X20468Y133149D01*
X20479Y133166D01*
X20524Y133298D01*
X20574Y133427D01*
X20576Y133448D01*
X20582Y133467D01*
X20593Y133605D01*
X20609Y133744D01*
X20606Y133764D01*
X20608Y133784D01*
X20584Y133921D01*
X20564Y134058D01*
X20555Y134085D01*
X20553Y134097D01*
X20545Y134116D01*
X20512Y134211D01*
X19811Y135903D01*
X19811Y137925D01*
X20585Y139792D01*
X22014Y141221D01*
X23881Y141995D01*
X25903Y141995D01*
X27770Y141221D01*
X29199Y139792D01*
X29973Y137925D01*
X29973Y135903D01*
X29199Y134036D01*
X27770Y132607D01*
X25903Y131833D01*
X23881Y131833D01*
X22548Y132386D01*
X22414Y132422D01*
X22281Y132463D01*
X22261Y132464D01*
X22241Y132470D01*
X22102Y132472D01*
X21963Y132478D01*
X21944Y132474D01*
X21923Y132475D01*
X21788Y132442D01*
X21652Y132414D01*
X21634Y132405D01*
X21614Y132400D01*
X21491Y132336D01*
X21366Y132274D01*
X21351Y132261D01*
X21333Y132252D01*
X21230Y132158D01*
X21124Y132068D01*
X21113Y132051D01*
X21098Y132038D01*
X21021Y131921D01*
X20941Y131808D01*
X20934Y131789D01*
X20923Y131772D01*
X20878Y131640D01*
X20828Y131511D01*
X20826Y131490D01*
X20820Y131471D01*
X20809Y131333D01*
X20793Y131194D01*
X20796Y131174D01*
X20794Y131154D01*
X20818Y131017D01*
X20838Y130880D01*
X20847Y130853D01*
X20849Y130841D01*
X20857Y130822D01*
X20890Y130727D01*
X21591Y129035D01*
X21591Y127013D01*
X20817Y125146D01*
X19388Y123717D01*
X17521Y122943D01*
X15499Y122943D01*
G37*
%LPD*%
%LPC*%
G36*
X269203Y53737D02*
X269203Y53737D01*
X267336Y54510D01*
X265906Y55939D01*
X265133Y57807D01*
X265133Y59828D01*
X265906Y61695D01*
X267336Y63125D01*
X269222Y63906D01*
X269223Y63906D01*
X269310Y63927D01*
X269399Y63938D01*
X269464Y63964D01*
X269532Y63980D01*
X269611Y64022D01*
X269695Y64055D01*
X269751Y64096D01*
X269813Y64129D01*
X269879Y64189D01*
X269952Y64242D01*
X269997Y64296D01*
X270048Y64343D01*
X270098Y64418D01*
X270155Y64487D01*
X270185Y64550D01*
X270223Y64608D01*
X270252Y64693D01*
X270290Y64775D01*
X270304Y64843D01*
X270326Y64909D01*
X270333Y64999D01*
X270350Y65087D01*
X270346Y65157D01*
X270351Y65226D01*
X270336Y65315D01*
X270330Y65404D01*
X270309Y65471D01*
X270297Y65539D01*
X270260Y65622D01*
X270232Y65707D01*
X270195Y65766D01*
X270166Y65829D01*
X270110Y65900D01*
X270062Y65976D01*
X270011Y66023D01*
X269968Y66078D01*
X269896Y66132D01*
X269831Y66193D01*
X269770Y66227D01*
X269714Y66269D01*
X269569Y66340D01*
X268428Y66813D01*
X266999Y68242D01*
X266225Y70109D01*
X266225Y72131D01*
X266999Y73998D01*
X268428Y75427D01*
X270295Y76201D01*
X272317Y76201D01*
X274184Y75427D01*
X275613Y73998D01*
X276387Y72131D01*
X276387Y70109D01*
X275613Y68242D01*
X274184Y66813D01*
X272298Y66032D01*
X272297Y66032D01*
X272210Y66011D01*
X272121Y65999D01*
X272056Y65974D01*
X271988Y65957D01*
X271909Y65915D01*
X271825Y65882D01*
X271769Y65841D01*
X271707Y65809D01*
X271640Y65748D01*
X271568Y65696D01*
X271523Y65642D01*
X271472Y65595D01*
X271422Y65520D01*
X271365Y65451D01*
X271335Y65387D01*
X271297Y65329D01*
X271268Y65244D01*
X271229Y65163D01*
X271216Y65094D01*
X271194Y65028D01*
X271186Y64939D01*
X271170Y64851D01*
X271174Y64781D01*
X271168Y64711D01*
X271184Y64623D01*
X271189Y64533D01*
X271211Y64467D01*
X271223Y64398D01*
X271260Y64316D01*
X271287Y64231D01*
X271325Y64172D01*
X271353Y64108D01*
X271409Y64038D01*
X271457Y63962D01*
X271508Y63914D01*
X271552Y63860D01*
X271624Y63805D01*
X271689Y63744D01*
X271750Y63710D01*
X271806Y63668D01*
X271951Y63597D01*
X273092Y63125D01*
X274521Y61695D01*
X275294Y59828D01*
X275294Y57807D01*
X274521Y55939D01*
X273092Y54510D01*
X271224Y53737D01*
X269203Y53737D01*
G37*
%LPD*%
%LPC*%
G36*
X134974Y188135D02*
X134974Y188135D01*
X133107Y188909D01*
X131678Y190338D01*
X130904Y192206D01*
X130904Y194227D01*
X131678Y196094D01*
X133107Y197523D01*
X134974Y198297D01*
X136995Y198297D01*
X138644Y197614D01*
X138759Y197583D01*
X138872Y197544D01*
X138912Y197541D01*
X138951Y197530D01*
X139070Y197528D01*
X139189Y197519D01*
X139229Y197526D01*
X139269Y197525D01*
X139385Y197553D01*
X139502Y197573D01*
X139539Y197590D01*
X139578Y197599D01*
X139684Y197655D01*
X139792Y197704D01*
X139824Y197729D01*
X139860Y197748D01*
X139948Y197828D01*
X140041Y197902D01*
X140065Y197935D01*
X140095Y197962D01*
X140160Y198061D01*
X140232Y198156D01*
X140258Y198210D01*
X140270Y198227D01*
X140276Y198247D01*
X140303Y198301D01*
X141012Y200013D01*
X142441Y201442D01*
X144309Y202216D01*
X146330Y202216D01*
X148197Y201442D01*
X149627Y200013D01*
X150400Y198146D01*
X150400Y196125D01*
X149627Y194257D01*
X148197Y192828D01*
X146330Y192054D01*
X144309Y192054D01*
X142660Y192738D01*
X142545Y192769D01*
X142432Y192808D01*
X142392Y192811D01*
X142353Y192821D01*
X142234Y192823D01*
X142115Y192833D01*
X142075Y192826D01*
X142035Y192827D01*
X141919Y192799D01*
X141802Y192778D01*
X141765Y192762D01*
X141726Y192752D01*
X141620Y192697D01*
X141512Y192648D01*
X141480Y192623D01*
X141445Y192604D01*
X141357Y192524D01*
X141263Y192449D01*
X141239Y192417D01*
X141209Y192390D01*
X141144Y192290D01*
X141072Y192195D01*
X141046Y192141D01*
X141034Y192124D01*
X141028Y192105D01*
X141001Y192051D01*
X140292Y190338D01*
X138863Y188909D01*
X136995Y188135D01*
X134974Y188135D01*
G37*
%LPD*%
%LPC*%
G36*
X235669Y13399D02*
X235669Y13399D01*
X233802Y14173D01*
X232373Y15602D01*
X231549Y17591D01*
X231480Y17712D01*
X231415Y17835D01*
X231401Y17850D01*
X231391Y17867D01*
X231294Y17967D01*
X231201Y18070D01*
X231184Y18081D01*
X231170Y18096D01*
X231051Y18169D01*
X230935Y18245D01*
X230916Y18252D01*
X230899Y18262D01*
X230766Y18303D01*
X230634Y18348D01*
X230614Y18350D01*
X230595Y18356D01*
X230457Y18362D01*
X230317Y18373D01*
X230297Y18370D01*
X230277Y18371D01*
X230141Y18343D01*
X230004Y18319D01*
X229986Y18311D01*
X229966Y18307D01*
X229840Y18245D01*
X229714Y18188D01*
X229698Y18176D01*
X229680Y18167D01*
X229574Y18077D01*
X229466Y17990D01*
X229453Y17974D01*
X229438Y17961D01*
X229358Y17847D01*
X229274Y17736D01*
X229262Y17711D01*
X229255Y17701D01*
X229248Y17681D01*
X229204Y17591D01*
X228487Y15862D01*
X227058Y14433D01*
X225191Y13659D01*
X223169Y13659D01*
X221302Y14433D01*
X219873Y15862D01*
X219099Y17729D01*
X219099Y19751D01*
X219873Y21618D01*
X221302Y23047D01*
X223169Y23821D01*
X225191Y23821D01*
X227058Y23047D01*
X228487Y21618D01*
X229311Y19629D01*
X229380Y19508D01*
X229445Y19385D01*
X229459Y19370D01*
X229469Y19353D01*
X229566Y19253D01*
X229659Y19150D01*
X229676Y19139D01*
X229690Y19124D01*
X229809Y19051D01*
X229925Y18975D01*
X229944Y18968D01*
X229961Y18958D01*
X230094Y18917D01*
X230226Y18872D01*
X230246Y18870D01*
X230265Y18864D01*
X230403Y18858D01*
X230543Y18847D01*
X230563Y18850D01*
X230583Y18849D01*
X230719Y18877D01*
X230856Y18901D01*
X230874Y18909D01*
X230894Y18913D01*
X231020Y18975D01*
X231146Y19032D01*
X231162Y19044D01*
X231180Y19053D01*
X231286Y19143D01*
X231394Y19230D01*
X231407Y19246D01*
X231422Y19259D01*
X231502Y19373D01*
X231586Y19484D01*
X231598Y19509D01*
X231605Y19519D01*
X231612Y19539D01*
X231656Y19629D01*
X232373Y21358D01*
X233802Y22787D01*
X235669Y23561D01*
X237691Y23561D01*
X239558Y22787D01*
X240987Y21358D01*
X241761Y19491D01*
X241761Y17469D01*
X240987Y15602D01*
X239558Y14173D01*
X237691Y13399D01*
X235669Y13399D01*
G37*
%LPD*%
%LPC*%
G36*
X244289Y100239D02*
X244289Y100239D01*
X242422Y101013D01*
X240993Y102442D01*
X240219Y104309D01*
X240219Y106331D01*
X240993Y108198D01*
X242024Y109229D01*
X242097Y109323D01*
X242176Y109413D01*
X242194Y109449D01*
X242219Y109481D01*
X242266Y109590D01*
X242320Y109696D01*
X242329Y109735D01*
X242345Y109772D01*
X242364Y109890D01*
X242390Y110006D01*
X242389Y110047D01*
X242395Y110087D01*
X242384Y110205D01*
X242380Y110324D01*
X242369Y110363D01*
X242365Y110403D01*
X242325Y110515D01*
X242292Y110630D01*
X242272Y110664D01*
X242258Y110702D01*
X242191Y110801D01*
X242130Y110903D01*
X242091Y110949D01*
X242079Y110966D01*
X242064Y110979D01*
X242024Y111024D01*
X240926Y112122D01*
X240153Y113989D01*
X240153Y116011D01*
X240926Y117878D01*
X242356Y119307D01*
X244223Y120081D01*
X246244Y120081D01*
X248111Y119307D01*
X249541Y117878D01*
X250314Y116011D01*
X250314Y113989D01*
X249541Y112122D01*
X248509Y111091D01*
X248437Y110997D01*
X248358Y110908D01*
X248339Y110871D01*
X248314Y110840D01*
X248267Y110730D01*
X248213Y110624D01*
X248204Y110585D01*
X248188Y110548D01*
X248169Y110430D01*
X248143Y110314D01*
X248145Y110274D01*
X248138Y110234D01*
X248149Y110115D01*
X248153Y109996D01*
X248164Y109957D01*
X248168Y109917D01*
X248208Y109805D01*
X248241Y109691D01*
X248262Y109656D01*
X248276Y109618D01*
X248343Y109519D01*
X248403Y109417D01*
X248443Y109372D01*
X248454Y109355D01*
X248470Y109341D01*
X248509Y109296D01*
X249607Y108198D01*
X250381Y106331D01*
X250381Y104309D01*
X249607Y102442D01*
X248178Y101013D01*
X246311Y100239D01*
X244289Y100239D01*
G37*
%LPD*%
%LPC*%
G36*
X177724Y129579D02*
X177724Y129579D01*
X175857Y130352D01*
X174873Y131336D01*
X174779Y131409D01*
X174690Y131488D01*
X174654Y131506D01*
X174622Y131531D01*
X174513Y131578D01*
X174407Y131632D01*
X174367Y131641D01*
X174330Y131657D01*
X174212Y131676D01*
X174096Y131702D01*
X174056Y131701D01*
X174016Y131707D01*
X173897Y131696D01*
X173779Y131692D01*
X173740Y131681D01*
X173699Y131677D01*
X173587Y131637D01*
X173473Y131604D01*
X173438Y131583D01*
X173400Y131570D01*
X173302Y131503D01*
X173199Y131442D01*
X173154Y131403D01*
X173137Y131391D01*
X173124Y131376D01*
X173078Y131336D01*
X172876Y131133D01*
X171008Y130360D01*
X168987Y130360D01*
X167120Y131133D01*
X165690Y132563D01*
X164917Y134430D01*
X164917Y136451D01*
X165690Y138319D01*
X167120Y139748D01*
X168987Y140521D01*
X171008Y140521D01*
X172876Y139748D01*
X173859Y138764D01*
X173953Y138691D01*
X174042Y138612D01*
X174079Y138594D01*
X174110Y138569D01*
X174219Y138522D01*
X174326Y138468D01*
X174365Y138459D01*
X174402Y138443D01*
X174520Y138424D01*
X174636Y138398D01*
X174676Y138399D01*
X174716Y138393D01*
X174835Y138404D01*
X174954Y138408D01*
X174993Y138419D01*
X175033Y138423D01*
X175145Y138463D01*
X175259Y138496D01*
X175294Y138517D01*
X175332Y138531D01*
X175431Y138597D01*
X175533Y138658D01*
X175578Y138698D01*
X175595Y138709D01*
X175609Y138724D01*
X175654Y138764D01*
X175857Y138967D01*
X177724Y139740D01*
X179745Y139740D01*
X181613Y138967D01*
X183042Y137538D01*
X183816Y135670D01*
X183816Y133649D01*
X183042Y131782D01*
X181613Y130352D01*
X179745Y129579D01*
X177724Y129579D01*
G37*
%LPD*%
%LPC*%
G36*
X245062Y122671D02*
X245062Y122671D01*
X243195Y123444D01*
X241765Y124874D01*
X240992Y126741D01*
X240992Y128762D01*
X241765Y130630D01*
X243195Y132059D01*
X245062Y132832D01*
X246967Y132832D01*
X246996Y132836D01*
X247026Y132834D01*
X247154Y132856D01*
X247283Y132872D01*
X247310Y132883D01*
X247339Y132888D01*
X247458Y132941D01*
X247578Y132989D01*
X247602Y133007D01*
X247629Y133019D01*
X247731Y133100D01*
X247836Y133176D01*
X247855Y133199D01*
X247878Y133217D01*
X247956Y133321D01*
X248039Y133421D01*
X248051Y133448D01*
X248069Y133471D01*
X248140Y133616D01*
X248944Y135557D01*
X250373Y136987D01*
X252241Y137760D01*
X254262Y137760D01*
X256129Y136987D01*
X257559Y135557D01*
X258332Y133690D01*
X258332Y131669D01*
X257559Y129801D01*
X256129Y128372D01*
X254262Y127599D01*
X252357Y127599D01*
X252327Y127595D01*
X252298Y127597D01*
X252170Y127575D01*
X252041Y127559D01*
X252014Y127548D01*
X251985Y127543D01*
X251866Y127489D01*
X251745Y127442D01*
X251722Y127424D01*
X251695Y127412D01*
X251593Y127331D01*
X251488Y127255D01*
X251469Y127232D01*
X251446Y127214D01*
X251368Y127110D01*
X251285Y127010D01*
X251273Y126983D01*
X251255Y126960D01*
X251184Y126815D01*
X250380Y124874D01*
X248951Y123444D01*
X247083Y122671D01*
X245062Y122671D01*
G37*
%LPD*%
%LPC*%
G36*
X59516Y70808D02*
X59516Y70808D01*
X57649Y71582D01*
X57010Y72220D01*
X56916Y72293D01*
X56827Y72372D01*
X56791Y72390D01*
X56759Y72415D01*
X56650Y72462D01*
X56544Y72517D01*
X56504Y72525D01*
X56467Y72542D01*
X56349Y72560D01*
X56233Y72586D01*
X56193Y72585D01*
X56153Y72591D01*
X56034Y72580D01*
X55915Y72577D01*
X55877Y72565D01*
X55836Y72562D01*
X55724Y72521D01*
X55610Y72488D01*
X55575Y72468D01*
X55537Y72454D01*
X55439Y72387D01*
X55336Y72327D01*
X55291Y72287D01*
X55274Y72275D01*
X55260Y72260D01*
X55215Y72220D01*
X54648Y71654D01*
X52781Y70880D01*
X50760Y70880D01*
X48892Y71654D01*
X47463Y73083D01*
X46690Y74950D01*
X46690Y76972D01*
X47463Y78839D01*
X48892Y80268D01*
X50760Y81042D01*
X52781Y81042D01*
X54648Y80268D01*
X55287Y79630D01*
X55381Y79556D01*
X55470Y79478D01*
X55506Y79459D01*
X55538Y79435D01*
X55648Y79387D01*
X55754Y79333D01*
X55793Y79324D01*
X55830Y79308D01*
X55948Y79290D01*
X56064Y79264D01*
X56104Y79265D01*
X56144Y79258D01*
X56263Y79270D01*
X56382Y79273D01*
X56421Y79284D01*
X56461Y79288D01*
X56573Y79328D01*
X56687Y79362D01*
X56722Y79382D01*
X56760Y79396D01*
X56859Y79463D01*
X56961Y79523D01*
X57006Y79563D01*
X57023Y79574D01*
X57037Y79590D01*
X57082Y79630D01*
X57649Y80196D01*
X59516Y80970D01*
X61537Y80970D01*
X63405Y80196D01*
X64834Y78767D01*
X65607Y76900D01*
X65607Y74878D01*
X64834Y73011D01*
X63405Y71582D01*
X61537Y70808D01*
X59516Y70808D01*
G37*
%LPD*%
%LPC*%
G36*
X16628Y194452D02*
X16628Y194452D01*
X14760Y195225D01*
X13331Y196654D01*
X12558Y198522D01*
X12558Y200543D01*
X13331Y202410D01*
X14760Y203840D01*
X16628Y204613D01*
X18649Y204613D01*
X20516Y203840D01*
X21946Y202410D01*
X22719Y200543D01*
X22719Y198522D01*
X21946Y196654D01*
X20516Y195225D01*
X18649Y194452D01*
X16628Y194452D01*
G37*
%LPD*%
%LPC*%
G36*
X222601Y179250D02*
X222601Y179250D01*
X220734Y180023D01*
X219305Y181452D01*
X218531Y183320D01*
X218531Y185341D01*
X219305Y187208D01*
X220734Y188638D01*
X222601Y189411D01*
X224623Y189411D01*
X226490Y188638D01*
X227919Y187208D01*
X228693Y185341D01*
X228693Y183320D01*
X227919Y181452D01*
X226490Y180023D01*
X224623Y179250D01*
X222601Y179250D01*
G37*
%LPD*%
%LPC*%
G36*
X102073Y171240D02*
X102073Y171240D01*
X100205Y172014D01*
X98776Y173443D01*
X98003Y175310D01*
X98003Y177331D01*
X98776Y179199D01*
X100205Y180628D01*
X102073Y181402D01*
X104094Y181402D01*
X105961Y180628D01*
X107391Y179199D01*
X108164Y177331D01*
X108164Y175310D01*
X107391Y173443D01*
X105961Y172014D01*
X104094Y171240D01*
X102073Y171240D01*
G37*
%LPD*%
%LPC*%
G36*
X222611Y166217D02*
X222611Y166217D01*
X220744Y166991D01*
X219315Y168420D01*
X218541Y170287D01*
X218541Y172309D01*
X219315Y174176D01*
X220744Y175605D01*
X222611Y176379D01*
X224633Y176379D01*
X226500Y175605D01*
X227929Y174176D01*
X228703Y172309D01*
X228703Y170287D01*
X227929Y168420D01*
X226500Y166991D01*
X224633Y166217D01*
X222611Y166217D01*
G37*
%LPD*%
%LPC*%
G36*
X19563Y160027D02*
X19563Y160027D01*
X17696Y160801D01*
X16267Y162230D01*
X15493Y164097D01*
X15493Y166119D01*
X16267Y167986D01*
X17696Y169415D01*
X19563Y170189D01*
X21585Y170189D01*
X23452Y169415D01*
X24881Y167986D01*
X25655Y166119D01*
X25655Y164097D01*
X24881Y162230D01*
X23452Y160801D01*
X21585Y160027D01*
X19563Y160027D01*
G37*
%LPD*%
%LPC*%
G36*
X237854Y148276D02*
X237854Y148276D01*
X235987Y149049D01*
X234558Y150479D01*
X233784Y152346D01*
X233784Y154367D01*
X234558Y156235D01*
X235987Y157664D01*
X237854Y158437D01*
X239876Y158437D01*
X241743Y157664D01*
X243172Y156235D01*
X243946Y154367D01*
X243946Y152346D01*
X243172Y150479D01*
X241743Y149049D01*
X239876Y148276D01*
X237854Y148276D01*
G37*
%LPD*%
%LPC*%
G36*
X291438Y146564D02*
X291438Y146564D01*
X289571Y147338D01*
X288142Y148767D01*
X287368Y150634D01*
X287368Y152656D01*
X288142Y154523D01*
X289571Y155952D01*
X291438Y156726D01*
X293460Y156726D01*
X295327Y155952D01*
X296756Y154523D01*
X297530Y152656D01*
X297530Y150634D01*
X296756Y148767D01*
X295327Y147338D01*
X293460Y146564D01*
X291438Y146564D01*
G37*
%LPD*%
%LPC*%
G36*
X81533Y142110D02*
X81533Y142110D01*
X79666Y142884D01*
X78237Y144313D01*
X77463Y146180D01*
X77463Y148201D01*
X78237Y150069D01*
X79666Y151498D01*
X81533Y152272D01*
X83555Y152272D01*
X85422Y151498D01*
X86851Y150069D01*
X87625Y148201D01*
X87625Y146180D01*
X86851Y144313D01*
X85422Y142884D01*
X83555Y142110D01*
X81533Y142110D01*
G37*
%LPD*%
%LPC*%
G36*
X153642Y139669D02*
X153642Y139669D01*
X151775Y140443D01*
X150345Y141872D01*
X149572Y143739D01*
X149572Y145761D01*
X150345Y147628D01*
X151775Y149057D01*
X153642Y149831D01*
X155663Y149831D01*
X157531Y149057D01*
X158960Y147628D01*
X159733Y145761D01*
X159733Y143739D01*
X158960Y141872D01*
X157531Y140443D01*
X155663Y139669D01*
X153642Y139669D01*
G37*
%LPD*%
%LPC*%
G36*
X40137Y131960D02*
X40137Y131960D01*
X38270Y132734D01*
X36841Y134163D01*
X36067Y136030D01*
X36067Y138052D01*
X36841Y139919D01*
X38270Y141348D01*
X40137Y142122D01*
X42159Y142122D01*
X44026Y141348D01*
X45455Y139919D01*
X46229Y138052D01*
X46229Y136030D01*
X45455Y134163D01*
X44026Y132734D01*
X42159Y131960D01*
X40137Y131960D01*
G37*
%LPD*%
%LPC*%
G36*
X217633Y126224D02*
X217633Y126224D01*
X215766Y126998D01*
X214337Y128427D01*
X213563Y130295D01*
X213563Y132316D01*
X214337Y134183D01*
X215766Y135612D01*
X217633Y136386D01*
X219655Y136386D01*
X221522Y135612D01*
X222951Y134183D01*
X223725Y132316D01*
X223725Y130295D01*
X222951Y128427D01*
X221522Y126998D01*
X219655Y126224D01*
X217633Y126224D01*
G37*
%LPD*%
%LPC*%
G36*
X56901Y124467D02*
X56901Y124467D01*
X55034Y125241D01*
X53605Y126670D01*
X52831Y128537D01*
X52831Y130559D01*
X53605Y132426D01*
X55034Y133855D01*
X56901Y134629D01*
X58923Y134629D01*
X60790Y133855D01*
X62219Y132426D01*
X62993Y130559D01*
X62993Y128537D01*
X62219Y126670D01*
X60790Y125241D01*
X58923Y124467D01*
X56901Y124467D01*
G37*
%LPD*%
%LPC*%
G36*
X269913Y118157D02*
X269913Y118157D01*
X268046Y118930D01*
X266617Y120360D01*
X265843Y122227D01*
X265843Y124248D01*
X266617Y126116D01*
X268046Y127545D01*
X269913Y128318D01*
X271935Y128318D01*
X273802Y127545D01*
X275231Y126116D01*
X276005Y124248D01*
X276005Y122227D01*
X275231Y120360D01*
X273802Y118930D01*
X271935Y118157D01*
X269913Y118157D01*
G37*
%LPD*%
%LPC*%
G36*
X216011Y110681D02*
X216011Y110681D01*
X214143Y111454D01*
X212714Y112883D01*
X211941Y114751D01*
X211941Y116772D01*
X212714Y118639D01*
X214143Y120069D01*
X216011Y120842D01*
X218032Y120842D01*
X219899Y120069D01*
X221329Y118639D01*
X222102Y116772D01*
X222102Y114751D01*
X221329Y112883D01*
X219899Y111454D01*
X218032Y110681D01*
X216011Y110681D01*
G37*
%LPD*%
%LPC*%
G36*
X194559Y262858D02*
X194559Y262858D01*
X192692Y263631D01*
X191263Y265060D01*
X190489Y266928D01*
X190489Y268949D01*
X191263Y270816D01*
X192692Y272246D01*
X194559Y273019D01*
X196580Y273019D01*
X198448Y272246D01*
X199877Y270816D01*
X200651Y268949D01*
X200651Y266928D01*
X199877Y265060D01*
X198448Y263631D01*
X196580Y262858D01*
X194559Y262858D01*
G37*
%LPD*%
%LPC*%
G36*
X163385Y237591D02*
X163385Y237591D01*
X161518Y238364D01*
X160089Y239793D01*
X159315Y241661D01*
X159315Y243682D01*
X160089Y245549D01*
X161518Y246979D01*
X163385Y247752D01*
X165407Y247752D01*
X167274Y246979D01*
X168703Y245549D01*
X169477Y243682D01*
X169477Y241661D01*
X168703Y239793D01*
X167274Y238364D01*
X165407Y237591D01*
X163385Y237591D01*
G37*
%LPD*%
%LPC*%
G36*
X259569Y100039D02*
X259569Y100039D01*
X257702Y100813D01*
X256273Y102242D01*
X255499Y104109D01*
X255499Y106131D01*
X256273Y107998D01*
X257702Y109427D01*
X259569Y110201D01*
X261591Y110201D01*
X263458Y109427D01*
X264887Y107998D01*
X265661Y106131D01*
X265661Y104109D01*
X264887Y102242D01*
X263458Y100813D01*
X261591Y100039D01*
X259569Y100039D01*
G37*
%LPD*%
%LPC*%
G36*
X82910Y88532D02*
X82910Y88532D01*
X81042Y89306D01*
X79613Y90735D01*
X78840Y92602D01*
X78840Y94624D01*
X79613Y96491D01*
X81042Y97920D01*
X82910Y98694D01*
X84931Y98694D01*
X86798Y97920D01*
X88228Y96491D01*
X89001Y94624D01*
X89001Y92602D01*
X88228Y90735D01*
X86798Y89306D01*
X84931Y88532D01*
X82910Y88532D01*
G37*
%LPD*%
%LPC*%
G36*
X123267Y85371D02*
X123267Y85371D01*
X121400Y86144D01*
X119970Y87574D01*
X119197Y89441D01*
X119197Y91462D01*
X119970Y93330D01*
X121400Y94759D01*
X123267Y95532D01*
X125288Y95532D01*
X127156Y94759D01*
X128585Y93330D01*
X129358Y91462D01*
X129358Y89441D01*
X128585Y87574D01*
X127156Y86144D01*
X125288Y85371D01*
X123267Y85371D01*
G37*
%LPD*%
%LPC*%
G36*
X215607Y85262D02*
X215607Y85262D01*
X213740Y86036D01*
X212311Y87465D01*
X211537Y89332D01*
X211537Y91354D01*
X212311Y93221D01*
X213740Y94650D01*
X215607Y95424D01*
X217629Y95424D01*
X219496Y94650D01*
X220925Y93221D01*
X221699Y91354D01*
X221699Y89332D01*
X220925Y87465D01*
X219496Y86036D01*
X217629Y85262D01*
X215607Y85262D01*
G37*
%LPD*%
%LPC*%
G36*
X184342Y77517D02*
X184342Y77517D01*
X182475Y78291D01*
X181046Y79720D01*
X180272Y81587D01*
X180272Y83609D01*
X181046Y85476D01*
X182475Y86905D01*
X184342Y87679D01*
X186364Y87679D01*
X188231Y86905D01*
X189660Y85476D01*
X190434Y83609D01*
X190434Y81587D01*
X189660Y79720D01*
X188231Y78291D01*
X186364Y77517D01*
X184342Y77517D01*
G37*
%LPD*%
%LPC*%
G36*
X190774Y232915D02*
X190774Y232915D01*
X188907Y233689D01*
X187477Y235118D01*
X186704Y236985D01*
X186704Y239006D01*
X187477Y240874D01*
X188907Y242303D01*
X190774Y243077D01*
X192795Y243077D01*
X194662Y242303D01*
X196092Y240874D01*
X196865Y239006D01*
X196865Y236985D01*
X196092Y235118D01*
X194662Y233689D01*
X192795Y232915D01*
X190774Y232915D01*
G37*
%LPD*%
%LPC*%
G36*
X103511Y226868D02*
X103511Y226868D01*
X101644Y227641D01*
X100214Y229070D01*
X99441Y230938D01*
X99441Y232959D01*
X100214Y234826D01*
X101644Y236256D01*
X103511Y237029D01*
X105532Y237029D01*
X107400Y236256D01*
X108829Y234826D01*
X109602Y232959D01*
X109602Y230938D01*
X108829Y229070D01*
X107400Y227641D01*
X105532Y226868D01*
X103511Y226868D01*
G37*
%LPD*%
%LPC*%
G36*
X77616Y223368D02*
X77616Y223368D01*
X75748Y224141D01*
X74319Y225570D01*
X73546Y227438D01*
X73546Y229459D01*
X74319Y231326D01*
X75748Y232756D01*
X77616Y233529D01*
X79637Y233529D01*
X81504Y232756D01*
X82934Y231326D01*
X83707Y229459D01*
X83707Y227438D01*
X82934Y225570D01*
X81504Y224141D01*
X79637Y223368D01*
X77616Y223368D01*
G37*
%LPD*%
%LPC*%
G36*
X133370Y58024D02*
X133370Y58024D01*
X131502Y58798D01*
X130073Y60227D01*
X129300Y62094D01*
X129300Y64116D01*
X130073Y65983D01*
X131502Y67412D01*
X133370Y68186D01*
X135391Y68186D01*
X137258Y67412D01*
X138688Y65983D01*
X139461Y64116D01*
X139461Y62094D01*
X138688Y60227D01*
X137258Y58798D01*
X135391Y58024D01*
X133370Y58024D01*
G37*
%LPD*%
%LPC*%
G36*
X271638Y221425D02*
X271638Y221425D01*
X269771Y222199D01*
X268342Y223628D01*
X267568Y225495D01*
X267568Y227516D01*
X268342Y229384D01*
X269771Y230813D01*
X271638Y231587D01*
X273660Y231587D01*
X275527Y230813D01*
X276956Y229384D01*
X277730Y227516D01*
X277730Y225495D01*
X276956Y223628D01*
X275527Y222199D01*
X273660Y221425D01*
X271638Y221425D01*
G37*
%LPD*%
%LPC*%
G36*
X198857Y218484D02*
X198857Y218484D01*
X196990Y219257D01*
X195561Y220687D01*
X194787Y222554D01*
X194787Y224575D01*
X195561Y226443D01*
X196990Y227872D01*
X198857Y228645D01*
X200879Y228645D01*
X202746Y227872D01*
X204175Y226443D01*
X204949Y224575D01*
X204949Y222554D01*
X204175Y220687D01*
X202746Y219257D01*
X200879Y218484D01*
X198857Y218484D01*
G37*
%LPD*%
%LPC*%
G36*
X179275Y217387D02*
X179275Y217387D01*
X177408Y218160D01*
X175979Y219590D01*
X175205Y221457D01*
X175205Y223478D01*
X175979Y225346D01*
X177408Y226775D01*
X179275Y227548D01*
X181297Y227548D01*
X183164Y226775D01*
X184593Y225346D01*
X185367Y223478D01*
X185367Y221457D01*
X184593Y219590D01*
X183164Y218160D01*
X181297Y217387D01*
X179275Y217387D01*
G37*
%LPD*%
%LPC*%
G36*
X72395Y44957D02*
X72395Y44957D01*
X70528Y45731D01*
X69099Y47160D01*
X68325Y49027D01*
X68325Y51049D01*
X69099Y52916D01*
X70528Y54345D01*
X72395Y55119D01*
X74417Y55119D01*
X76284Y54345D01*
X77713Y52916D01*
X78487Y51049D01*
X78487Y49027D01*
X77713Y47160D01*
X76284Y45731D01*
X74417Y44957D01*
X72395Y44957D01*
G37*
%LPD*%
%LPC*%
G36*
X47503Y44957D02*
X47503Y44957D01*
X45636Y45731D01*
X44207Y47160D01*
X43433Y49027D01*
X43433Y51049D01*
X44207Y52916D01*
X45636Y54345D01*
X47503Y55119D01*
X49525Y55119D01*
X51392Y54345D01*
X52821Y52916D01*
X53595Y51049D01*
X53595Y49027D01*
X52821Y47160D01*
X51392Y45731D01*
X49525Y44957D01*
X47503Y44957D01*
G37*
%LPD*%
%LPC*%
G36*
X141485Y33829D02*
X141485Y33829D01*
X139618Y34603D01*
X138189Y36032D01*
X137415Y37899D01*
X137415Y39921D01*
X138189Y41788D01*
X139618Y43217D01*
X141485Y43991D01*
X143507Y43991D01*
X145374Y43217D01*
X146803Y41788D01*
X147577Y39921D01*
X147577Y37899D01*
X146803Y36032D01*
X145374Y34603D01*
X143507Y33829D01*
X141485Y33829D01*
G37*
%LPD*%
%LPC*%
G36*
X165917Y27479D02*
X165917Y27479D01*
X164050Y28253D01*
X162621Y29682D01*
X161847Y31549D01*
X161847Y33571D01*
X162621Y35438D01*
X164050Y36867D01*
X165917Y37641D01*
X167939Y37641D01*
X169806Y36867D01*
X171235Y35438D01*
X172009Y33571D01*
X172009Y31549D01*
X171235Y29682D01*
X169806Y28253D01*
X167939Y27479D01*
X165917Y27479D01*
G37*
%LPD*%
%LPC*%
G36*
X148790Y22509D02*
X148790Y22509D01*
X146923Y23282D01*
X145493Y24712D01*
X144720Y26579D01*
X144720Y28600D01*
X145493Y30467D01*
X146923Y31897D01*
X148790Y32670D01*
X150811Y32670D01*
X152678Y31897D01*
X154108Y30467D01*
X154881Y28600D01*
X154881Y26579D01*
X154108Y24712D01*
X152678Y23282D01*
X150811Y22509D01*
X148790Y22509D01*
G37*
%LPD*%
%LPC*%
G36*
X189154Y208618D02*
X189154Y208618D01*
X187286Y209391D01*
X185857Y210820D01*
X185084Y212688D01*
X185084Y214709D01*
X185857Y216576D01*
X187286Y218006D01*
X189154Y218779D01*
X191175Y218779D01*
X193042Y218006D01*
X194472Y216576D01*
X195245Y214709D01*
X195245Y212688D01*
X194472Y210820D01*
X193042Y209391D01*
X191175Y208618D01*
X189154Y208618D01*
G37*
%LPD*%
%LPC*%
G36*
X248569Y13539D02*
X248569Y13539D01*
X246702Y14313D01*
X245273Y15742D01*
X244499Y17609D01*
X244499Y19631D01*
X245273Y21498D01*
X246702Y22927D01*
X248569Y23701D01*
X250591Y23701D01*
X252458Y22927D01*
X253887Y21498D01*
X254661Y19631D01*
X254661Y17609D01*
X253887Y15742D01*
X252458Y14313D01*
X250591Y13539D01*
X248569Y13539D01*
G37*
%LPD*%
%LPC*%
G36*
X19384Y25488D02*
X19384Y25488D01*
X19384Y38249D01*
X20251Y38076D01*
X21806Y37433D01*
X23204Y36498D01*
X24394Y35308D01*
X25329Y33910D01*
X25972Y32355D01*
X26301Y30705D01*
X26301Y25488D01*
X19384Y25488D01*
G37*
%LPD*%
%LPC*%
G36*
X105784Y25488D02*
X105784Y25488D01*
X105784Y38249D01*
X106651Y38076D01*
X108206Y37433D01*
X109604Y36498D01*
X110794Y35308D01*
X111729Y33910D01*
X112372Y32355D01*
X112701Y30705D01*
X112701Y25488D01*
X105784Y25488D01*
G37*
%LPD*%
%LPC*%
G36*
X105784Y22240D02*
X105784Y22240D01*
X112701Y22240D01*
X112701Y17023D01*
X112372Y15373D01*
X111729Y13818D01*
X110794Y12420D01*
X109604Y11230D01*
X108206Y10295D01*
X106651Y9652D01*
X105784Y9479D01*
X105784Y22240D01*
G37*
%LPD*%
%LPC*%
G36*
X19384Y22240D02*
X19384Y22240D01*
X26301Y22240D01*
X26301Y17023D01*
X25972Y15373D01*
X25329Y13818D01*
X24394Y12420D01*
X23204Y11230D01*
X21806Y10295D01*
X20251Y9652D01*
X19384Y9479D01*
X19384Y22240D01*
G37*
%LPD*%
%LPC*%
G36*
X95619Y25488D02*
X95619Y25488D01*
X95619Y30705D01*
X95948Y32355D01*
X96591Y33910D01*
X97526Y35308D01*
X98716Y36498D01*
X100114Y37433D01*
X101669Y38076D01*
X102536Y38249D01*
X102536Y25488D01*
X95619Y25488D01*
G37*
%LPD*%
%LPC*%
G36*
X101669Y9652D02*
X101669Y9652D01*
X100114Y10295D01*
X98716Y11230D01*
X97526Y12420D01*
X96591Y13818D01*
X95948Y15373D01*
X95619Y17023D01*
X95619Y22240D01*
X102536Y22240D01*
X102536Y9479D01*
X101669Y9652D01*
G37*
%LPD*%
%LPC*%
G36*
X15269Y9652D02*
X15269Y9652D01*
X13714Y10295D01*
X12316Y11230D01*
X11126Y12420D01*
X10191Y13818D01*
X9548Y15373D01*
X9219Y17023D01*
X9219Y22240D01*
X16136Y22240D01*
X16136Y9479D01*
X15269Y9652D01*
G37*
%LPD*%
%LPC*%
G36*
X105784Y63738D02*
X105784Y63738D01*
X105784Y76075D01*
X106590Y75915D01*
X108106Y75287D01*
X109471Y74375D01*
X110631Y73215D01*
X111543Y71850D01*
X112171Y70334D01*
X112491Y68724D01*
X112491Y63738D01*
X105784Y63738D01*
G37*
%LPD*%
%LPC*%
G36*
X105784Y60490D02*
X105784Y60490D01*
X112491Y60490D01*
X112491Y55504D01*
X112171Y53894D01*
X111543Y52378D01*
X110631Y51013D01*
X109471Y49853D01*
X108106Y48941D01*
X106590Y48313D01*
X105784Y48153D01*
X105784Y60490D01*
G37*
%LPD*%
%LPC*%
G36*
X9429Y63738D02*
X9429Y63738D01*
X9429Y68724D01*
X9749Y70334D01*
X10377Y71850D01*
X11289Y73215D01*
X12449Y74375D01*
X13814Y75287D01*
X15330Y75915D01*
X16136Y76075D01*
X16136Y63738D01*
X9429Y63738D01*
G37*
%LPD*%
%LPC*%
G36*
X95829Y63738D02*
X95829Y63738D01*
X95829Y68724D01*
X96149Y70334D01*
X96777Y71850D01*
X97689Y73215D01*
X98849Y74375D01*
X100214Y75287D01*
X101730Y75915D01*
X102536Y76075D01*
X102536Y63738D01*
X95829Y63738D01*
G37*
%LPD*%
%LPC*%
G36*
X15330Y48313D02*
X15330Y48313D01*
X13814Y48941D01*
X12449Y49853D01*
X11289Y51013D01*
X10377Y52378D01*
X9749Y53894D01*
X9429Y55504D01*
X9429Y60490D01*
X16136Y60490D01*
X16136Y48153D01*
X15330Y48313D01*
G37*
%LPD*%
%LPC*%
G36*
X292980Y125579D02*
X292980Y125579D01*
X292991Y125633D01*
X293661Y127251D01*
X294634Y128708D01*
X295872Y129946D01*
X297329Y130919D01*
X298947Y131589D01*
X299001Y131600D01*
X299001Y125579D01*
X292980Y125579D01*
G37*
%LPD*%
%LPC*%
G36*
X298947Y114491D02*
X298947Y114491D01*
X297329Y115161D01*
X295872Y116134D01*
X294634Y117372D01*
X293661Y118829D01*
X292991Y120447D01*
X292980Y120501D01*
X299001Y120501D01*
X299001Y114480D01*
X298947Y114491D01*
G37*
%LPD*%
D10*
X301540Y46840D03*
X301540Y72240D03*
X301540Y97640D03*
D11*
X17760Y67904D02*
X17760Y56324D01*
X104160Y56324D02*
X104160Y67904D01*
D12*
X17760Y29864D02*
X17760Y17864D01*
X104160Y17864D02*
X104160Y29864D01*
D10*
X301540Y21440D03*
X301540Y123040D03*
D13*
X148500Y110000D03*
D14*
X224180Y18740D03*
X245300Y105320D03*
X184440Y174560D03*
X116263Y127384D03*
X305127Y197568D03*
X305080Y161144D03*
X28156Y254897D03*
X32636Y18571D03*
X61220Y12825D03*
X270555Y8679D03*
X120631Y235955D03*
X64959Y314405D03*
X163070Y62405D03*
X165147Y277612D03*
X102738Y281152D03*
X226131Y72733D03*
X32250Y204477D03*
X81034Y286275D03*
X87714Y331242D03*
X189082Y21937D03*
X44410Y81115D03*
X17321Y79976D03*
X65199Y239062D03*
X123939Y28732D03*
X258611Y160309D03*
X18989Y330369D03*
X53594Y165108D03*
X61944Y144058D03*
X191878Y255495D03*
X150176Y220434D03*
X116375Y103555D03*
X93645Y113473D03*
X49784Y137168D03*
X238787Y325078D03*
X135998Y220269D03*
X33980Y244425D03*
X122580Y261691D03*
X88441Y213388D03*
X146074Y261259D03*
X243118Y25169D03*
X115521Y12154D03*
X237185Y351547D03*
X166565Y259487D03*
X232897Y232364D03*
X112736Y46354D03*
X135464Y12577D03*
D15*
X28864Y23864D02*
X17760Y23864D01*
X28864Y23864D02*
X30000Y25000D01*
X95830Y25000D01*
D14*
X185869Y126704D03*
X200834Y252762D03*
X85350Y257782D03*
X139399Y147342D03*
X238021Y122298D03*
X8989Y291369D03*
X18957Y119618D03*
X99653Y223779D03*
X105016Y80747D03*
X93585Y89576D03*
X132330Y97028D03*
X116091Y151431D03*
X185623Y39957D03*
X203680Y46913D03*
X185879Y115443D03*
X284454Y148253D03*
X193247Y291990D03*
X33980Y234425D03*
X33980Y224425D03*
X219183Y256350D03*
X227183Y256350D03*
X287183Y256350D03*
X297183Y256350D03*
X297183Y246350D03*
X297183Y236350D03*
X297183Y226350D03*
X297183Y216350D03*
X32636Y28571D03*
X28156Y264897D03*
X28156Y274897D03*
X28156Y284897D03*
X40156Y298897D03*
X50156Y298897D03*
X60156Y298897D03*
X70156Y298897D03*
X80156Y298897D03*
X90156Y298897D03*
X100156Y298897D03*
X110156Y298897D03*
X120156Y298897D03*
X287183Y266350D03*
X287183Y276350D03*
X287183Y286350D03*
X287183Y296350D03*
X277183Y300350D03*
X267183Y300350D03*
X257183Y300350D03*
X227183Y266350D03*
X227183Y276350D03*
X227183Y286350D03*
X227183Y296350D03*
X303183Y276350D03*
X303183Y296350D03*
X280787Y325078D03*
X281377Y351241D03*
X88636Y28571D03*
X88636Y18571D03*
X61220Y30825D03*
X271268Y30318D03*
X279268Y24318D03*
X257118Y25169D03*
X90272Y125786D03*
X194975Y115443D03*
X128611Y104200D03*
X146748Y137956D03*
X236680Y18480D03*
X218644Y131305D03*
X135985Y193216D03*
X223622Y171298D03*
X25908Y108974D03*
X24892Y136914D03*
X32341Y182127D03*
X217021Y115761D03*
X270924Y123238D03*
X290138Y23638D03*
D15*
X298656Y21440D02*
X301540Y21440D01*
X298656Y21440D02*
X296459Y23638D01*
X290138Y23638D01*
D14*
X211603Y212948D03*
X78626Y228448D03*
X104522Y231948D03*
X238982Y218132D03*
X291058Y102274D03*
D15*
X296906Y102274D02*
X301540Y97640D01*
X296906Y102274D02*
X291058Y102274D01*
D14*
X62230Y103894D03*
X82544Y147191D03*
X103083Y176321D03*
X60960Y114308D03*
X260580Y105120D03*
X249580Y18620D03*
X115784Y160197D03*
X60527Y75889D03*
X83920Y93613D03*
X116152Y171156D03*
X51770Y75961D03*
X145319Y197135D03*
X20574Y165108D03*
X57912Y129548D03*
X178735Y134660D03*
X180286Y222468D03*
X151417Y211782D03*
X22352Y100846D03*
X17638Y199532D03*
X154653Y144750D03*
X272649Y226506D03*
X290004Y75278D03*
D15*
X293042Y72240D02*
X301540Y72240D01*
X293042Y72240D02*
X290004Y75278D01*
D14*
X169998Y135441D03*
X290343Y50033D03*
D15*
X295266Y50033D01*
X298459Y46840D02*
X301540Y46840D01*
X298459Y46840D02*
X295266Y50033D01*
D14*
X292449Y151645D03*
X215701Y224356D03*
X250271Y220025D03*
X216618Y90343D03*
X41148Y137041D03*
X245234Y115000D03*
X216629Y7427D03*
X14129Y97631D03*
X10911Y41431D03*
X246073Y127752D03*
X270214Y58817D03*
X253251Y132679D03*
X271306Y71120D03*
X191785Y237996D03*
X199868Y223565D03*
X190164Y213698D03*
X194000Y57500D03*
X238865Y153357D03*
X195570Y267938D03*
X194800Y46931D03*
X223612Y184330D03*
X185353Y82598D03*
X124278Y90452D03*
X149801Y27590D03*
X166928Y32560D03*
X134380Y63105D03*
X142496Y38910D03*
X19313Y178124D03*
X25671Y188041D03*
X164835Y268070D03*
X73406Y50038D03*
X35660Y78340D03*
X48514Y50038D03*
X26416Y75954D03*
X154877Y261184D03*
X161787Y213665D03*
X16510Y128024D03*
X164396Y242671D03*
M02*
