G04 EAGLE Gerber RS-274X export*
G75*
%MOMM*%
%FSLAX34Y34*%
%LPD*%
%INPCBWay Copper Layer 2*%
%IPPOS*%
%AMOC8*
5,1,8,0,0,1.08239X$1,22.5*%
G01*
%ADD10C,1.158000*%
%ADD11C,1.458000*%
%ADD12C,0.711200*%
%ADD13C,0.254000*%

G36*
X256199Y3811D02*
X256199Y3811D01*
X256200Y3811D01*
X306386Y3835D01*
X306441Y3842D01*
X306497Y3840D01*
X306656Y3864D01*
X306860Y3908D01*
X307005Y3960D01*
X307151Y4010D01*
X307157Y4014D01*
X307160Y4015D01*
X307166Y4019D01*
X307291Y4091D01*
X307798Y4428D01*
X307854Y4476D01*
X307917Y4517D01*
X307974Y4580D01*
X308039Y4636D01*
X308082Y4696D01*
X308132Y4751D01*
X308216Y4888D01*
X308503Y5426D01*
X308558Y5569D01*
X308614Y5714D01*
X308616Y5720D01*
X308617Y5723D01*
X308618Y5731D01*
X308644Y5872D01*
X308680Y6177D01*
X308680Y6185D01*
X308685Y6260D01*
X308687Y6269D01*
X308686Y6278D01*
X308689Y6328D01*
X308689Y6336D01*
X308689Y6338D01*
X308689Y6341D01*
X308681Y8309D01*
X308686Y8386D01*
X308689Y8406D01*
X308688Y8417D01*
X308689Y8441D01*
X308689Y335716D01*
X308686Y335743D01*
X308688Y335769D01*
X308671Y335929D01*
X308310Y338050D01*
X308279Y338152D01*
X308257Y338256D01*
X308224Y338334D01*
X308218Y338355D01*
X308210Y338368D01*
X308194Y338404D01*
X306214Y342370D01*
X306155Y342458D01*
X306103Y342551D01*
X306049Y342616D01*
X306037Y342634D01*
X306025Y342645D01*
X306000Y342675D01*
X304784Y343961D01*
X304775Y343968D01*
X304759Y343986D01*
X304310Y344435D01*
X304293Y344448D01*
X304244Y344496D01*
X303120Y345472D01*
X303110Y345509D01*
X303056Y345599D01*
X303011Y345694D01*
X302976Y345736D01*
X302948Y345783D01*
X302842Y345903D01*
X293812Y354933D01*
X292324Y356421D01*
X292309Y356433D01*
X292232Y356504D01*
X290300Y358090D01*
X290210Y358146D01*
X290125Y358210D01*
X290050Y358248D01*
X290031Y358259D01*
X290016Y358264D01*
X289981Y358281D01*
X285385Y360185D01*
X285282Y360213D01*
X285183Y360250D01*
X285099Y360263D01*
X285078Y360269D01*
X285062Y360269D01*
X285024Y360275D01*
X282536Y360520D01*
X282517Y360520D01*
X282412Y360527D01*
X245234Y360527D01*
X245218Y360525D01*
X245202Y360526D01*
X245042Y360512D01*
X242646Y360144D01*
X242604Y360132D01*
X242560Y360128D01*
X242405Y360083D01*
X237623Y358345D01*
X237546Y358306D01*
X237466Y358276D01*
X237349Y358205D01*
X237340Y358200D01*
X237337Y358197D01*
X237329Y358192D01*
X233159Y355276D01*
X233126Y355246D01*
X233089Y355223D01*
X232970Y355114D01*
X232397Y354516D01*
X232346Y354447D01*
X232287Y354384D01*
X232252Y354320D01*
X232208Y354261D01*
X232200Y354242D01*
X231084Y353124D01*
X231070Y353107D01*
X231010Y353043D01*
X230099Y351960D01*
X230097Y351959D01*
X230057Y351939D01*
X230015Y351927D01*
X229916Y351868D01*
X229813Y351817D01*
X229779Y351788D01*
X229741Y351765D01*
X229620Y351659D01*
X176610Y298591D01*
X176604Y298582D01*
X176586Y298566D01*
X174459Y296314D01*
X169065Y292993D01*
X162996Y291181D01*
X161849Y291148D01*
X161769Y291136D01*
X161688Y291133D01*
X161613Y291111D01*
X161535Y291099D01*
X161512Y291089D01*
X159794Y291089D01*
X159783Y291088D01*
X159758Y291089D01*
X158042Y291040D01*
X158022Y291048D01*
X157941Y291059D01*
X157862Y291079D01*
X157710Y291089D01*
X157706Y291089D01*
X157705Y291089D01*
X157702Y291089D01*
X148613Y291089D01*
X148575Y291084D01*
X148537Y291087D01*
X148418Y291065D01*
X148297Y291049D01*
X148262Y291035D01*
X148225Y291028D01*
X148114Y290977D01*
X148045Y290950D01*
X146668Y291083D01*
X146647Y291083D01*
X146545Y291089D01*
X145163Y291089D01*
X145133Y291112D01*
X145098Y291127D01*
X145067Y291148D01*
X144953Y291190D01*
X144841Y291238D01*
X144804Y291244D01*
X144768Y291257D01*
X144609Y291283D01*
X143617Y291379D01*
X138336Y293357D01*
X133748Y296635D01*
X132048Y298700D01*
X132034Y298713D01*
X132000Y298754D01*
X77385Y357865D01*
X77353Y357892D01*
X77327Y357924D01*
X77203Y358028D01*
X75922Y358966D01*
X75829Y359018D01*
X75741Y359077D01*
X75663Y359110D01*
X75644Y359121D01*
X75628Y359125D01*
X75592Y359140D01*
X72388Y360266D01*
X72285Y360288D01*
X72183Y360319D01*
X72099Y360328D01*
X72077Y360333D01*
X72062Y360332D01*
X72023Y360336D01*
X70493Y360402D01*
X70478Y360401D01*
X70438Y360404D01*
X70124Y360404D01*
X70105Y360401D01*
X70054Y360402D01*
X68500Y360316D01*
X68418Y360338D01*
X68329Y360370D01*
X68265Y360377D01*
X68202Y360393D01*
X68042Y360403D01*
X34244Y360400D01*
X34242Y360400D01*
X32139Y360400D01*
X32119Y360397D01*
X32056Y360397D01*
X30109Y360269D01*
X30066Y360261D01*
X30021Y360261D01*
X29864Y360229D01*
X26101Y359221D01*
X26022Y359188D01*
X25940Y359165D01*
X25817Y359105D01*
X25807Y359101D01*
X25804Y359098D01*
X25795Y359094D01*
X22422Y357147D01*
X22387Y357120D01*
X22347Y357100D01*
X22220Y357002D01*
X20753Y355715D01*
X20739Y355699D01*
X20692Y355658D01*
X11104Y346070D01*
X11050Y346000D01*
X10988Y345937D01*
X10953Y345876D01*
X9636Y344602D01*
X9632Y344597D01*
X9622Y344588D01*
X9582Y344548D01*
X9571Y344534D01*
X9539Y344503D01*
X8225Y343054D01*
X8199Y343018D01*
X8168Y342987D01*
X8076Y342854D01*
X6054Y339482D01*
X6019Y339404D01*
X5976Y339330D01*
X5930Y339201D01*
X5925Y339191D01*
X5925Y339187D01*
X5922Y339178D01*
X4840Y335398D01*
X4834Y335354D01*
X4819Y335312D01*
X4796Y335153D01*
X4635Y333198D01*
X4636Y333176D01*
X4630Y333094D01*
X4630Y203013D01*
X4648Y202876D01*
X4661Y202737D01*
X4668Y202718D01*
X4670Y202698D01*
X4721Y202569D01*
X4769Y202438D01*
X4780Y202421D01*
X4787Y202402D01*
X4869Y202290D01*
X4947Y202175D01*
X4962Y202161D01*
X4974Y202145D01*
X5081Y202056D01*
X5186Y201964D01*
X5204Y201955D01*
X5219Y201942D01*
X5345Y201883D01*
X5469Y201820D01*
X5489Y201815D01*
X5507Y201807D01*
X5643Y201780D01*
X5779Y201750D01*
X5799Y201751D01*
X5819Y201747D01*
X5958Y201755D01*
X6097Y201760D01*
X6116Y201765D01*
X6137Y201766D01*
X6269Y201809D01*
X6402Y201848D01*
X6420Y201858D01*
X6439Y201865D01*
X6557Y201939D01*
X6676Y202010D01*
X6697Y202028D01*
X6708Y202035D01*
X6722Y202050D01*
X6797Y202116D01*
X13358Y208677D01*
X21426Y208677D01*
X26783Y203320D01*
X26783Y196169D01*
X26801Y196032D01*
X26814Y195893D01*
X26820Y195874D01*
X26823Y195854D01*
X26874Y195725D01*
X26921Y195594D01*
X26933Y195577D01*
X26940Y195558D01*
X27022Y195446D01*
X27100Y195331D01*
X27115Y195317D01*
X27127Y195301D01*
X27234Y195212D01*
X27338Y195120D01*
X27356Y195111D01*
X27372Y195098D01*
X27497Y195039D01*
X27621Y194975D01*
X27641Y194971D01*
X27660Y194962D01*
X27796Y194936D01*
X27932Y194906D01*
X27952Y194906D01*
X27972Y194903D01*
X28110Y194911D01*
X28250Y194915D01*
X28269Y194921D01*
X28289Y194922D01*
X28421Y194965D01*
X28555Y195004D01*
X28573Y195014D01*
X28592Y195020D01*
X28709Y195095D01*
X28829Y195165D01*
X28850Y195184D01*
X28861Y195191D01*
X28875Y195205D01*
X28950Y195272D01*
X102533Y268855D01*
X104542Y270864D01*
X159919Y270864D01*
X160017Y270877D01*
X160116Y270880D01*
X160174Y270897D01*
X160235Y270904D01*
X160327Y270941D01*
X160422Y270968D01*
X160474Y270999D01*
X160530Y271021D01*
X160610Y271079D01*
X160696Y271130D01*
X160771Y271196D01*
X160788Y271208D01*
X160795Y271217D01*
X160817Y271236D01*
X161957Y272377D01*
X163825Y273150D01*
X165846Y273150D01*
X167713Y272377D01*
X169143Y270948D01*
X169916Y269080D01*
X169916Y267059D01*
X169143Y265192D01*
X167713Y263762D01*
X165846Y262989D01*
X163825Y262989D01*
X161957Y263762D01*
X161947Y263772D01*
X161892Y263815D01*
X161844Y263865D01*
X161767Y263912D01*
X161696Y263967D01*
X161632Y263995D01*
X161573Y264031D01*
X161487Y264058D01*
X161404Y264093D01*
X161335Y264104D01*
X161269Y264125D01*
X161179Y264129D01*
X161090Y264143D01*
X161021Y264137D01*
X160951Y264140D01*
X160863Y264122D01*
X160774Y264113D01*
X160708Y264090D01*
X160639Y264076D01*
X160559Y264036D01*
X160474Y264006D01*
X160416Y263967D01*
X160354Y263936D01*
X160285Y263878D01*
X160211Y263827D01*
X160165Y263775D01*
X160112Y263730D01*
X160060Y263656D01*
X160001Y263589D01*
X159969Y263527D01*
X159929Y263470D01*
X159897Y263386D01*
X159856Y263306D01*
X159841Y263237D01*
X159816Y263172D01*
X159806Y263083D01*
X159786Y262995D01*
X159789Y262926D01*
X159781Y262856D01*
X159793Y262767D01*
X159796Y262677D01*
X159815Y262610D01*
X159825Y262541D01*
X159877Y262389D01*
X159958Y262195D01*
X159958Y260623D01*
X159970Y260525D01*
X159973Y260426D01*
X159990Y260368D01*
X159997Y260308D01*
X160034Y260215D01*
X160061Y260120D01*
X160092Y260068D01*
X160114Y260012D01*
X160173Y259932D01*
X160223Y259846D01*
X160289Y259771D01*
X160301Y259754D01*
X160311Y259747D01*
X160329Y259726D01*
X173562Y246493D01*
X173562Y238118D01*
X164954Y229510D01*
X164893Y229431D01*
X164825Y229359D01*
X164796Y229306D01*
X164759Y229258D01*
X164719Y229167D01*
X164672Y229081D01*
X164657Y229022D01*
X164632Y228966D01*
X164617Y228868D01*
X164592Y228773D01*
X164586Y228673D01*
X164583Y228652D01*
X164584Y228640D01*
X164582Y228612D01*
X164582Y228560D01*
X164599Y228422D01*
X164612Y228283D01*
X164619Y228264D01*
X164622Y228244D01*
X164673Y228115D01*
X164720Y227984D01*
X164731Y227967D01*
X164739Y227949D01*
X164821Y227836D01*
X164899Y227721D01*
X164914Y227708D01*
X164926Y227691D01*
X165033Y227602D01*
X165137Y227511D01*
X165155Y227501D01*
X165171Y227488D01*
X165296Y227429D01*
X165420Y227366D01*
X165440Y227362D01*
X165458Y227353D01*
X165595Y227327D01*
X165731Y227296D01*
X165751Y227297D01*
X165771Y227293D01*
X165909Y227302D01*
X166048Y227306D01*
X166068Y227312D01*
X166088Y227313D01*
X166220Y227356D01*
X166354Y227394D01*
X166371Y227405D01*
X166391Y227411D01*
X166508Y227486D01*
X166628Y227556D01*
X166649Y227575D01*
X166659Y227581D01*
X166673Y227596D01*
X166749Y227662D01*
X168890Y229804D01*
X188161Y249074D01*
X207186Y249074D01*
X207324Y249092D01*
X207462Y249105D01*
X207481Y249112D01*
X207502Y249114D01*
X207631Y249165D01*
X207762Y249212D01*
X207778Y249224D01*
X207797Y249231D01*
X207909Y249313D01*
X208025Y249391D01*
X208038Y249406D01*
X208055Y249418D01*
X208143Y249525D01*
X208235Y249629D01*
X208244Y249647D01*
X208257Y249663D01*
X208317Y249789D01*
X208380Y249913D01*
X208384Y249932D01*
X208393Y249951D01*
X208419Y250087D01*
X208449Y250223D01*
X208449Y250243D01*
X208453Y250263D01*
X208444Y250401D01*
X208440Y250541D01*
X208434Y250560D01*
X208433Y250580D01*
X208390Y250713D01*
X208351Y250846D01*
X208341Y250864D01*
X208335Y250883D01*
X208260Y251001D01*
X208190Y251120D01*
X208171Y251141D01*
X208165Y251152D01*
X208150Y251166D01*
X208083Y251241D01*
X196839Y262486D01*
X196760Y262547D01*
X196688Y262614D01*
X196635Y262644D01*
X196587Y262681D01*
X196496Y262720D01*
X196410Y262768D01*
X196351Y262783D01*
X196295Y262807D01*
X196198Y262823D01*
X196102Y262847D01*
X196002Y262854D01*
X195981Y262857D01*
X195969Y262856D01*
X195941Y262858D01*
X194559Y262858D01*
X192692Y263631D01*
X191263Y265060D01*
X190489Y266928D01*
X190489Y268949D01*
X191263Y270816D01*
X192692Y272246D01*
X194559Y273019D01*
X196580Y273019D01*
X198448Y272246D01*
X199877Y270816D01*
X200651Y268949D01*
X200651Y267104D01*
X200663Y267006D01*
X200666Y266907D01*
X200683Y266849D01*
X200690Y266789D01*
X200727Y266697D01*
X200754Y266602D01*
X200785Y266549D01*
X200807Y266493D01*
X200866Y266413D01*
X200916Y266328D01*
X200982Y266252D01*
X200994Y266236D01*
X201004Y266228D01*
X201022Y266207D01*
X229028Y238201D01*
X229028Y226544D01*
X229045Y226406D01*
X229058Y226268D01*
X229065Y226249D01*
X229068Y226229D01*
X229119Y226100D01*
X229166Y225969D01*
X229177Y225952D01*
X229185Y225933D01*
X229266Y225821D01*
X229344Y225706D01*
X229360Y225692D01*
X229372Y225676D01*
X229479Y225587D01*
X229583Y225495D01*
X229601Y225486D01*
X229616Y225473D01*
X229742Y225414D01*
X229866Y225351D01*
X229886Y225346D01*
X229904Y225337D01*
X230041Y225311D01*
X230176Y225281D01*
X230197Y225281D01*
X230217Y225278D01*
X230355Y225286D01*
X230494Y225291D01*
X230514Y225296D01*
X230534Y225297D01*
X230666Y225340D01*
X230800Y225379D01*
X230817Y225389D01*
X230836Y225395D01*
X230954Y225470D01*
X231074Y225540D01*
X231095Y225559D01*
X231105Y225566D01*
X231119Y225581D01*
X231195Y225647D01*
X232815Y227268D01*
X234824Y229277D01*
X267709Y229277D01*
X267807Y229289D01*
X267906Y229292D01*
X267964Y229309D01*
X268024Y229317D01*
X268116Y229353D01*
X268212Y229380D01*
X268264Y229411D01*
X268320Y229434D01*
X268400Y229492D01*
X268486Y229542D01*
X268561Y229608D01*
X268577Y229620D01*
X268585Y229630D01*
X268606Y229648D01*
X269771Y230813D01*
X271638Y231587D01*
X273660Y231587D01*
X275527Y230813D01*
X276956Y229384D01*
X277730Y227516D01*
X277730Y225495D01*
X276956Y223628D01*
X275527Y222199D01*
X273660Y221425D01*
X271638Y221425D01*
X269771Y222199D01*
X268654Y223315D01*
X268576Y223376D01*
X268504Y223444D01*
X268451Y223473D01*
X268403Y223510D01*
X268312Y223550D01*
X268225Y223598D01*
X268167Y223613D01*
X268111Y223637D01*
X268013Y223652D01*
X267917Y223677D01*
X267817Y223683D01*
X267797Y223687D01*
X267785Y223685D01*
X267757Y223687D01*
X256153Y223687D01*
X256103Y223681D01*
X256054Y223683D01*
X255946Y223661D01*
X255837Y223647D01*
X255791Y223629D01*
X255742Y223619D01*
X255644Y223571D01*
X255542Y223530D01*
X255501Y223501D01*
X255457Y223479D01*
X255373Y223408D01*
X255284Y223343D01*
X255252Y223305D01*
X255215Y223273D01*
X255151Y223183D01*
X255081Y223099D01*
X255060Y223054D01*
X255032Y223013D01*
X254993Y222910D01*
X254946Y222811D01*
X254937Y222762D01*
X254919Y222716D01*
X254907Y222606D01*
X254886Y222498D01*
X254889Y222449D01*
X254884Y222399D01*
X254899Y222291D01*
X254906Y222181D01*
X254921Y222134D01*
X254928Y222085D01*
X254980Y221932D01*
X255352Y221036D01*
X255352Y219537D01*
X255364Y219439D01*
X255367Y219340D01*
X255384Y219281D01*
X255391Y219221D01*
X255428Y219129D01*
X255455Y219034D01*
X255486Y218982D01*
X255508Y218926D01*
X255567Y218846D01*
X255617Y218760D01*
X255683Y218685D01*
X255695Y218668D01*
X255705Y218661D01*
X255723Y218639D01*
X295056Y179306D01*
X295056Y156749D01*
X295069Y156650D01*
X295072Y156551D01*
X295089Y156493D01*
X295096Y156433D01*
X295133Y156341D01*
X295160Y156246D01*
X295191Y156194D01*
X295213Y156137D01*
X295271Y156057D01*
X295322Y155972D01*
X295388Y155897D01*
X295400Y155880D01*
X295410Y155872D01*
X295428Y155851D01*
X296756Y154523D01*
X297530Y152656D01*
X297530Y150634D01*
X296756Y148767D01*
X295327Y147338D01*
X293460Y146564D01*
X291438Y146564D01*
X289571Y147338D01*
X288142Y148767D01*
X287368Y150634D01*
X287368Y152656D01*
X288142Y154523D01*
X289095Y155476D01*
X289156Y155554D01*
X289224Y155627D01*
X289253Y155680D01*
X289290Y155727D01*
X289330Y155818D01*
X289377Y155905D01*
X289392Y155964D01*
X289416Y156019D01*
X289432Y156117D01*
X289457Y156213D01*
X289463Y156313D01*
X289466Y156333D01*
X289465Y156346D01*
X289467Y156374D01*
X289467Y176465D01*
X289455Y176563D01*
X289452Y176662D01*
X289435Y176721D01*
X289427Y176781D01*
X289391Y176873D01*
X289363Y176968D01*
X289332Y177020D01*
X289310Y177076D01*
X289252Y177156D01*
X289202Y177242D01*
X289135Y177317D01*
X289123Y177334D01*
X289114Y177342D01*
X289095Y177363D01*
X251885Y214572D01*
X251807Y214633D01*
X251735Y214701D01*
X251682Y214730D01*
X251634Y214767D01*
X251543Y214807D01*
X251457Y214855D01*
X251398Y214870D01*
X251342Y214894D01*
X251244Y214909D01*
X251149Y214934D01*
X251049Y214940D01*
X251028Y214944D01*
X251016Y214942D01*
X250988Y214944D01*
X249186Y214944D01*
X249049Y214927D01*
X248910Y214914D01*
X248891Y214907D01*
X248871Y214904D01*
X248742Y214853D01*
X248611Y214806D01*
X248594Y214795D01*
X248575Y214787D01*
X248463Y214706D01*
X248348Y214628D01*
X248334Y214612D01*
X248318Y214600D01*
X248229Y214493D01*
X248137Y214389D01*
X248128Y214371D01*
X248115Y214356D01*
X248056Y214230D01*
X247992Y214106D01*
X247988Y214086D01*
X247979Y214068D01*
X247953Y213932D01*
X247923Y213796D01*
X247923Y213775D01*
X247920Y213755D01*
X247928Y213617D01*
X247932Y213478D01*
X247938Y213458D01*
X247939Y213438D01*
X247982Y213306D01*
X248021Y213172D01*
X248031Y213155D01*
X248037Y213136D01*
X248112Y213018D01*
X248182Y212898D01*
X248201Y212877D01*
X248208Y212867D01*
X248222Y212853D01*
X248289Y212777D01*
X272724Y188342D01*
X274733Y186333D01*
X274733Y145950D01*
X274746Y145852D01*
X274749Y145753D01*
X274765Y145695D01*
X274773Y145635D01*
X274810Y145543D01*
X274837Y145447D01*
X274868Y145395D01*
X274890Y145339D01*
X274948Y145259D01*
X274999Y145174D01*
X275065Y145098D01*
X275077Y145082D01*
X275086Y145074D01*
X275105Y145053D01*
X293654Y126503D01*
X293654Y107390D01*
X293667Y107291D01*
X293670Y107192D01*
X293686Y107134D01*
X293694Y107074D01*
X293730Y106982D01*
X293758Y106887D01*
X293789Y106835D01*
X293811Y106778D01*
X293869Y106698D01*
X293920Y106613D01*
X293986Y106538D01*
X293998Y106521D01*
X294007Y106513D01*
X294026Y106492D01*
X295366Y105152D01*
X296139Y103285D01*
X296139Y101264D01*
X295366Y99396D01*
X293936Y97967D01*
X292069Y97194D01*
X290048Y97194D01*
X289080Y97594D01*
X289032Y97608D01*
X288987Y97629D01*
X288880Y97649D01*
X288774Y97678D01*
X288724Y97679D01*
X288675Y97688D01*
X288566Y97682D01*
X288456Y97683D01*
X288407Y97672D01*
X288358Y97669D01*
X288253Y97635D01*
X288146Y97609D01*
X288102Y97586D01*
X288055Y97571D01*
X287962Y97512D01*
X287865Y97461D01*
X287829Y97427D01*
X287787Y97401D01*
X287711Y97320D01*
X287630Y97247D01*
X287603Y97205D01*
X287569Y97169D01*
X287516Y97073D01*
X287455Y96981D01*
X287439Y96934D01*
X287415Y96890D01*
X287388Y96784D01*
X287352Y96680D01*
X287348Y96631D01*
X287336Y96582D01*
X287325Y96422D01*
X287325Y82435D01*
X287338Y82337D01*
X287341Y82238D01*
X287358Y82179D01*
X287365Y82119D01*
X287402Y82027D01*
X287429Y81932D01*
X287460Y81880D01*
X287482Y81824D01*
X287540Y81744D01*
X287591Y81658D01*
X287657Y81583D01*
X287669Y81566D01*
X287679Y81558D01*
X287697Y81537D01*
X288503Y80731D01*
X288582Y80670D01*
X288654Y80602D01*
X288707Y80573D01*
X288755Y80536D01*
X288846Y80497D01*
X288932Y80449D01*
X288991Y80434D01*
X289047Y80410D01*
X289145Y80394D01*
X289240Y80369D01*
X289340Y80363D01*
X289361Y80360D01*
X289373Y80361D01*
X289401Y80359D01*
X291014Y80359D01*
X292882Y79586D01*
X294311Y78156D01*
X295084Y76289D01*
X295084Y74268D01*
X294311Y72400D01*
X292882Y70971D01*
X291974Y70595D01*
X291931Y70571D01*
X291884Y70554D01*
X291793Y70492D01*
X291697Y70438D01*
X291662Y70403D01*
X291621Y70375D01*
X291548Y70293D01*
X291469Y70216D01*
X291443Y70174D01*
X291410Y70137D01*
X291360Y70039D01*
X291303Y69945D01*
X291288Y69898D01*
X291266Y69853D01*
X291242Y69746D01*
X291209Y69641D01*
X291207Y69592D01*
X291196Y69543D01*
X291199Y69433D01*
X291194Y69324D01*
X291204Y69275D01*
X291206Y69225D01*
X291236Y69120D01*
X291258Y69012D01*
X291280Y68967D01*
X291294Y68920D01*
X291350Y68825D01*
X291398Y68726D01*
X291430Y68689D01*
X291456Y68646D01*
X291562Y68525D01*
X293138Y66949D01*
X293138Y54949D01*
X293150Y54851D01*
X293153Y54752D01*
X293170Y54694D01*
X293178Y54634D01*
X293214Y54541D01*
X293242Y54446D01*
X293272Y54394D01*
X293295Y54338D01*
X293353Y54258D01*
X293403Y54172D01*
X293469Y54097D01*
X293481Y54081D01*
X293491Y54073D01*
X293509Y54052D01*
X294650Y52911D01*
X295424Y51044D01*
X295424Y49022D01*
X294650Y47155D01*
X293221Y45726D01*
X291354Y44952D01*
X289332Y44952D01*
X287465Y45726D01*
X286036Y47155D01*
X285262Y49022D01*
X285262Y51044D01*
X286036Y52911D01*
X287177Y54052D01*
X287237Y54130D01*
X287305Y54202D01*
X287334Y54255D01*
X287371Y54303D01*
X287411Y54394D01*
X287459Y54480D01*
X287474Y54539D01*
X287498Y54595D01*
X287513Y54693D01*
X287538Y54788D01*
X287544Y54888D01*
X287548Y54909D01*
X287546Y54921D01*
X287548Y54949D01*
X287548Y64108D01*
X287536Y64206D01*
X287533Y64305D01*
X287516Y64364D01*
X287508Y64424D01*
X287472Y64516D01*
X287444Y64611D01*
X287414Y64663D01*
X287391Y64719D01*
X287333Y64799D01*
X287283Y64885D01*
X287217Y64960D01*
X287205Y64977D01*
X287195Y64985D01*
X287177Y65006D01*
X282617Y69565D01*
X282508Y69650D01*
X282401Y69739D01*
X282382Y69747D01*
X282366Y69760D01*
X282238Y69815D01*
X282113Y69874D01*
X282093Y69878D01*
X282074Y69886D01*
X281936Y69908D01*
X281800Y69934D01*
X281780Y69933D01*
X281760Y69936D01*
X281621Y69923D01*
X281483Y69914D01*
X281464Y69908D01*
X281444Y69906D01*
X281312Y69859D01*
X281181Y69816D01*
X281163Y69805D01*
X281144Y69799D01*
X281029Y69720D01*
X280912Y69646D01*
X280898Y69631D01*
X280881Y69620D01*
X280789Y69516D01*
X280694Y69414D01*
X280684Y69397D01*
X280671Y69382D01*
X280607Y69257D01*
X280540Y69136D01*
X280535Y69116D01*
X280526Y69098D01*
X280496Y68962D01*
X280461Y68828D01*
X280459Y68800D01*
X280456Y68788D01*
X280457Y68767D01*
X280451Y68667D01*
X280451Y37802D01*
X280463Y37704D01*
X280466Y37605D01*
X280483Y37547D01*
X280491Y37487D01*
X280527Y37395D01*
X280555Y37300D01*
X280585Y37248D01*
X280608Y37191D01*
X280666Y37111D01*
X280716Y37026D01*
X280782Y36950D01*
X280794Y36934D01*
X280804Y36926D01*
X280822Y36905D01*
X288637Y29090D01*
X288716Y29029D01*
X288788Y28961D01*
X288841Y28932D01*
X288889Y28895D01*
X288980Y28856D01*
X289066Y28808D01*
X289125Y28793D01*
X289181Y28769D01*
X289279Y28753D01*
X289374Y28729D01*
X289474Y28722D01*
X289495Y28719D01*
X289507Y28720D01*
X289535Y28718D01*
X291148Y28718D01*
X293016Y27945D01*
X294445Y26516D01*
X295218Y24648D01*
X295218Y22627D01*
X294445Y20760D01*
X293016Y19330D01*
X291148Y18557D01*
X289127Y18557D01*
X287260Y19330D01*
X285830Y20760D01*
X285057Y22627D01*
X285057Y24240D01*
X285044Y24338D01*
X285041Y24437D01*
X285025Y24496D01*
X285017Y24556D01*
X284981Y24648D01*
X284953Y24743D01*
X284922Y24795D01*
X284900Y24851D01*
X284842Y24931D01*
X284791Y25017D01*
X284725Y25092D01*
X284713Y25109D01*
X284704Y25117D01*
X284685Y25138D01*
X274861Y34962D01*
X274861Y53344D01*
X274855Y53393D01*
X274857Y53443D01*
X274840Y53525D01*
X274839Y53548D01*
X274833Y53566D01*
X274821Y53659D01*
X274803Y53705D01*
X274793Y53754D01*
X274745Y53853D01*
X274704Y53955D01*
X274675Y53995D01*
X274653Y54040D01*
X274582Y54123D01*
X274518Y54212D01*
X274479Y54244D01*
X274447Y54282D01*
X274357Y54345D01*
X274273Y54415D01*
X274228Y54436D01*
X274187Y54465D01*
X274084Y54504D01*
X273985Y54551D01*
X273936Y54560D01*
X273890Y54577D01*
X273780Y54590D01*
X273673Y54610D01*
X273623Y54607D01*
X273574Y54613D01*
X273465Y54597D01*
X273355Y54591D01*
X273308Y54575D01*
X273259Y54568D01*
X273106Y54516D01*
X271224Y53737D01*
X269203Y53737D01*
X267336Y54510D01*
X265906Y55939D01*
X265133Y57807D01*
X265133Y59337D01*
X265121Y59435D01*
X265118Y59534D01*
X265101Y59592D01*
X265093Y59652D01*
X265057Y59744D01*
X265029Y59840D01*
X264998Y59892D01*
X264976Y59948D01*
X264918Y60028D01*
X264868Y60113D01*
X264801Y60189D01*
X264789Y60205D01*
X264780Y60213D01*
X264761Y60234D01*
X262161Y62834D01*
X262161Y74908D01*
X263884Y76631D01*
X263945Y76709D01*
X264013Y76781D01*
X264042Y76834D01*
X264079Y76882D01*
X264119Y76973D01*
X264166Y77060D01*
X264182Y77118D01*
X264206Y77174D01*
X264221Y77272D01*
X264246Y77368D01*
X264252Y77468D01*
X264255Y77488D01*
X264254Y77501D01*
X264256Y77529D01*
X264256Y99244D01*
X264250Y99293D01*
X264252Y99343D01*
X264230Y99450D01*
X264216Y99559D01*
X264198Y99606D01*
X264188Y99654D01*
X264140Y99753D01*
X264099Y99855D01*
X264070Y99895D01*
X264048Y99940D01*
X263977Y100023D01*
X263912Y100112D01*
X263874Y100144D01*
X263842Y100182D01*
X263752Y100245D01*
X263667Y100315D01*
X263622Y100336D01*
X263582Y100365D01*
X263479Y100404D01*
X263380Y100451D01*
X263331Y100460D01*
X263284Y100478D01*
X263175Y100490D01*
X263067Y100510D01*
X263018Y100507D01*
X262968Y100513D01*
X262859Y100498D01*
X262750Y100491D01*
X262703Y100475D01*
X262653Y100468D01*
X262501Y100416D01*
X261591Y100039D01*
X259977Y100039D01*
X259879Y100027D01*
X259780Y100024D01*
X259722Y100007D01*
X259662Y99999D01*
X259570Y99963D01*
X259475Y99935D01*
X259422Y99905D01*
X259366Y99882D01*
X259286Y99824D01*
X259201Y99774D01*
X259125Y99708D01*
X259109Y99696D01*
X259101Y99686D01*
X259080Y99668D01*
X253041Y93628D01*
X252980Y93550D01*
X252912Y93478D01*
X252883Y93425D01*
X252846Y93377D01*
X252806Y93286D01*
X252759Y93200D01*
X252744Y93141D01*
X252719Y93085D01*
X252704Y92987D01*
X252679Y92892D01*
X252673Y92792D01*
X252670Y92771D01*
X252671Y92759D01*
X252669Y92731D01*
X252669Y23242D01*
X252681Y23144D01*
X252684Y23045D01*
X252701Y22987D01*
X252709Y22926D01*
X252745Y22834D01*
X252773Y22739D01*
X252804Y22687D01*
X252826Y22631D01*
X252884Y22551D01*
X252934Y22465D01*
X253001Y22390D01*
X253013Y22373D01*
X253022Y22366D01*
X253041Y22345D01*
X253887Y21498D01*
X254661Y19631D01*
X254661Y17609D01*
X253887Y15742D01*
X252458Y14313D01*
X250591Y13539D01*
X248569Y13539D01*
X246702Y14313D01*
X245273Y15742D01*
X244499Y17609D01*
X244499Y19631D01*
X245273Y21498D01*
X246708Y22933D01*
X246768Y23011D01*
X246836Y23083D01*
X246866Y23136D01*
X246903Y23184D01*
X246942Y23275D01*
X246990Y23362D01*
X247005Y23420D01*
X247029Y23476D01*
X247045Y23574D01*
X247069Y23670D01*
X247076Y23770D01*
X247079Y23790D01*
X247078Y23803D01*
X247080Y23831D01*
X247080Y34623D01*
X247062Y34761D01*
X247049Y34899D01*
X247042Y34918D01*
X247040Y34938D01*
X246989Y35068D01*
X246941Y35199D01*
X246930Y35215D01*
X246923Y35234D01*
X246841Y35347D01*
X246763Y35462D01*
X246748Y35475D01*
X246736Y35492D01*
X246628Y35580D01*
X246524Y35672D01*
X246506Y35681D01*
X246491Y35694D01*
X246365Y35753D01*
X246241Y35817D01*
X246221Y35821D01*
X246203Y35830D01*
X246067Y35856D01*
X245931Y35886D01*
X245911Y35886D01*
X245891Y35890D01*
X245752Y35881D01*
X245613Y35877D01*
X245594Y35871D01*
X245573Y35870D01*
X245441Y35827D01*
X245308Y35788D01*
X245290Y35778D01*
X245271Y35772D01*
X245153Y35698D01*
X245034Y35627D01*
X245012Y35608D01*
X245002Y35602D01*
X244988Y35587D01*
X244913Y35520D01*
X235120Y25727D01*
X235035Y25618D01*
X234946Y25511D01*
X234937Y25492D01*
X234925Y25476D01*
X234869Y25348D01*
X234810Y25223D01*
X234807Y25203D01*
X234799Y25184D01*
X234777Y25046D01*
X234751Y24910D01*
X234752Y24890D01*
X234749Y24870D01*
X234762Y24731D01*
X234770Y24593D01*
X234777Y24574D01*
X234778Y24554D01*
X234826Y24422D01*
X234868Y24291D01*
X234879Y24273D01*
X234886Y24254D01*
X234964Y24139D01*
X235039Y24022D01*
X235053Y24008D01*
X235065Y23991D01*
X235169Y23899D01*
X235270Y23804D01*
X235288Y23794D01*
X235303Y23781D01*
X235427Y23717D01*
X235549Y23650D01*
X235568Y23645D01*
X235586Y23636D01*
X235722Y23606D01*
X235857Y23571D01*
X235885Y23569D01*
X235897Y23566D01*
X235917Y23567D01*
X236017Y23561D01*
X237691Y23561D01*
X239558Y22787D01*
X240987Y21358D01*
X241761Y19491D01*
X241761Y17469D01*
X240987Y15602D01*
X239558Y14173D01*
X237691Y13399D01*
X235757Y13399D01*
X235659Y13387D01*
X235560Y13384D01*
X235502Y13367D01*
X235442Y13359D01*
X235350Y13323D01*
X235254Y13295D01*
X235202Y13265D01*
X235146Y13242D01*
X235066Y13184D01*
X234981Y13134D01*
X234905Y13068D01*
X234889Y13056D01*
X234881Y13046D01*
X234860Y13028D01*
X231427Y9595D01*
X222979Y9595D01*
X222861Y9580D01*
X222742Y9573D01*
X222704Y9560D01*
X222663Y9555D01*
X222553Y9512D01*
X222440Y9475D01*
X222405Y9453D01*
X222368Y9438D01*
X222272Y9369D01*
X222171Y9305D01*
X222143Y9275D01*
X222110Y9252D01*
X222035Y9160D01*
X221953Y9073D01*
X221933Y9038D01*
X221908Y9007D01*
X221857Y8899D01*
X221799Y8795D01*
X221789Y8755D01*
X221772Y8719D01*
X221750Y8602D01*
X221720Y8487D01*
X221716Y8427D01*
X221712Y8407D01*
X221714Y8386D01*
X221710Y8326D01*
X221710Y6417D01*
X221357Y5566D01*
X221344Y5518D01*
X221323Y5473D01*
X221302Y5365D01*
X221273Y5259D01*
X221273Y5209D01*
X221263Y5160D01*
X221270Y5051D01*
X221268Y4941D01*
X221280Y4893D01*
X221283Y4843D01*
X221317Y4739D01*
X221342Y4632D01*
X221366Y4588D01*
X221381Y4541D01*
X221440Y4448D01*
X221491Y4351D01*
X221525Y4314D01*
X221551Y4272D01*
X221631Y4197D01*
X221705Y4115D01*
X221747Y4088D01*
X221783Y4054D01*
X221879Y4001D01*
X221971Y3941D01*
X222018Y3924D01*
X222061Y3900D01*
X222167Y3873D01*
X222272Y3837D01*
X222321Y3833D01*
X222369Y3821D01*
X222530Y3811D01*
X256199Y3811D01*
X256199Y3811D01*
G37*
G36*
X210496Y7878D02*
X210496Y7878D01*
X210526Y7876D01*
X210654Y7898D01*
X210782Y7915D01*
X210810Y7925D01*
X210839Y7930D01*
X210958Y7984D01*
X211078Y8032D01*
X211102Y8049D01*
X211129Y8061D01*
X211230Y8142D01*
X211336Y8218D01*
X211354Y8241D01*
X211377Y8260D01*
X211456Y8363D01*
X211538Y8463D01*
X211551Y8490D01*
X211569Y8514D01*
X211640Y8658D01*
X212322Y10305D01*
X213751Y11735D01*
X215179Y12326D01*
X215222Y12351D01*
X215269Y12368D01*
X215360Y12429D01*
X215456Y12484D01*
X215491Y12518D01*
X215532Y12546D01*
X215605Y12628D01*
X215684Y12705D01*
X215710Y12747D01*
X215743Y12785D01*
X215793Y12882D01*
X215850Y12976D01*
X215865Y13023D01*
X215887Y13068D01*
X215912Y13175D01*
X215944Y13280D01*
X215946Y13330D01*
X215957Y13378D01*
X215954Y13488D01*
X215959Y13598D01*
X215949Y13646D01*
X215947Y13696D01*
X215917Y13801D01*
X215895Y13909D01*
X215873Y13954D01*
X215859Y14001D01*
X215803Y14096D01*
X215755Y14195D01*
X215723Y14233D01*
X215698Y14275D01*
X215591Y14396D01*
X207473Y22514D01*
X207473Y52761D01*
X207456Y52899D01*
X207443Y53038D01*
X207436Y53057D01*
X207433Y53077D01*
X207382Y53206D01*
X207335Y53337D01*
X207324Y53354D01*
X207316Y53373D01*
X207235Y53485D01*
X207157Y53600D01*
X207141Y53614D01*
X207130Y53630D01*
X207022Y53719D01*
X206918Y53811D01*
X206900Y53820D01*
X206885Y53833D01*
X206759Y53892D01*
X206635Y53955D01*
X206615Y53960D01*
X206597Y53968D01*
X206461Y53994D01*
X206325Y54025D01*
X206304Y54024D01*
X206285Y54028D01*
X206146Y54019D01*
X206007Y54015D01*
X205987Y54010D01*
X205967Y54008D01*
X205835Y53966D01*
X205701Y53927D01*
X205684Y53917D01*
X205665Y53910D01*
X205547Y53836D01*
X205427Y53765D01*
X205406Y53747D01*
X205396Y53740D01*
X205382Y53725D01*
X205307Y53659D01*
X200253Y48605D01*
X200192Y48527D01*
X200124Y48455D01*
X200095Y48402D01*
X200058Y48354D01*
X200018Y48263D01*
X199971Y48176D01*
X199956Y48118D01*
X199932Y48062D01*
X199916Y47964D01*
X199891Y47868D01*
X199885Y47768D01*
X199882Y47748D01*
X199883Y47736D01*
X199881Y47708D01*
X199881Y45921D01*
X199108Y44053D01*
X197678Y42624D01*
X195811Y41851D01*
X193790Y41851D01*
X191922Y42624D01*
X190493Y44053D01*
X189720Y45921D01*
X189720Y47942D01*
X190493Y49809D01*
X191727Y51043D01*
X191757Y51082D01*
X191794Y51115D01*
X191854Y51207D01*
X191921Y51294D01*
X191941Y51340D01*
X191969Y51381D01*
X192004Y51485D01*
X192048Y51586D01*
X192056Y51635D01*
X192072Y51682D01*
X192080Y51791D01*
X192098Y51900D01*
X192093Y51950D01*
X192097Y51999D01*
X192078Y52107D01*
X192068Y52217D01*
X192051Y52263D01*
X192043Y52312D01*
X191997Y52413D01*
X191960Y52516D01*
X191932Y52557D01*
X191912Y52602D01*
X191843Y52688D01*
X191782Y52779D01*
X191744Y52812D01*
X191713Y52851D01*
X191626Y52917D01*
X191543Y52990D01*
X191499Y53012D01*
X191459Y53042D01*
X191315Y53113D01*
X191122Y53193D01*
X189693Y54622D01*
X188919Y56489D01*
X188919Y58511D01*
X189693Y60378D01*
X191122Y61807D01*
X192989Y62581D01*
X194603Y62581D01*
X194701Y62593D01*
X194800Y62596D01*
X194858Y62613D01*
X194918Y62621D01*
X195010Y62657D01*
X195105Y62685D01*
X195158Y62715D01*
X195214Y62738D01*
X195294Y62796D01*
X195379Y62846D01*
X195455Y62912D01*
X195471Y62924D01*
X195479Y62934D01*
X195500Y62952D01*
X198290Y65742D01*
X198351Y65821D01*
X198419Y65893D01*
X198448Y65946D01*
X198485Y65994D01*
X198524Y66084D01*
X198572Y66171D01*
X198587Y66230D01*
X198611Y66285D01*
X198627Y66383D01*
X198652Y66479D01*
X198658Y66579D01*
X198661Y66600D01*
X198660Y66612D01*
X198662Y66640D01*
X198662Y200723D01*
X198649Y200821D01*
X198646Y200920D01*
X198629Y200978D01*
X198622Y201038D01*
X198585Y201130D01*
X198558Y201225D01*
X198527Y201278D01*
X198505Y201334D01*
X198447Y201414D01*
X198396Y201499D01*
X198330Y201575D01*
X198318Y201591D01*
X198309Y201599D01*
X198290Y201620D01*
X191664Y208246D01*
X191586Y208307D01*
X191514Y208374D01*
X191461Y208404D01*
X191413Y208441D01*
X191322Y208480D01*
X191236Y208528D01*
X191177Y208543D01*
X191121Y208567D01*
X191023Y208583D01*
X190928Y208607D01*
X190828Y208614D01*
X190807Y208617D01*
X190795Y208616D01*
X190767Y208618D01*
X189154Y208618D01*
X187286Y209391D01*
X185857Y210820D01*
X185084Y212688D01*
X185084Y214709D01*
X185857Y216576D01*
X187286Y218006D01*
X188161Y218368D01*
X188204Y218392D01*
X188250Y218409D01*
X188341Y218471D01*
X188437Y218525D01*
X188473Y218560D01*
X188514Y218588D01*
X188586Y218670D01*
X188665Y218747D01*
X188691Y218789D01*
X188724Y218826D01*
X188774Y218924D01*
X188831Y219018D01*
X188846Y219065D01*
X188869Y219109D01*
X188893Y219217D01*
X188925Y219322D01*
X188927Y219371D01*
X188938Y219420D01*
X188935Y219530D01*
X188940Y219639D01*
X188930Y219688D01*
X188929Y219738D01*
X188898Y219843D01*
X188876Y219951D01*
X188854Y219996D01*
X188840Y220043D01*
X188785Y220138D01*
X188736Y220236D01*
X188704Y220274D01*
X188679Y220317D01*
X188572Y220438D01*
X187350Y221660D01*
X187311Y221690D01*
X187278Y221727D01*
X187186Y221787D01*
X187099Y221855D01*
X187053Y221875D01*
X187012Y221902D01*
X186908Y221938D01*
X186807Y221981D01*
X186758Y221989D01*
X186711Y222005D01*
X186602Y222014D01*
X186493Y222031D01*
X186444Y222026D01*
X186394Y222030D01*
X186286Y222012D01*
X186177Y222001D01*
X186130Y221984D01*
X186081Y221976D01*
X185981Y221931D01*
X185877Y221894D01*
X185836Y221866D01*
X185791Y221845D01*
X185705Y221777D01*
X185614Y221715D01*
X185581Y221678D01*
X185542Y221647D01*
X185476Y221559D01*
X185404Y221477D01*
X185381Y221432D01*
X185351Y221393D01*
X185280Y221248D01*
X184593Y219590D01*
X183164Y218160D01*
X181574Y217502D01*
X181549Y217487D01*
X181520Y217478D01*
X181411Y217409D01*
X181298Y217344D01*
X181277Y217324D01*
X181252Y217308D01*
X181163Y217213D01*
X181070Y217123D01*
X181054Y217098D01*
X181034Y217076D01*
X180971Y216962D01*
X180903Y216852D01*
X180895Y216824D01*
X180880Y216798D01*
X180848Y216672D01*
X180810Y216548D01*
X180808Y216518D01*
X180801Y216490D01*
X180791Y216329D01*
X180791Y140156D01*
X180794Y140126D01*
X180792Y140097D01*
X180814Y139969D01*
X180830Y139840D01*
X180841Y139813D01*
X180846Y139784D01*
X180900Y139665D01*
X180948Y139544D01*
X180965Y139521D01*
X180977Y139494D01*
X181058Y139392D01*
X181134Y139287D01*
X181157Y139268D01*
X181176Y139245D01*
X181279Y139167D01*
X181379Y139084D01*
X181406Y139072D01*
X181430Y139054D01*
X181574Y138983D01*
X181613Y138967D01*
X183042Y137538D01*
X183816Y135670D01*
X183816Y133649D01*
X183042Y131782D01*
X181613Y130352D01*
X179745Y129579D01*
X177724Y129579D01*
X175857Y130352D01*
X174873Y131336D01*
X174779Y131409D01*
X174690Y131488D01*
X174654Y131506D01*
X174622Y131531D01*
X174513Y131578D01*
X174407Y131632D01*
X174367Y131641D01*
X174330Y131657D01*
X174212Y131676D01*
X174096Y131702D01*
X174056Y131701D01*
X174016Y131707D01*
X173897Y131696D01*
X173779Y131692D01*
X173740Y131681D01*
X173699Y131677D01*
X173587Y131637D01*
X173473Y131604D01*
X173438Y131583D01*
X173400Y131570D01*
X173302Y131503D01*
X173199Y131442D01*
X173154Y131403D01*
X173137Y131391D01*
X173124Y131376D01*
X173078Y131336D01*
X172876Y131133D01*
X171008Y130360D01*
X168987Y130360D01*
X167120Y131133D01*
X165690Y132563D01*
X164917Y134430D01*
X164917Y136451D01*
X165690Y138319D01*
X167120Y139748D01*
X168987Y140521D01*
X169840Y140521D01*
X169958Y140536D01*
X170077Y140544D01*
X170115Y140556D01*
X170156Y140561D01*
X170266Y140605D01*
X170379Y140642D01*
X170414Y140663D01*
X170451Y140678D01*
X170547Y140748D01*
X170648Y140812D01*
X170676Y140841D01*
X170709Y140865D01*
X170785Y140957D01*
X170866Y141043D01*
X170886Y141079D01*
X170911Y141110D01*
X170962Y141218D01*
X171020Y141322D01*
X171030Y141361D01*
X171047Y141398D01*
X171069Y141514D01*
X171099Y141630D01*
X171103Y141690D01*
X171107Y141710D01*
X171105Y141730D01*
X171109Y141791D01*
X171109Y154190D01*
X171092Y154328D01*
X171079Y154467D01*
X171072Y154486D01*
X171069Y154506D01*
X171018Y154635D01*
X170971Y154766D01*
X170960Y154783D01*
X170952Y154801D01*
X170871Y154914D01*
X170793Y155029D01*
X170777Y155042D01*
X170766Y155059D01*
X170658Y155148D01*
X170554Y155239D01*
X170536Y155249D01*
X170521Y155262D01*
X170395Y155321D01*
X170271Y155384D01*
X170251Y155388D01*
X170233Y155397D01*
X170097Y155423D01*
X169961Y155454D01*
X169940Y155453D01*
X169921Y155457D01*
X169782Y155448D01*
X169643Y155444D01*
X169623Y155438D01*
X169603Y155437D01*
X169471Y155394D01*
X169337Y155356D01*
X169320Y155345D01*
X169301Y155339D01*
X169183Y155265D01*
X169063Y155194D01*
X169042Y155175D01*
X169032Y155169D01*
X169018Y155154D01*
X168943Y155088D01*
X160105Y146250D01*
X160044Y146172D01*
X159976Y146100D01*
X159947Y146047D01*
X159910Y145999D01*
X159871Y145908D01*
X159823Y145821D01*
X159808Y145763D01*
X159784Y145707D01*
X159768Y145609D01*
X159743Y145513D01*
X159737Y145413D01*
X159734Y145393D01*
X159735Y145381D01*
X159733Y145353D01*
X159733Y143739D01*
X158960Y141872D01*
X157531Y140443D01*
X155663Y139669D01*
X153642Y139669D01*
X151775Y140443D01*
X150345Y141872D01*
X149572Y143739D01*
X149572Y145761D01*
X150345Y147628D01*
X151775Y149057D01*
X153642Y149831D01*
X155255Y149831D01*
X155353Y149843D01*
X155452Y149846D01*
X155511Y149863D01*
X155571Y149871D01*
X155663Y149907D01*
X155758Y149935D01*
X155810Y149965D01*
X155866Y149988D01*
X155947Y150046D01*
X156032Y150096D01*
X156107Y150162D01*
X156124Y150174D01*
X156132Y150184D01*
X156153Y150202D01*
X166509Y160559D01*
X166570Y160638D01*
X166638Y160710D01*
X166667Y160763D01*
X166704Y160811D01*
X166744Y160902D01*
X166792Y160988D01*
X166807Y161047D01*
X166831Y161102D01*
X166846Y161200D01*
X166871Y161296D01*
X166877Y161396D01*
X166881Y161417D01*
X166879Y161429D01*
X166881Y161457D01*
X166881Y208509D01*
X166864Y208647D01*
X166851Y208786D01*
X166844Y208805D01*
X166841Y208825D01*
X166790Y208954D01*
X166743Y209085D01*
X166732Y209102D01*
X166724Y209120D01*
X166643Y209232D01*
X166565Y209348D01*
X166549Y209361D01*
X166538Y209378D01*
X166430Y209466D01*
X166326Y209558D01*
X166308Y209568D01*
X166293Y209581D01*
X166167Y209640D01*
X166043Y209703D01*
X166023Y209707D01*
X166005Y209716D01*
X165868Y209742D01*
X165733Y209773D01*
X165712Y209772D01*
X165692Y209776D01*
X165554Y209767D01*
X165415Y209763D01*
X165395Y209757D01*
X165375Y209756D01*
X165243Y209713D01*
X165109Y209675D01*
X165092Y209664D01*
X165073Y209658D01*
X164955Y209584D01*
X164835Y209513D01*
X164814Y209494D01*
X164804Y209488D01*
X164790Y209473D01*
X164714Y209407D01*
X164665Y209357D01*
X162798Y208584D01*
X161632Y208584D01*
X161494Y208566D01*
X161356Y208553D01*
X161337Y208547D01*
X161316Y208544D01*
X161187Y208493D01*
X161056Y208446D01*
X161040Y208434D01*
X161021Y208427D01*
X160908Y208345D01*
X160793Y208267D01*
X160780Y208252D01*
X160763Y208240D01*
X160675Y208133D01*
X160583Y208029D01*
X160574Y208011D01*
X160561Y207995D01*
X160501Y207870D01*
X160438Y207746D01*
X160434Y207726D01*
X160425Y207707D01*
X160399Y207571D01*
X160369Y207435D01*
X160369Y207415D01*
X160365Y207395D01*
X160374Y207256D01*
X160378Y207117D01*
X160384Y207098D01*
X160385Y207078D01*
X160428Y206945D01*
X160467Y206812D01*
X160477Y206794D01*
X160483Y206775D01*
X160557Y206658D01*
X160628Y206538D01*
X160647Y206517D01*
X160653Y206507D01*
X160668Y206492D01*
X160735Y206417D01*
X160921Y206230D01*
X160921Y192327D01*
X148520Y179925D01*
X108989Y179925D01*
X108940Y179919D01*
X108890Y179921D01*
X108783Y179899D01*
X108674Y179886D01*
X108627Y179867D01*
X108579Y179857D01*
X108480Y179809D01*
X108378Y179768D01*
X108338Y179739D01*
X108293Y179717D01*
X108210Y179646D01*
X108121Y179582D01*
X108089Y179543D01*
X108051Y179511D01*
X107988Y179421D01*
X107918Y179337D01*
X107897Y179292D01*
X107868Y179251D01*
X107829Y179148D01*
X107782Y179049D01*
X107773Y179000D01*
X107755Y178954D01*
X107743Y178844D01*
X107723Y178737D01*
X107726Y178687D01*
X107720Y178638D01*
X107736Y178529D01*
X107742Y178419D01*
X107758Y178372D01*
X107765Y178323D01*
X107817Y178170D01*
X108164Y177331D01*
X108164Y175310D01*
X107391Y173443D01*
X105961Y172014D01*
X104094Y171240D01*
X101978Y171240D01*
X101880Y171228D01*
X101781Y171225D01*
X101723Y171208D01*
X101663Y171200D01*
X101571Y171164D01*
X101476Y171136D01*
X101424Y171105D01*
X101367Y171083D01*
X101287Y171025D01*
X101202Y170975D01*
X101126Y170908D01*
X101110Y170896D01*
X101102Y170887D01*
X101081Y170868D01*
X84141Y153928D01*
X84110Y153889D01*
X84074Y153856D01*
X84013Y153764D01*
X83946Y153677D01*
X83926Y153631D01*
X83899Y153590D01*
X83863Y153486D01*
X83820Y153385D01*
X83812Y153336D01*
X83796Y153289D01*
X83787Y153180D01*
X83770Y153071D01*
X83774Y153021D01*
X83771Y152972D01*
X83789Y152864D01*
X83800Y152754D01*
X83816Y152708D01*
X83825Y152659D01*
X83870Y152559D01*
X83907Y152455D01*
X83935Y152414D01*
X83955Y152369D01*
X84024Y152283D01*
X84086Y152192D01*
X84123Y152159D01*
X84154Y152120D01*
X84242Y152054D01*
X84324Y151982D01*
X84368Y151959D01*
X84408Y151929D01*
X84553Y151858D01*
X85422Y151498D01*
X86851Y150069D01*
X87258Y149086D01*
X87283Y149043D01*
X87300Y148996D01*
X87361Y148905D01*
X87416Y148810D01*
X87450Y148774D01*
X87478Y148733D01*
X87561Y148660D01*
X87637Y148582D01*
X87679Y148556D01*
X87717Y148523D01*
X87815Y148473D01*
X87908Y148415D01*
X87956Y148401D01*
X88000Y148378D01*
X88107Y148354D01*
X88212Y148322D01*
X88262Y148319D01*
X88310Y148308D01*
X88420Y148312D01*
X88530Y148307D01*
X88578Y148317D01*
X88628Y148318D01*
X88734Y148349D01*
X88841Y148371D01*
X88886Y148393D01*
X88934Y148406D01*
X89028Y148462D01*
X89127Y148511D01*
X89165Y148543D01*
X89208Y148568D01*
X89328Y148674D01*
X110699Y170045D01*
X110760Y170123D01*
X110828Y170196D01*
X110857Y170249D01*
X110894Y170296D01*
X110933Y170387D01*
X110981Y170474D01*
X110996Y170533D01*
X111020Y170588D01*
X111036Y170686D01*
X111061Y170782D01*
X111067Y170882D01*
X111070Y170902D01*
X111069Y170915D01*
X111071Y170943D01*
X111071Y172167D01*
X111844Y174034D01*
X113274Y175464D01*
X115141Y176237D01*
X117162Y176237D01*
X119030Y175464D01*
X120459Y174034D01*
X121232Y172167D01*
X121232Y170146D01*
X120459Y168278D01*
X119030Y166849D01*
X118847Y166773D01*
X118726Y166704D01*
X118603Y166639D01*
X118588Y166626D01*
X118570Y166616D01*
X118471Y166519D01*
X118367Y166425D01*
X118356Y166408D01*
X118342Y166395D01*
X118270Y166276D01*
X118193Y166159D01*
X118186Y166140D01*
X118176Y166123D01*
X118135Y165991D01*
X118090Y165859D01*
X118088Y165839D01*
X118082Y165820D01*
X118076Y165681D01*
X118065Y165542D01*
X118068Y165522D01*
X118067Y165502D01*
X118095Y165365D01*
X118119Y165228D01*
X118127Y165210D01*
X118131Y165190D01*
X118193Y165065D01*
X118250Y164938D01*
X118262Y164923D01*
X118271Y164905D01*
X118362Y164798D01*
X118448Y164690D01*
X118464Y164678D01*
X118477Y164663D01*
X118567Y164600D01*
X120091Y163075D01*
X120865Y161208D01*
X120865Y159187D01*
X120091Y157319D01*
X118662Y155890D01*
X116795Y155117D01*
X114635Y155117D01*
X114536Y155104D01*
X114437Y155101D01*
X114379Y155084D01*
X114319Y155077D01*
X114227Y155040D01*
X114132Y155013D01*
X114080Y154982D01*
X114023Y154960D01*
X113943Y154902D01*
X113858Y154851D01*
X113782Y154785D01*
X113766Y154773D01*
X113758Y154764D01*
X113737Y154745D01*
X78604Y119612D01*
X78544Y119534D01*
X78476Y119462D01*
X78447Y119409D01*
X78410Y119361D01*
X78370Y119270D01*
X78322Y119184D01*
X78307Y119125D01*
X78283Y119069D01*
X78268Y118971D01*
X78243Y118876D01*
X78237Y118776D01*
X78233Y118755D01*
X78235Y118743D01*
X78233Y118715D01*
X78233Y98175D01*
X78250Y98037D01*
X78263Y97898D01*
X78270Y97879D01*
X78273Y97859D01*
X78324Y97730D01*
X78371Y97599D01*
X78382Y97582D01*
X78390Y97563D01*
X78471Y97451D01*
X78549Y97336D01*
X78565Y97323D01*
X78576Y97306D01*
X78684Y97217D01*
X78788Y97125D01*
X78806Y97116D01*
X78821Y97103D01*
X78947Y97044D01*
X79071Y96981D01*
X79091Y96976D01*
X79109Y96968D01*
X79246Y96942D01*
X79381Y96911D01*
X79402Y96912D01*
X79421Y96908D01*
X79560Y96917D01*
X79699Y96921D01*
X79719Y96926D01*
X79739Y96928D01*
X79871Y96970D01*
X80005Y97009D01*
X80022Y97020D01*
X80041Y97026D01*
X80159Y97100D01*
X80279Y97171D01*
X80300Y97189D01*
X80310Y97196D01*
X80324Y97211D01*
X80399Y97277D01*
X81042Y97920D01*
X82910Y98694D01*
X84931Y98694D01*
X86798Y97920D01*
X88228Y96491D01*
X89001Y94624D01*
X89001Y92602D01*
X88228Y90735D01*
X86798Y89306D01*
X84931Y88532D01*
X82910Y88532D01*
X81042Y89306D01*
X80369Y89979D01*
X80275Y90052D01*
X80186Y90131D01*
X80150Y90149D01*
X80118Y90174D01*
X80009Y90221D01*
X79902Y90276D01*
X79863Y90284D01*
X79826Y90300D01*
X79708Y90319D01*
X79592Y90345D01*
X79552Y90344D01*
X79512Y90350D01*
X79393Y90339D01*
X79274Y90336D01*
X79235Y90324D01*
X79195Y90321D01*
X79083Y90280D01*
X78969Y90247D01*
X78934Y90227D01*
X78896Y90213D01*
X78798Y90146D01*
X78695Y90086D01*
X78650Y90046D01*
X78633Y90034D01*
X78619Y90019D01*
X78574Y89979D01*
X73468Y84873D01*
X73454Y84863D01*
X73446Y84854D01*
X73425Y84835D01*
X65979Y77389D01*
X65918Y77311D01*
X65851Y77239D01*
X65821Y77186D01*
X65784Y77138D01*
X65745Y77047D01*
X65697Y76960D01*
X65682Y76902D01*
X65658Y76846D01*
X65642Y76748D01*
X65618Y76652D01*
X65611Y76552D01*
X65608Y76532D01*
X65609Y76520D01*
X65607Y76492D01*
X65607Y74878D01*
X64834Y73011D01*
X63405Y71582D01*
X61537Y70808D01*
X59516Y70808D01*
X57649Y71582D01*
X57010Y72220D01*
X56916Y72293D01*
X56827Y72372D01*
X56791Y72390D01*
X56759Y72415D01*
X56650Y72462D01*
X56544Y72517D01*
X56504Y72525D01*
X56467Y72542D01*
X56349Y72560D01*
X56233Y72586D01*
X56193Y72585D01*
X56153Y72591D01*
X56034Y72580D01*
X55915Y72577D01*
X55877Y72565D01*
X55836Y72562D01*
X55724Y72521D01*
X55610Y72488D01*
X55575Y72468D01*
X55537Y72454D01*
X55439Y72387D01*
X55336Y72327D01*
X55291Y72287D01*
X55274Y72275D01*
X55260Y72260D01*
X55215Y72220D01*
X54648Y71654D01*
X52781Y70880D01*
X50760Y70880D01*
X50462Y71004D01*
X50395Y71022D01*
X50330Y71050D01*
X50242Y71064D01*
X50155Y71088D01*
X50085Y71089D01*
X50016Y71100D01*
X49927Y71091D01*
X49837Y71093D01*
X49769Y71076D01*
X49700Y71070D01*
X49615Y71039D01*
X49528Y71018D01*
X49466Y70986D01*
X49400Y70962D01*
X49326Y70912D01*
X49247Y70870D01*
X49195Y70823D01*
X49137Y70784D01*
X49078Y70716D01*
X49011Y70656D01*
X48973Y70597D01*
X48927Y70545D01*
X48886Y70465D01*
X48837Y70390D01*
X48814Y70324D01*
X48782Y70262D01*
X48763Y70174D01*
X48733Y70089D01*
X48728Y70020D01*
X48713Y69952D01*
X48715Y69862D01*
X48708Y69772D01*
X48720Y69704D01*
X48722Y69634D01*
X48747Y69548D01*
X48763Y69459D01*
X48791Y69395D01*
X48811Y69328D01*
X48856Y69251D01*
X48893Y69169D01*
X48937Y69114D01*
X48972Y69054D01*
X49016Y69005D01*
X49017Y69004D01*
X49018Y69002D01*
X49079Y68934D01*
X64340Y53672D01*
X64418Y53612D01*
X64490Y53544D01*
X64543Y53515D01*
X64591Y53478D01*
X64682Y53438D01*
X64768Y53390D01*
X64827Y53375D01*
X64883Y53351D01*
X64981Y53336D01*
X65076Y53311D01*
X65176Y53305D01*
X65197Y53301D01*
X65209Y53303D01*
X65237Y53301D01*
X68958Y53301D01*
X69056Y53313D01*
X69155Y53316D01*
X69213Y53333D01*
X69273Y53341D01*
X69365Y53377D01*
X69460Y53405D01*
X69513Y53435D01*
X69569Y53458D01*
X69649Y53516D01*
X69734Y53566D01*
X69810Y53632D01*
X69826Y53644D01*
X69832Y53652D01*
X69837Y53655D01*
X69841Y53660D01*
X69855Y53672D01*
X70528Y54345D01*
X72395Y55119D01*
X74417Y55119D01*
X76284Y54345D01*
X77713Y52916D01*
X78487Y51049D01*
X78487Y49027D01*
X77713Y47160D01*
X76284Y45731D01*
X74417Y44957D01*
X72395Y44957D01*
X70528Y45731D01*
X68920Y47339D01*
X68871Y47377D01*
X68823Y47427D01*
X68794Y47445D01*
X68769Y47468D01*
X68713Y47499D01*
X68669Y47533D01*
X68613Y47558D01*
X68553Y47595D01*
X68521Y47605D01*
X68491Y47622D01*
X68428Y47638D01*
X68377Y47660D01*
X68318Y47669D01*
X68250Y47691D01*
X68216Y47693D01*
X68183Y47701D01*
X68073Y47708D01*
X68063Y47710D01*
X68057Y47709D01*
X68022Y47711D01*
X62396Y47711D01*
X37220Y72888D01*
X37142Y72948D01*
X37069Y73016D01*
X37016Y73045D01*
X36969Y73083D01*
X36878Y73122D01*
X36791Y73170D01*
X36732Y73185D01*
X36677Y73209D01*
X36579Y73224D01*
X36483Y73249D01*
X36383Y73255D01*
X36363Y73259D01*
X36350Y73258D01*
X36322Y73259D01*
X36116Y73259D01*
X35978Y73242D01*
X35839Y73229D01*
X35820Y73222D01*
X35800Y73219D01*
X35671Y73168D01*
X35540Y73121D01*
X35523Y73110D01*
X35505Y73102D01*
X35392Y73021D01*
X35277Y72943D01*
X35264Y72927D01*
X35247Y72916D01*
X35158Y72808D01*
X35067Y72704D01*
X35057Y72686D01*
X35044Y72671D01*
X34985Y72545D01*
X34922Y72421D01*
X34918Y72401D01*
X34909Y72383D01*
X34883Y72247D01*
X34852Y72111D01*
X34853Y72090D01*
X34849Y72071D01*
X34858Y71932D01*
X34862Y71793D01*
X34868Y71773D01*
X34869Y71753D01*
X34912Y71621D01*
X34950Y71487D01*
X34961Y71470D01*
X34967Y71451D01*
X35041Y71333D01*
X35112Y71213D01*
X35130Y71192D01*
X35137Y71182D01*
X35152Y71168D01*
X35218Y71093D01*
X51309Y55002D01*
X51309Y54954D01*
X51321Y54856D01*
X51324Y54757D01*
X51341Y54699D01*
X51349Y54639D01*
X51385Y54547D01*
X51413Y54452D01*
X51443Y54399D01*
X51466Y54343D01*
X51524Y54263D01*
X51574Y54178D01*
X51640Y54102D01*
X51652Y54086D01*
X51662Y54078D01*
X51680Y54057D01*
X52821Y52916D01*
X53595Y51049D01*
X53595Y49027D01*
X52821Y47160D01*
X51392Y45731D01*
X49525Y44957D01*
X47503Y44957D01*
X45636Y45731D01*
X44207Y47160D01*
X43433Y49027D01*
X43433Y51049D01*
X44258Y53040D01*
X44266Y53068D01*
X44279Y53095D01*
X44308Y53222D01*
X44342Y53347D01*
X44343Y53376D01*
X44349Y53405D01*
X44345Y53535D01*
X44347Y53665D01*
X44340Y53693D01*
X44339Y53723D01*
X44303Y53847D01*
X44273Y53974D01*
X44259Y54000D01*
X44251Y54028D01*
X44185Y54140D01*
X44124Y54255D01*
X44104Y54277D01*
X44089Y54302D01*
X43983Y54423D01*
X27905Y70502D01*
X27826Y70562D01*
X27754Y70630D01*
X27701Y70659D01*
X27653Y70696D01*
X27562Y70736D01*
X27476Y70784D01*
X27417Y70799D01*
X27362Y70823D01*
X27264Y70838D01*
X27168Y70863D01*
X27068Y70869D01*
X27047Y70873D01*
X27035Y70871D01*
X27007Y70873D01*
X25405Y70873D01*
X23538Y71647D01*
X22109Y73076D01*
X21335Y74943D01*
X21335Y76965D01*
X22109Y78832D01*
X23538Y80261D01*
X25405Y81035D01*
X27427Y81035D01*
X29450Y80197D01*
X29465Y80187D01*
X29516Y80169D01*
X29527Y80165D01*
X29539Y80161D01*
X29568Y80152D01*
X29668Y80108D01*
X29718Y80100D01*
X29766Y80084D01*
X29874Y80075D01*
X29982Y80058D01*
X30032Y80062D01*
X30083Y80058D01*
X30190Y80077D01*
X30298Y80087D01*
X30346Y80104D01*
X30396Y80113D01*
X30496Y80158D01*
X30598Y80194D01*
X30640Y80223D01*
X30686Y80243D01*
X30771Y80311D01*
X30861Y80373D01*
X30895Y80411D01*
X30934Y80442D01*
X31000Y80529D01*
X31072Y80611D01*
X31095Y80656D01*
X31126Y80696D01*
X31197Y80841D01*
X31353Y81218D01*
X32782Y82647D01*
X34649Y83421D01*
X36671Y83421D01*
X38538Y82647D01*
X39967Y81218D01*
X40741Y79351D01*
X40741Y77797D01*
X40753Y77699D01*
X40756Y77600D01*
X40773Y77542D01*
X40781Y77481D01*
X40817Y77389D01*
X40845Y77294D01*
X40875Y77242D01*
X40898Y77186D01*
X40956Y77106D01*
X41006Y77020D01*
X41073Y76945D01*
X41085Y76928D01*
X41094Y76921D01*
X41113Y76900D01*
X44743Y73269D01*
X44798Y73226D01*
X44847Y73176D01*
X44923Y73129D01*
X44994Y73074D01*
X45058Y73046D01*
X45118Y73010D01*
X45204Y72983D01*
X45286Y72948D01*
X45355Y72937D01*
X45422Y72916D01*
X45511Y72912D01*
X45600Y72898D01*
X45670Y72904D01*
X45740Y72901D01*
X45827Y72919D01*
X45917Y72928D01*
X45983Y72951D01*
X46051Y72965D01*
X46132Y73005D01*
X46216Y73035D01*
X46274Y73074D01*
X46337Y73105D01*
X46405Y73163D01*
X46479Y73214D01*
X46526Y73266D01*
X46579Y73311D01*
X46630Y73385D01*
X46690Y73452D01*
X46722Y73515D01*
X46762Y73571D01*
X46794Y73655D01*
X46834Y73735D01*
X46850Y73804D01*
X46874Y73869D01*
X46884Y73958D01*
X46904Y74046D01*
X46902Y74116D01*
X46910Y74185D01*
X46897Y74274D01*
X46894Y74364D01*
X46875Y74431D01*
X46865Y74500D01*
X46813Y74652D01*
X46690Y74950D01*
X46690Y76972D01*
X47463Y78839D01*
X48892Y80268D01*
X50760Y81042D01*
X52221Y81042D01*
X52319Y81054D01*
X52418Y81057D01*
X52476Y81074D01*
X52537Y81081D01*
X52629Y81118D01*
X52724Y81145D01*
X52776Y81176D01*
X52832Y81199D01*
X52912Y81257D01*
X52998Y81307D01*
X53073Y81373D01*
X53090Y81385D01*
X53097Y81395D01*
X53119Y81413D01*
X68208Y96502D01*
X68268Y96581D01*
X68336Y96653D01*
X68365Y96706D01*
X68402Y96754D01*
X68442Y96845D01*
X68490Y96931D01*
X68505Y96990D01*
X68529Y97045D01*
X68544Y97143D01*
X68569Y97239D01*
X68575Y97339D01*
X68579Y97360D01*
X68577Y97372D01*
X68579Y97400D01*
X68579Y99994D01*
X68562Y100132D01*
X68549Y100270D01*
X68542Y100289D01*
X68539Y100309D01*
X68488Y100438D01*
X68441Y100569D01*
X68430Y100586D01*
X68422Y100605D01*
X68341Y100717D01*
X68263Y100833D01*
X68247Y100846D01*
X68236Y100862D01*
X68128Y100951D01*
X68024Y101043D01*
X68006Y101052D01*
X67991Y101065D01*
X67865Y101124D01*
X67741Y101188D01*
X67721Y101192D01*
X67703Y101201D01*
X67566Y101227D01*
X67431Y101257D01*
X67410Y101257D01*
X67391Y101260D01*
X67252Y101252D01*
X67113Y101248D01*
X67093Y101242D01*
X67073Y101241D01*
X66941Y101198D01*
X66807Y101159D01*
X66790Y101149D01*
X66771Y101143D01*
X66653Y101068D01*
X66533Y100998D01*
X66512Y100979D01*
X66502Y100973D01*
X66488Y100958D01*
X66413Y100891D01*
X65108Y99587D01*
X63241Y98813D01*
X61219Y98813D01*
X59352Y99587D01*
X57923Y101016D01*
X57149Y102883D01*
X57149Y104905D01*
X57923Y106772D01*
X58909Y107759D01*
X58940Y107798D01*
X58977Y107831D01*
X59037Y107923D01*
X59104Y108010D01*
X59124Y108055D01*
X59151Y108097D01*
X59187Y108201D01*
X59231Y108302D01*
X59238Y108351D01*
X59254Y108398D01*
X59263Y108507D01*
X59280Y108616D01*
X59276Y108665D01*
X59280Y108715D01*
X59261Y108823D01*
X59251Y108932D01*
X59234Y108979D01*
X59225Y109028D01*
X59180Y109128D01*
X59143Y109232D01*
X59115Y109273D01*
X59095Y109318D01*
X59026Y109404D01*
X58964Y109495D01*
X58927Y109528D01*
X58896Y109566D01*
X58808Y109633D01*
X58726Y109705D01*
X58682Y109728D01*
X58642Y109758D01*
X58497Y109829D01*
X58082Y110001D01*
X56653Y111430D01*
X55879Y113297D01*
X55879Y115319D01*
X56653Y117186D01*
X57794Y118327D01*
X57854Y118405D01*
X57922Y118477D01*
X57951Y118530D01*
X57988Y118578D01*
X58028Y118669D01*
X58076Y118756D01*
X58091Y118814D01*
X58115Y118870D01*
X58130Y118968D01*
X58155Y119064D01*
X58161Y119164D01*
X58165Y119184D01*
X58163Y119196D01*
X58165Y119224D01*
X58165Y123198D01*
X58150Y123316D01*
X58143Y123435D01*
X58130Y123473D01*
X58125Y123514D01*
X58082Y123624D01*
X58045Y123737D01*
X58023Y123772D01*
X58008Y123809D01*
X57939Y123905D01*
X57875Y124006D01*
X57845Y124034D01*
X57822Y124067D01*
X57730Y124143D01*
X57643Y124224D01*
X57608Y124244D01*
X57577Y124269D01*
X57469Y124320D01*
X57365Y124378D01*
X57325Y124388D01*
X57289Y124405D01*
X57172Y124427D01*
X57057Y124457D01*
X56997Y124461D01*
X56977Y124465D01*
X56956Y124463D01*
X56902Y124467D01*
X55034Y125241D01*
X53605Y126670D01*
X52831Y128537D01*
X52831Y130559D01*
X53605Y132426D01*
X55034Y133855D01*
X56901Y134629D01*
X58524Y134629D01*
X58622Y134641D01*
X58721Y134644D01*
X58779Y134661D01*
X58839Y134669D01*
X58932Y134705D01*
X59027Y134733D01*
X59079Y134763D01*
X59135Y134786D01*
X59215Y134844D01*
X59301Y134894D01*
X59376Y134960D01*
X59393Y134972D01*
X59400Y134982D01*
X59421Y135000D01*
X65148Y140727D01*
X65209Y140806D01*
X65277Y140878D01*
X65306Y140931D01*
X65343Y140979D01*
X65383Y141070D01*
X65430Y141156D01*
X65446Y141215D01*
X65470Y141270D01*
X65485Y141368D01*
X65510Y141464D01*
X65516Y141564D01*
X65519Y141585D01*
X65518Y141597D01*
X65520Y141625D01*
X65520Y152043D01*
X96983Y183506D01*
X99301Y185824D01*
X99387Y185934D01*
X99475Y186041D01*
X99484Y186059D01*
X99496Y186075D01*
X99552Y186203D01*
X99611Y186328D01*
X99615Y186348D01*
X99623Y186367D01*
X99645Y186505D01*
X99671Y186641D01*
X99669Y186661D01*
X99672Y186681D01*
X99659Y186820D01*
X99651Y186958D01*
X99645Y186977D01*
X99643Y186998D01*
X99595Y187129D01*
X99553Y187261D01*
X99542Y187278D01*
X99535Y187297D01*
X99457Y187412D01*
X99383Y187529D01*
X99368Y187543D01*
X99356Y187560D01*
X99252Y187652D01*
X99151Y187747D01*
X99133Y187757D01*
X99118Y187771D01*
X98994Y187834D01*
X98872Y187901D01*
X98853Y187906D01*
X98835Y187915D01*
X98699Y187946D01*
X98565Y187980D01*
X98536Y187982D01*
X98524Y187985D01*
X98504Y187984D01*
X98404Y187991D01*
X98274Y187991D01*
X98175Y187978D01*
X98076Y187975D01*
X98018Y187958D01*
X97958Y187951D01*
X97866Y187914D01*
X97771Y187887D01*
X97719Y187856D01*
X97662Y187834D01*
X97582Y187776D01*
X97497Y187725D01*
X97421Y187659D01*
X97405Y187647D01*
X97397Y187637D01*
X97376Y187619D01*
X61476Y151719D01*
X44175Y151719D01*
X44076Y151706D01*
X43977Y151703D01*
X43919Y151686D01*
X43859Y151679D01*
X43767Y151642D01*
X43672Y151615D01*
X43620Y151584D01*
X43563Y151562D01*
X43483Y151504D01*
X43398Y151453D01*
X43323Y151387D01*
X43306Y151375D01*
X43298Y151365D01*
X43277Y151347D01*
X30344Y138414D01*
X30284Y138336D01*
X30216Y138264D01*
X30187Y138211D01*
X30150Y138163D01*
X30110Y138072D01*
X30062Y137985D01*
X30047Y137927D01*
X30023Y137871D01*
X30008Y137773D01*
X29983Y137677D01*
X29977Y137577D01*
X29973Y137557D01*
X29975Y137545D01*
X29973Y137517D01*
X29973Y135903D01*
X29199Y134036D01*
X28940Y133777D01*
X28879Y133699D01*
X28811Y133626D01*
X28782Y133573D01*
X28745Y133526D01*
X28706Y133435D01*
X28658Y133348D01*
X28643Y133289D01*
X28619Y133234D01*
X28603Y133136D01*
X28579Y133040D01*
X28572Y132940D01*
X28569Y132920D01*
X28570Y132907D01*
X28568Y132879D01*
X28568Y114025D01*
X28581Y113927D01*
X28584Y113827D01*
X28601Y113769D01*
X28608Y113709D01*
X28645Y113617D01*
X28672Y113522D01*
X28703Y113470D01*
X28725Y113413D01*
X28783Y113333D01*
X28834Y113248D01*
X28900Y113173D01*
X28912Y113156D01*
X28921Y113148D01*
X28940Y113127D01*
X30215Y111852D01*
X30989Y109985D01*
X30989Y107963D01*
X30950Y107869D01*
X30931Y107802D01*
X30903Y107738D01*
X30889Y107649D01*
X30866Y107562D01*
X30865Y107493D01*
X30854Y107424D01*
X30862Y107334D01*
X30861Y107244D01*
X30877Y107176D01*
X30883Y107107D01*
X30914Y107022D01*
X30935Y106935D01*
X30967Y106873D01*
X30991Y106808D01*
X31041Y106733D01*
X31083Y106654D01*
X31130Y106602D01*
X31170Y106545D01*
X31237Y106485D01*
X31297Y106419D01*
X31356Y106380D01*
X31408Y106334D01*
X31488Y106293D01*
X31563Y106244D01*
X31629Y106221D01*
X31691Y106189D01*
X31779Y106170D01*
X31864Y106141D01*
X31934Y106135D01*
X32002Y106120D01*
X32091Y106122D01*
X32181Y106115D01*
X32250Y106127D01*
X32319Y106129D01*
X32406Y106154D01*
X32494Y106170D01*
X32558Y106198D01*
X32625Y106218D01*
X32702Y106263D01*
X32784Y106300D01*
X32839Y106344D01*
X32899Y106379D01*
X33020Y106486D01*
X37982Y111448D01*
X38042Y111526D01*
X38110Y111598D01*
X38139Y111651D01*
X38176Y111699D01*
X38216Y111790D01*
X38264Y111876D01*
X38279Y111935D01*
X38303Y111991D01*
X38318Y112089D01*
X38343Y112184D01*
X38349Y112284D01*
X38353Y112305D01*
X38351Y112317D01*
X38353Y112345D01*
X38353Y132125D01*
X38341Y132223D01*
X38338Y132322D01*
X38321Y132380D01*
X38313Y132440D01*
X38277Y132532D01*
X38249Y132627D01*
X38219Y132680D01*
X38196Y132736D01*
X38138Y132816D01*
X38088Y132901D01*
X38022Y132977D01*
X38010Y132993D01*
X38000Y133001D01*
X37982Y133022D01*
X36841Y134163D01*
X36067Y136030D01*
X36067Y138052D01*
X36841Y139919D01*
X38270Y141348D01*
X40137Y142122D01*
X42159Y142122D01*
X44026Y141348D01*
X45455Y139919D01*
X46229Y138052D01*
X46229Y136030D01*
X45455Y134163D01*
X44314Y133022D01*
X44254Y132944D01*
X44186Y132872D01*
X44157Y132819D01*
X44120Y132771D01*
X44080Y132680D01*
X44032Y132593D01*
X44017Y132535D01*
X43993Y132479D01*
X43978Y132381D01*
X43953Y132285D01*
X43947Y132185D01*
X43943Y132165D01*
X43945Y132153D01*
X43943Y132125D01*
X43943Y109504D01*
X41934Y107495D01*
X28149Y93710D01*
X26140Y91701D01*
X16106Y91701D01*
X15629Y92178D01*
X15550Y92239D01*
X15478Y92307D01*
X15425Y92336D01*
X15377Y92373D01*
X15286Y92413D01*
X15200Y92460D01*
X15141Y92476D01*
X15086Y92500D01*
X14988Y92515D01*
X14892Y92540D01*
X14792Y92546D01*
X14771Y92550D01*
X14759Y92548D01*
X14731Y92550D01*
X13118Y92550D01*
X11251Y93324D01*
X10986Y93588D01*
X10896Y93658D01*
X10868Y93684D01*
X10853Y93693D01*
X10769Y93762D01*
X10751Y93771D01*
X10735Y93783D01*
X10607Y93838D01*
X10481Y93897D01*
X10462Y93901D01*
X10443Y93909D01*
X10305Y93931D01*
X10169Y93957D01*
X10149Y93956D01*
X10129Y93959D01*
X9990Y93946D01*
X9852Y93937D01*
X9832Y93931D01*
X9812Y93929D01*
X9681Y93882D01*
X9549Y93839D01*
X9532Y93829D01*
X9513Y93822D01*
X9398Y93744D01*
X9280Y93669D01*
X9267Y93655D01*
X9250Y93643D01*
X9158Y93539D01*
X9063Y93438D01*
X9053Y93420D01*
X9039Y93405D01*
X8976Y93281D01*
X8909Y93159D01*
X8904Y93140D01*
X8895Y93122D01*
X8864Y92985D01*
X8830Y92851D01*
X8828Y92823D01*
X8825Y92811D01*
X8826Y92791D01*
X8823Y92743D01*
X8822Y92739D01*
X8822Y92735D01*
X8819Y92691D01*
X8819Y67912D01*
X8832Y67809D01*
X8837Y67704D01*
X8852Y67652D01*
X8859Y67597D01*
X8898Y67500D01*
X8928Y67400D01*
X8956Y67352D01*
X8976Y67301D01*
X9038Y67217D01*
X9091Y67127D01*
X9131Y67088D01*
X9163Y67044D01*
X9244Y66977D01*
X9318Y66904D01*
X9366Y66876D01*
X9408Y66841D01*
X9502Y66797D01*
X9593Y66744D01*
X9646Y66729D01*
X9696Y66706D01*
X9798Y66686D01*
X9899Y66657D01*
X9954Y66656D01*
X10008Y66646D01*
X10112Y66652D01*
X10217Y66650D01*
X10271Y66662D01*
X10326Y66665D01*
X10425Y66698D01*
X10527Y66721D01*
X10576Y66747D01*
X10628Y66764D01*
X10716Y66819D01*
X10809Y66868D01*
X10850Y66904D01*
X10897Y66934D01*
X10968Y67010D01*
X11046Y67079D01*
X11100Y67149D01*
X11115Y67165D01*
X11122Y67178D01*
X11144Y67207D01*
X11289Y67425D01*
X12449Y68585D01*
X13814Y69497D01*
X15330Y70125D01*
X16136Y70285D01*
X16136Y62469D01*
X16151Y62351D01*
X16158Y62232D01*
X16170Y62194D01*
X16176Y62154D01*
X16191Y62115D01*
X16176Y62035D01*
X16146Y61919D01*
X16142Y61859D01*
X16138Y61839D01*
X16140Y61819D01*
X16136Y61759D01*
X16136Y53943D01*
X15330Y54103D01*
X14197Y54573D01*
X14130Y54591D01*
X14066Y54619D01*
X13977Y54633D01*
X13890Y54657D01*
X13820Y54658D01*
X13751Y54669D01*
X13662Y54660D01*
X13572Y54662D01*
X13504Y54646D01*
X13435Y54639D01*
X13350Y54609D01*
X13263Y54588D01*
X13201Y54555D01*
X13136Y54531D01*
X13061Y54481D01*
X12982Y54439D01*
X12930Y54392D01*
X12872Y54353D01*
X12813Y54285D01*
X12746Y54225D01*
X12708Y54167D01*
X12662Y54114D01*
X12621Y54034D01*
X12572Y53959D01*
X12549Y53893D01*
X12517Y53831D01*
X12498Y53743D01*
X12468Y53659D01*
X12463Y53589D01*
X12448Y53521D01*
X12450Y53431D01*
X12443Y53342D01*
X12455Y53273D01*
X12457Y53203D01*
X12482Y53117D01*
X12498Y53028D01*
X12526Y52965D01*
X12546Y52897D01*
X12591Y52820D01*
X12628Y52738D01*
X12672Y52684D01*
X12707Y52624D01*
X12814Y52503D01*
X23240Y42076D01*
X23318Y42016D01*
X23390Y41948D01*
X23443Y41919D01*
X23491Y41882D01*
X23582Y41842D01*
X23669Y41794D01*
X23727Y41779D01*
X23783Y41755D01*
X23881Y41740D01*
X23977Y41715D01*
X24077Y41709D01*
X24097Y41705D01*
X24109Y41707D01*
X24137Y41705D01*
X137580Y41705D01*
X137678Y41717D01*
X137777Y41720D01*
X137835Y41737D01*
X137895Y41745D01*
X137987Y41781D01*
X138082Y41809D01*
X138135Y41839D01*
X138191Y41862D01*
X138271Y41920D01*
X138356Y41970D01*
X138432Y42036D01*
X138448Y42048D01*
X138456Y42058D01*
X138477Y42076D01*
X139618Y43217D01*
X141485Y43991D01*
X143507Y43991D01*
X145360Y43223D01*
X145408Y43210D01*
X145453Y43189D01*
X145561Y43168D01*
X145667Y43139D01*
X145717Y43138D01*
X145766Y43129D01*
X145875Y43136D01*
X145985Y43134D01*
X146033Y43146D01*
X146083Y43149D01*
X146187Y43182D01*
X146294Y43208D01*
X146338Y43231D01*
X146385Y43247D01*
X146478Y43305D01*
X146575Y43357D01*
X146612Y43390D01*
X146654Y43417D01*
X146729Y43497D01*
X146811Y43571D01*
X146838Y43612D01*
X146872Y43648D01*
X146925Y43745D01*
X146985Y43836D01*
X147002Y43883D01*
X147026Y43927D01*
X147053Y44033D01*
X147089Y44137D01*
X147093Y44187D01*
X147105Y44235D01*
X147112Y44342D01*
X147113Y44346D01*
X147112Y44351D01*
X147115Y44396D01*
X147115Y57771D01*
X147103Y57869D01*
X147100Y57968D01*
X147083Y58026D01*
X147075Y58086D01*
X147039Y58178D01*
X147011Y58273D01*
X146981Y58326D01*
X146958Y58382D01*
X146900Y58462D01*
X146850Y58547D01*
X146784Y58622D01*
X146772Y58639D01*
X146762Y58647D01*
X146743Y58668D01*
X145473Y59938D01*
X145395Y59999D01*
X145323Y60067D01*
X145270Y60096D01*
X145222Y60133D01*
X145131Y60173D01*
X145044Y60220D01*
X144986Y60236D01*
X144930Y60260D01*
X144832Y60275D01*
X144736Y60300D01*
X144636Y60306D01*
X144616Y60310D01*
X144604Y60308D01*
X144576Y60310D01*
X139297Y60310D01*
X139198Y60298D01*
X139099Y60295D01*
X139041Y60278D01*
X138981Y60270D01*
X138889Y60234D01*
X138794Y60206D01*
X138742Y60176D01*
X138685Y60153D01*
X138605Y60095D01*
X138520Y60045D01*
X138445Y59978D01*
X138428Y59966D01*
X138420Y59957D01*
X138399Y59938D01*
X137258Y58798D01*
X135391Y58024D01*
X133370Y58024D01*
X131502Y58798D01*
X130073Y60227D01*
X129300Y62094D01*
X129300Y63816D01*
X129287Y63914D01*
X129284Y64013D01*
X129267Y64071D01*
X129260Y64131D01*
X129223Y64223D01*
X129196Y64319D01*
X129165Y64371D01*
X129143Y64427D01*
X129085Y64507D01*
X129034Y64592D01*
X128968Y64668D01*
X128956Y64684D01*
X128946Y64692D01*
X128928Y64713D01*
X121066Y72575D01*
X121066Y85952D01*
X121054Y86050D01*
X121051Y86150D01*
X121034Y86208D01*
X121026Y86268D01*
X120990Y86360D01*
X120962Y86455D01*
X120931Y86507D01*
X120909Y86564D01*
X120851Y86644D01*
X120801Y86729D01*
X120734Y86804D01*
X120722Y86821D01*
X120713Y86829D01*
X120694Y86850D01*
X119970Y87574D01*
X119197Y89441D01*
X119197Y91462D01*
X119970Y93330D01*
X121400Y94759D01*
X123267Y95532D01*
X125288Y95532D01*
X127156Y94759D01*
X128585Y93330D01*
X129358Y91462D01*
X129358Y89441D01*
X128585Y87574D01*
X127027Y86016D01*
X126967Y85938D01*
X126899Y85866D01*
X126869Y85813D01*
X126832Y85765D01*
X126793Y85674D01*
X126745Y85587D01*
X126730Y85529D01*
X126706Y85473D01*
X126690Y85375D01*
X126666Y85279D01*
X126659Y85179D01*
X126656Y85159D01*
X126657Y85147D01*
X126656Y85119D01*
X126656Y75416D01*
X126668Y75318D01*
X126671Y75219D01*
X126688Y75161D01*
X126695Y75101D01*
X126732Y75008D01*
X126759Y74913D01*
X126790Y74861D01*
X126812Y74805D01*
X126871Y74725D01*
X126921Y74639D01*
X126987Y74564D01*
X126999Y74548D01*
X127009Y74540D01*
X127027Y74519D01*
X132988Y68557D01*
X133067Y68497D01*
X133139Y68429D01*
X133192Y68400D01*
X133240Y68362D01*
X133331Y68323D01*
X133417Y68275D01*
X133476Y68260D01*
X133532Y68236D01*
X133630Y68221D01*
X133725Y68196D01*
X133825Y68189D01*
X133846Y68186D01*
X133858Y68187D01*
X133886Y68186D01*
X135391Y68186D01*
X137258Y67412D01*
X138399Y66271D01*
X138477Y66211D01*
X138549Y66143D01*
X138602Y66114D01*
X138650Y66076D01*
X138741Y66037D01*
X138828Y65989D01*
X138887Y65974D01*
X138942Y65950D01*
X139040Y65935D01*
X139136Y65910D01*
X139236Y65903D01*
X139256Y65900D01*
X139269Y65901D01*
X139297Y65900D01*
X147417Y65900D01*
X150696Y62620D01*
X152705Y60611D01*
X152705Y36624D01*
X152720Y36506D01*
X152727Y36387D01*
X152740Y36349D01*
X152745Y36308D01*
X152788Y36198D01*
X152825Y36085D01*
X152847Y36050D01*
X152862Y36013D01*
X152931Y35917D01*
X152995Y35816D01*
X153025Y35788D01*
X153048Y35755D01*
X153140Y35679D01*
X153227Y35598D01*
X153262Y35578D01*
X153293Y35553D01*
X153401Y35502D01*
X153505Y35444D01*
X153545Y35434D01*
X153581Y35417D01*
X153698Y35395D01*
X153813Y35365D01*
X153873Y35361D01*
X153893Y35357D01*
X153914Y35359D01*
X153974Y35355D01*
X162012Y35355D01*
X162110Y35367D01*
X162209Y35370D01*
X162267Y35387D01*
X162327Y35395D01*
X162419Y35431D01*
X162514Y35459D01*
X162567Y35489D01*
X162623Y35512D01*
X162703Y35570D01*
X162788Y35620D01*
X162864Y35686D01*
X162880Y35698D01*
X162888Y35708D01*
X162909Y35726D01*
X163654Y36472D01*
X163715Y36550D01*
X163783Y36622D01*
X163812Y36675D01*
X163849Y36723D01*
X163889Y36814D01*
X163936Y36900D01*
X163952Y36959D01*
X163976Y37015D01*
X163991Y37113D01*
X164016Y37208D01*
X164022Y37308D01*
X164025Y37329D01*
X164024Y37341D01*
X164026Y37369D01*
X164026Y57614D01*
X182186Y75775D01*
X182247Y75853D01*
X182315Y75925D01*
X182344Y75978D01*
X182381Y76026D01*
X182421Y76117D01*
X182469Y76203D01*
X182484Y76262D01*
X182508Y76318D01*
X182523Y76416D01*
X182548Y76511D01*
X182554Y76611D01*
X182558Y76632D01*
X182556Y76644D01*
X182558Y76672D01*
X182558Y77682D01*
X182546Y77780D01*
X182543Y77879D01*
X182526Y77937D01*
X182518Y77997D01*
X182482Y78089D01*
X182454Y78185D01*
X182424Y78237D01*
X182401Y78293D01*
X182343Y78373D01*
X182293Y78458D01*
X182227Y78534D01*
X182214Y78550D01*
X182205Y78558D01*
X182186Y78579D01*
X181046Y79720D01*
X180272Y81587D01*
X180272Y83609D01*
X181046Y85476D01*
X182475Y86905D01*
X184342Y87679D01*
X186364Y87679D01*
X188231Y86905D01*
X189660Y85476D01*
X190434Y83609D01*
X190434Y81587D01*
X189660Y79720D01*
X188519Y78579D01*
X188459Y78501D01*
X188391Y78429D01*
X188362Y78376D01*
X188325Y78328D01*
X188285Y78237D01*
X188237Y78150D01*
X188222Y78092D01*
X188198Y78036D01*
X188183Y77938D01*
X188158Y77842D01*
X188152Y77742D01*
X188148Y77722D01*
X188149Y77710D01*
X188148Y77682D01*
X188148Y73831D01*
X169987Y55671D01*
X169927Y55592D01*
X169859Y55520D01*
X169830Y55467D01*
X169792Y55419D01*
X169753Y55328D01*
X169705Y55242D01*
X169690Y55183D01*
X169666Y55128D01*
X169651Y55030D01*
X169626Y54934D01*
X169619Y54834D01*
X169616Y54814D01*
X169617Y54801D01*
X169616Y54773D01*
X169616Y37583D01*
X169628Y37485D01*
X169631Y37386D01*
X169648Y37328D01*
X169655Y37268D01*
X169692Y37176D01*
X169719Y37081D01*
X169750Y37029D01*
X169772Y36972D01*
X169831Y36892D01*
X169881Y36807D01*
X169947Y36731D01*
X169959Y36715D01*
X169969Y36707D01*
X169987Y36686D01*
X171235Y35438D01*
X172009Y33571D01*
X172009Y31549D01*
X171235Y29682D01*
X169806Y28253D01*
X167939Y27479D01*
X165917Y27479D01*
X164050Y28253D01*
X162909Y29394D01*
X162831Y29454D01*
X162759Y29522D01*
X162706Y29551D01*
X162658Y29588D01*
X162567Y29628D01*
X162480Y29676D01*
X162422Y29691D01*
X162366Y29715D01*
X162268Y29730D01*
X162172Y29755D01*
X162072Y29761D01*
X162052Y29765D01*
X162040Y29763D01*
X162012Y29765D01*
X156454Y29765D01*
X156356Y29753D01*
X156257Y29750D01*
X156199Y29733D01*
X156139Y29725D01*
X156047Y29689D01*
X155952Y29661D01*
X155899Y29631D01*
X155843Y29608D01*
X155763Y29550D01*
X155678Y29500D01*
X155602Y29434D01*
X155586Y29422D01*
X155578Y29412D01*
X155557Y29394D01*
X155253Y29090D01*
X155192Y29011D01*
X155124Y28939D01*
X155095Y28886D01*
X155058Y28838D01*
X155019Y28747D01*
X154971Y28661D01*
X154956Y28602D01*
X154932Y28547D01*
X154916Y28449D01*
X154891Y28353D01*
X154885Y28253D01*
X154882Y28232D01*
X154883Y28220D01*
X154881Y28192D01*
X154881Y26579D01*
X154108Y24712D01*
X152678Y23282D01*
X150811Y22509D01*
X148790Y22509D01*
X146923Y23282D01*
X145493Y24712D01*
X144720Y26579D01*
X144720Y28600D01*
X145493Y30467D01*
X145874Y30848D01*
X145947Y30943D01*
X146026Y31032D01*
X146044Y31068D01*
X146069Y31100D01*
X146116Y31209D01*
X146171Y31315D01*
X146179Y31354D01*
X146196Y31392D01*
X146214Y31509D01*
X146240Y31625D01*
X146239Y31666D01*
X146245Y31706D01*
X146234Y31824D01*
X146231Y31943D01*
X146219Y31982D01*
X146216Y32022D01*
X146175Y32134D01*
X146142Y32249D01*
X146122Y32284D01*
X146108Y32322D01*
X146041Y32420D01*
X145981Y32523D01*
X145941Y32568D01*
X145929Y32585D01*
X145914Y32598D01*
X145874Y32643D01*
X144942Y33576D01*
X144919Y33594D01*
X144899Y33616D01*
X144793Y33691D01*
X144691Y33771D01*
X144663Y33782D01*
X144639Y33799D01*
X144518Y33845D01*
X144399Y33897D01*
X144370Y33902D01*
X144342Y33912D01*
X144213Y33926D01*
X144085Y33947D01*
X144055Y33944D01*
X144026Y33947D01*
X143898Y33929D01*
X143768Y33917D01*
X143740Y33907D01*
X143711Y33903D01*
X143559Y33851D01*
X143507Y33829D01*
X141485Y33829D01*
X139618Y34603D01*
X138477Y35744D01*
X138399Y35804D01*
X138327Y35872D01*
X138274Y35901D01*
X138226Y35938D01*
X138135Y35978D01*
X138048Y36026D01*
X137990Y36041D01*
X137934Y36065D01*
X137836Y36080D01*
X137740Y36105D01*
X137640Y36111D01*
X137620Y36115D01*
X137608Y36113D01*
X137580Y36115D01*
X21296Y36115D01*
X17628Y39784D01*
X17588Y39814D01*
X17555Y39851D01*
X17463Y39912D01*
X17376Y39979D01*
X17331Y39999D01*
X17289Y40026D01*
X17185Y40062D01*
X17084Y40105D01*
X17035Y40113D01*
X16988Y40129D01*
X16879Y40138D01*
X16770Y40155D01*
X16721Y40150D01*
X16671Y40154D01*
X16563Y40136D01*
X16454Y40125D01*
X16407Y40109D01*
X16358Y40100D01*
X16258Y40055D01*
X16154Y40018D01*
X16113Y39990D01*
X16068Y39969D01*
X15982Y39901D01*
X15891Y39839D01*
X15859Y39802D01*
X15820Y39771D01*
X15753Y39683D01*
X15681Y39601D01*
X15658Y39556D01*
X15628Y39517D01*
X15557Y39372D01*
X15218Y38553D01*
X13789Y37124D01*
X11930Y36354D01*
X11904Y36339D01*
X11876Y36330D01*
X11766Y36261D01*
X11653Y36196D01*
X11632Y36176D01*
X11607Y36160D01*
X11518Y36065D01*
X11425Y35975D01*
X11410Y35950D01*
X11389Y35928D01*
X11327Y35815D01*
X11259Y35704D01*
X11250Y35676D01*
X11236Y35650D01*
X11203Y35524D01*
X11165Y35400D01*
X11164Y35371D01*
X11156Y35342D01*
X11146Y35181D01*
X11146Y31839D01*
X11148Y31824D01*
X11147Y31809D01*
X11168Y31666D01*
X11186Y31523D01*
X11191Y31509D01*
X11194Y31495D01*
X11250Y31361D01*
X11303Y31227D01*
X11312Y31216D01*
X11318Y31202D01*
X11405Y31087D01*
X11490Y30970D01*
X11501Y30961D01*
X11510Y30949D01*
X11623Y30860D01*
X11735Y30767D01*
X11748Y30761D01*
X11760Y30752D01*
X11892Y30693D01*
X12023Y30632D01*
X12037Y30629D01*
X12051Y30623D01*
X12193Y30599D01*
X12335Y30572D01*
X12350Y30573D01*
X12364Y30570D01*
X12509Y30583D01*
X12652Y30592D01*
X12666Y30596D01*
X12681Y30598D01*
X12818Y30645D01*
X12955Y30690D01*
X12967Y30698D01*
X12981Y30703D01*
X13121Y30783D01*
X13814Y31247D01*
X15330Y31875D01*
X16136Y32035D01*
X16136Y24219D01*
X16151Y24101D01*
X16158Y23982D01*
X16170Y23944D01*
X16176Y23904D01*
X16191Y23865D01*
X16176Y23785D01*
X16146Y23669D01*
X16142Y23609D01*
X16138Y23589D01*
X16140Y23569D01*
X16136Y23509D01*
X16136Y15693D01*
X15330Y15853D01*
X13814Y16481D01*
X13121Y16945D01*
X13107Y16951D01*
X13096Y16961D01*
X12966Y17022D01*
X12836Y17087D01*
X12822Y17090D01*
X12808Y17096D01*
X12667Y17123D01*
X12525Y17154D01*
X12510Y17153D01*
X12496Y17156D01*
X12352Y17147D01*
X12207Y17141D01*
X12193Y17137D01*
X12179Y17136D01*
X12042Y17092D01*
X11903Y17050D01*
X11890Y17043D01*
X11876Y17038D01*
X11754Y16961D01*
X11630Y16887D01*
X11620Y16876D01*
X11607Y16868D01*
X11508Y16763D01*
X11407Y16660D01*
X11399Y16647D01*
X11389Y16636D01*
X11320Y16510D01*
X11247Y16385D01*
X11243Y16371D01*
X11236Y16358D01*
X11200Y16218D01*
X11160Y16079D01*
X11160Y16064D01*
X11156Y16050D01*
X11146Y15889D01*
X11146Y11239D01*
X11159Y11141D01*
X11162Y11042D01*
X11178Y10984D01*
X11186Y10924D01*
X11222Y10832D01*
X11250Y10737D01*
X11281Y10684D01*
X11303Y10628D01*
X11361Y10548D01*
X11412Y10463D01*
X11478Y10387D01*
X11490Y10371D01*
X11499Y10363D01*
X11518Y10342D01*
X13613Y8246D01*
X13692Y8186D01*
X13764Y8118D01*
X13817Y8089D01*
X13865Y8052D01*
X13955Y8012D01*
X14042Y7964D01*
X14101Y7949D01*
X14156Y7925D01*
X14254Y7910D01*
X14350Y7885D01*
X14450Y7879D01*
X14470Y7875D01*
X14483Y7877D01*
X14511Y7875D01*
X210467Y7875D01*
X210496Y7878D01*
G37*
G36*
X57050Y161384D02*
X57050Y161384D01*
X57149Y161387D01*
X57207Y161404D01*
X57267Y161412D01*
X57359Y161448D01*
X57454Y161476D01*
X57506Y161507D01*
X57563Y161529D01*
X57643Y161587D01*
X57728Y161637D01*
X57804Y161704D01*
X57820Y161716D01*
X57828Y161725D01*
X57849Y161744D01*
X100727Y204622D01*
X124832Y204622D01*
X124969Y204639D01*
X125108Y204652D01*
X125127Y204659D01*
X125147Y204661D01*
X125276Y204713D01*
X125407Y204760D01*
X125424Y204771D01*
X125443Y204779D01*
X125555Y204860D01*
X125671Y204938D01*
X125684Y204954D01*
X125700Y204965D01*
X125789Y205072D01*
X125881Y205177D01*
X125890Y205195D01*
X125903Y205210D01*
X125962Y205336D01*
X126026Y205460D01*
X126030Y205480D01*
X126039Y205498D01*
X126065Y205634D01*
X126095Y205770D01*
X126095Y205791D01*
X126098Y205810D01*
X126090Y205949D01*
X126086Y206088D01*
X126080Y206108D01*
X126079Y206128D01*
X126036Y206260D01*
X125997Y206394D01*
X125987Y206411D01*
X125981Y206430D01*
X125906Y206548D01*
X125836Y206668D01*
X125817Y206689D01*
X125810Y206699D01*
X125796Y206713D01*
X125729Y206788D01*
X106022Y226496D01*
X105943Y226557D01*
X105871Y226624D01*
X105818Y226654D01*
X105770Y226691D01*
X105679Y226730D01*
X105593Y226778D01*
X105534Y226793D01*
X105479Y226817D01*
X105381Y226833D01*
X105285Y226857D01*
X105185Y226864D01*
X105165Y226867D01*
X105152Y226866D01*
X105124Y226868D01*
X103511Y226868D01*
X101644Y227641D01*
X100214Y229070D01*
X99848Y229956D01*
X99823Y229999D01*
X99806Y230046D01*
X99744Y230137D01*
X99690Y230232D01*
X99655Y230268D01*
X99628Y230309D01*
X99545Y230382D01*
X99469Y230461D01*
X99426Y230487D01*
X99389Y230520D01*
X99291Y230569D01*
X99198Y230627D01*
X99150Y230642D01*
X99106Y230664D01*
X98999Y230688D01*
X98894Y230721D01*
X98844Y230723D01*
X98796Y230734D01*
X98686Y230730D01*
X98576Y230736D01*
X98527Y230726D01*
X98478Y230724D01*
X98372Y230694D01*
X98265Y230671D01*
X98220Y230650D01*
X98172Y230636D01*
X98078Y230580D01*
X97979Y230532D01*
X97941Y230499D01*
X97898Y230474D01*
X97777Y230368D01*
X36073Y168663D01*
X26500Y168663D01*
X26451Y168657D01*
X26401Y168659D01*
X26294Y168637D01*
X26185Y168623D01*
X26138Y168605D01*
X26090Y168595D01*
X25991Y168547D01*
X25889Y168506D01*
X25849Y168477D01*
X25804Y168455D01*
X25721Y168384D01*
X25632Y168320D01*
X25600Y168281D01*
X25562Y168249D01*
X25499Y168159D01*
X25429Y168075D01*
X25408Y168030D01*
X25379Y167989D01*
X25340Y167886D01*
X25293Y167787D01*
X25284Y167738D01*
X25266Y167692D01*
X25254Y167582D01*
X25234Y167475D01*
X25237Y167425D01*
X25231Y167376D01*
X25247Y167267D01*
X25253Y167157D01*
X25269Y167110D01*
X25276Y167061D01*
X25328Y166908D01*
X25655Y166119D01*
X25655Y164622D01*
X25667Y164524D01*
X25670Y164424D01*
X25687Y164366D01*
X25695Y164306D01*
X25731Y164214D01*
X25759Y164119D01*
X25789Y164067D01*
X25812Y164010D01*
X25870Y163930D01*
X25920Y163845D01*
X25986Y163770D01*
X25998Y163753D01*
X26008Y163745D01*
X26026Y163724D01*
X28007Y161744D01*
X28085Y161683D01*
X28157Y161615D01*
X28210Y161586D01*
X28258Y161549D01*
X28349Y161509D01*
X28436Y161462D01*
X28494Y161447D01*
X28550Y161422D01*
X28648Y161407D01*
X28744Y161382D01*
X28844Y161376D01*
X28864Y161373D01*
X28876Y161374D01*
X28904Y161372D01*
X56952Y161372D01*
X57050Y161384D01*
G37*
G36*
X218382Y20050D02*
X218382Y20050D01*
X218432Y20046D01*
X218540Y20065D01*
X218649Y20075D01*
X218696Y20092D01*
X218745Y20100D01*
X218845Y20146D01*
X218949Y20183D01*
X218990Y20211D01*
X219035Y20231D01*
X219121Y20300D01*
X219212Y20361D01*
X219245Y20399D01*
X219283Y20430D01*
X219350Y20517D01*
X219422Y20600D01*
X219445Y20644D01*
X219475Y20684D01*
X219546Y20828D01*
X219873Y21618D01*
X221302Y23047D01*
X223169Y23821D01*
X224783Y23821D01*
X224881Y23833D01*
X224980Y23836D01*
X225038Y23853D01*
X225098Y23861D01*
X225190Y23897D01*
X225285Y23925D01*
X225338Y23955D01*
X225394Y23978D01*
X225474Y24036D01*
X225559Y24086D01*
X225635Y24152D01*
X225651Y24164D01*
X225659Y24174D01*
X225680Y24192D01*
X241946Y40458D01*
X242006Y40536D01*
X242074Y40608D01*
X242103Y40661D01*
X242141Y40709D01*
X242180Y40800D01*
X242228Y40887D01*
X242243Y40945D01*
X242267Y41001D01*
X242282Y41099D01*
X242307Y41195D01*
X242313Y41295D01*
X242317Y41315D01*
X242316Y41327D01*
X242317Y41355D01*
X242317Y100592D01*
X242305Y100690D01*
X242302Y100789D01*
X242285Y100847D01*
X242277Y100907D01*
X242241Y100999D01*
X242214Y101094D01*
X242183Y101147D01*
X242160Y101203D01*
X242102Y101283D01*
X242052Y101368D01*
X241986Y101444D01*
X241974Y101460D01*
X241964Y101468D01*
X241946Y101489D01*
X240993Y102442D01*
X240219Y104309D01*
X240219Y106331D01*
X240456Y106902D01*
X240474Y106969D01*
X240502Y107034D01*
X240516Y107122D01*
X240540Y107209D01*
X240541Y107279D01*
X240552Y107348D01*
X240544Y107437D01*
X240545Y107527D01*
X240529Y107595D01*
X240522Y107664D01*
X240492Y107749D01*
X240471Y107836D01*
X240438Y107898D01*
X240415Y107964D01*
X240364Y108038D01*
X240322Y108117D01*
X240275Y108169D01*
X240236Y108227D01*
X240169Y108286D01*
X240108Y108353D01*
X240050Y108391D01*
X239998Y108437D01*
X239918Y108478D01*
X239843Y108527D01*
X239777Y108550D01*
X239714Y108582D01*
X239627Y108601D01*
X239542Y108631D01*
X239472Y108636D01*
X239404Y108651D01*
X239314Y108649D01*
X239225Y108656D01*
X239156Y108644D01*
X239086Y108642D01*
X239000Y108617D01*
X238911Y108601D01*
X238848Y108573D01*
X238781Y108553D01*
X238703Y108508D01*
X238621Y108471D01*
X238567Y108427D01*
X238507Y108392D01*
X238386Y108285D01*
X222070Y91970D01*
X222010Y91892D01*
X221942Y91820D01*
X221913Y91767D01*
X221876Y91719D01*
X221836Y91628D01*
X221788Y91541D01*
X221773Y91483D01*
X221749Y91427D01*
X221734Y91329D01*
X221709Y91233D01*
X221703Y91133D01*
X221699Y91113D01*
X221701Y91100D01*
X221699Y91072D01*
X221699Y89332D01*
X220925Y87465D01*
X219496Y86036D01*
X217629Y85262D01*
X215607Y85262D01*
X214818Y85589D01*
X214770Y85603D01*
X214725Y85624D01*
X214617Y85644D01*
X214511Y85673D01*
X214461Y85674D01*
X214412Y85683D01*
X214303Y85677D01*
X214193Y85678D01*
X214145Y85667D01*
X214095Y85664D01*
X213991Y85630D01*
X213884Y85604D01*
X213840Y85581D01*
X213793Y85566D01*
X213700Y85507D01*
X213603Y85455D01*
X213566Y85422D01*
X213524Y85395D01*
X213449Y85315D01*
X213367Y85242D01*
X213340Y85200D01*
X213306Y85164D01*
X213253Y85068D01*
X213193Y84976D01*
X213176Y84929D01*
X213152Y84885D01*
X213125Y84779D01*
X213089Y84675D01*
X213085Y84625D01*
X213073Y84577D01*
X213063Y84417D01*
X213063Y25355D01*
X213075Y25257D01*
X213078Y25158D01*
X213095Y25100D01*
X213103Y25040D01*
X213139Y24947D01*
X213167Y24852D01*
X213197Y24800D01*
X213220Y24744D01*
X213278Y24664D01*
X213328Y24578D01*
X213394Y24503D01*
X213406Y24486D01*
X213416Y24479D01*
X213434Y24458D01*
X217476Y20416D01*
X217515Y20386D01*
X217548Y20349D01*
X217640Y20289D01*
X217727Y20222D01*
X217772Y20202D01*
X217814Y20175D01*
X217918Y20139D01*
X218019Y20095D01*
X218068Y20087D01*
X218115Y20071D01*
X218224Y20063D01*
X218333Y20045D01*
X218382Y20050D01*
G37*
G36*
X85034Y226008D02*
X85034Y226008D01*
X85174Y226013D01*
X85193Y226018D01*
X85213Y226020D01*
X85345Y226062D01*
X85479Y226101D01*
X85497Y226111D01*
X85516Y226118D01*
X85633Y226192D01*
X85753Y226263D01*
X85774Y226281D01*
X85785Y226288D01*
X85799Y226303D01*
X85874Y226369D01*
X104971Y245466D01*
X159480Y245466D01*
X159578Y245479D01*
X159677Y245482D01*
X159735Y245498D01*
X159795Y245506D01*
X159887Y245542D01*
X159982Y245570D01*
X160035Y245601D01*
X160091Y245623D01*
X160171Y245681D01*
X160256Y245732D01*
X160332Y245798D01*
X160348Y245810D01*
X160356Y245819D01*
X160377Y245838D01*
X161518Y246979D01*
X162346Y247322D01*
X162390Y247346D01*
X162436Y247363D01*
X162527Y247425D01*
X162623Y247479D01*
X162658Y247514D01*
X162699Y247542D01*
X162772Y247624D01*
X162851Y247701D01*
X162877Y247743D01*
X162910Y247780D01*
X162960Y247878D01*
X163017Y247972D01*
X163032Y248019D01*
X163055Y248064D01*
X163079Y248171D01*
X163111Y248276D01*
X163113Y248325D01*
X163124Y248374D01*
X163121Y248484D01*
X163126Y248593D01*
X163116Y248642D01*
X163115Y248692D01*
X163084Y248797D01*
X163062Y248905D01*
X163040Y248950D01*
X163026Y248997D01*
X162970Y249092D01*
X162922Y249191D01*
X162890Y249228D01*
X162865Y249271D01*
X162758Y249392D01*
X156418Y255732D01*
X156340Y255793D01*
X156268Y255861D01*
X156215Y255890D01*
X156167Y255927D01*
X156076Y255966D01*
X155989Y256014D01*
X155931Y256029D01*
X155875Y256053D01*
X155777Y256069D01*
X155681Y256094D01*
X155581Y256100D01*
X155561Y256103D01*
X155549Y256102D01*
X155521Y256104D01*
X153866Y256104D01*
X151999Y256877D01*
X150570Y258306D01*
X149796Y260174D01*
X149796Y262195D01*
X150345Y263520D01*
X150358Y263568D01*
X150379Y263613D01*
X150400Y263721D01*
X150429Y263827D01*
X150430Y263876D01*
X150439Y263925D01*
X150432Y264035D01*
X150434Y264145D01*
X150422Y264193D01*
X150419Y264242D01*
X150385Y264347D01*
X150360Y264454D01*
X150336Y264498D01*
X150321Y264545D01*
X150262Y264638D01*
X150211Y264735D01*
X150178Y264772D01*
X150151Y264814D01*
X150071Y264889D01*
X149997Y264970D01*
X149955Y264998D01*
X149919Y265032D01*
X149823Y265085D01*
X149731Y265145D01*
X149684Y265161D01*
X149641Y265185D01*
X149535Y265213D01*
X149431Y265248D01*
X149381Y265252D01*
X149333Y265265D01*
X149172Y265275D01*
X107383Y265275D01*
X107285Y265262D01*
X107186Y265259D01*
X107128Y265243D01*
X107068Y265235D01*
X106976Y265199D01*
X106881Y265171D01*
X106828Y265140D01*
X106772Y265118D01*
X106692Y265060D01*
X106607Y265009D01*
X106531Y264943D01*
X106515Y264931D01*
X106507Y264922D01*
X106486Y264903D01*
X77279Y235696D01*
X77193Y235586D01*
X77105Y235479D01*
X77096Y235461D01*
X77084Y235445D01*
X77028Y235317D01*
X76969Y235191D01*
X76966Y235172D01*
X76957Y235153D01*
X76936Y235015D01*
X76910Y234879D01*
X76911Y234859D01*
X76908Y234839D01*
X76921Y234700D01*
X76929Y234562D01*
X76935Y234542D01*
X76937Y234522D01*
X76985Y234391D01*
X77027Y234259D01*
X77038Y234242D01*
X77045Y234223D01*
X77123Y234108D01*
X77197Y233990D01*
X77212Y233976D01*
X77224Y233960D01*
X77328Y233868D01*
X77429Y233772D01*
X77447Y233763D01*
X77462Y233749D01*
X77586Y233686D01*
X77708Y233619D01*
X77727Y233614D01*
X77745Y233605D01*
X77881Y233574D01*
X78016Y233539D01*
X78044Y233538D01*
X78056Y233535D01*
X78076Y233536D01*
X78176Y233529D01*
X79637Y233529D01*
X81504Y232756D01*
X82934Y231326D01*
X83707Y229459D01*
X83707Y227266D01*
X83725Y227129D01*
X83738Y226990D01*
X83744Y226971D01*
X83747Y226951D01*
X83798Y226822D01*
X83845Y226691D01*
X83857Y226674D01*
X83864Y226655D01*
X83945Y226543D01*
X84024Y226428D01*
X84039Y226414D01*
X84051Y226398D01*
X84158Y226309D01*
X84262Y226217D01*
X84280Y226208D01*
X84296Y226195D01*
X84422Y226136D01*
X84545Y226073D01*
X84565Y226068D01*
X84584Y226060D01*
X84720Y226033D01*
X84856Y226003D01*
X84876Y226004D01*
X84896Y226000D01*
X85034Y226008D01*
G37*
G36*
X145350Y208692D02*
X145350Y208692D01*
X145400Y208690D01*
X145507Y208712D01*
X145616Y208726D01*
X145663Y208744D01*
X145711Y208754D01*
X145810Y208802D01*
X145912Y208843D01*
X145952Y208872D01*
X145997Y208894D01*
X146080Y208965D01*
X146169Y209029D01*
X146201Y209068D01*
X146239Y209100D01*
X146302Y209190D01*
X146372Y209274D01*
X146393Y209319D01*
X146422Y209360D01*
X146461Y209463D01*
X146508Y209562D01*
X146517Y209611D01*
X146535Y209657D01*
X146547Y209767D01*
X146567Y209874D01*
X146564Y209924D01*
X146570Y209973D01*
X146554Y210082D01*
X146548Y210192D01*
X146532Y210239D01*
X146525Y210288D01*
X146473Y210441D01*
X146336Y210772D01*
X146336Y212793D01*
X147110Y214660D01*
X148539Y216090D01*
X150406Y216863D01*
X152428Y216863D01*
X154295Y216090D01*
X155071Y215313D01*
X155110Y215283D01*
X155144Y215246D01*
X155236Y215186D01*
X155323Y215118D01*
X155368Y215099D01*
X155410Y215071D01*
X155514Y215036D01*
X155614Y214992D01*
X155663Y214984D01*
X155710Y214968D01*
X155820Y214959D01*
X155928Y214942D01*
X155978Y214947D01*
X156027Y214943D01*
X156136Y214962D01*
X156245Y214972D01*
X156292Y214989D01*
X156341Y214997D01*
X156441Y215042D01*
X156544Y215080D01*
X156586Y215108D01*
X156631Y215128D01*
X156716Y215196D01*
X156807Y215258D01*
X156840Y215296D01*
X156879Y215326D01*
X156945Y215414D01*
X157018Y215497D01*
X157041Y215541D01*
X157070Y215581D01*
X157141Y215725D01*
X157480Y216543D01*
X158621Y217683D01*
X158681Y217762D01*
X158749Y217834D01*
X158779Y217887D01*
X158816Y217935D01*
X158855Y218026D01*
X158903Y218112D01*
X158918Y218171D01*
X158942Y218227D01*
X158958Y218324D01*
X158982Y218420D01*
X158989Y218520D01*
X158992Y218541D01*
X158991Y218553D01*
X158993Y218581D01*
X158993Y231453D01*
X161001Y233462D01*
X163276Y235736D01*
X163306Y235776D01*
X163343Y235809D01*
X163403Y235901D01*
X163471Y235988D01*
X163491Y236033D01*
X163518Y236075D01*
X163554Y236179D01*
X163597Y236280D01*
X163605Y236329D01*
X163621Y236376D01*
X163630Y236485D01*
X163647Y236594D01*
X163642Y236643D01*
X163646Y236693D01*
X163628Y236801D01*
X163617Y236910D01*
X163600Y236957D01*
X163592Y237006D01*
X163547Y237106D01*
X163510Y237210D01*
X163482Y237251D01*
X163461Y237296D01*
X163393Y237382D01*
X163331Y237473D01*
X163294Y237506D01*
X163263Y237544D01*
X163175Y237610D01*
X163093Y237683D01*
X163048Y237706D01*
X163009Y237736D01*
X162864Y237807D01*
X161518Y238364D01*
X160377Y239505D01*
X160299Y239566D01*
X160227Y239634D01*
X160174Y239663D01*
X160126Y239700D01*
X160035Y239739D01*
X159948Y239787D01*
X159890Y239802D01*
X159834Y239826D01*
X159736Y239842D01*
X159640Y239867D01*
X159540Y239873D01*
X159520Y239876D01*
X159508Y239875D01*
X159480Y239877D01*
X107812Y239877D01*
X107714Y239864D01*
X107615Y239861D01*
X107557Y239844D01*
X107497Y239837D01*
X107404Y239800D01*
X107309Y239773D01*
X107257Y239742D01*
X107201Y239720D01*
X107121Y239662D01*
X107035Y239611D01*
X106960Y239545D01*
X106944Y239533D01*
X106936Y239524D01*
X106915Y239505D01*
X106102Y238693D01*
X106072Y238653D01*
X106035Y238620D01*
X105975Y238528D01*
X105907Y238441D01*
X105887Y238396D01*
X105860Y238354D01*
X105825Y238250D01*
X105781Y238149D01*
X105773Y238100D01*
X105757Y238053D01*
X105748Y237944D01*
X105731Y237835D01*
X105736Y237786D01*
X105732Y237736D01*
X105751Y237628D01*
X105761Y237519D01*
X105778Y237472D01*
X105786Y237423D01*
X105831Y237323D01*
X105868Y237219D01*
X105896Y237178D01*
X105917Y237133D01*
X105985Y237047D01*
X106047Y236956D01*
X106084Y236923D01*
X106115Y236885D01*
X106203Y236819D01*
X106285Y236746D01*
X106330Y236723D01*
X106369Y236693D01*
X106514Y236622D01*
X107400Y236256D01*
X108829Y234826D01*
X109602Y232959D01*
X109602Y231346D01*
X109615Y231248D01*
X109618Y231148D01*
X109635Y231090D01*
X109642Y231030D01*
X109679Y230938D01*
X109706Y230843D01*
X109737Y230791D01*
X109759Y230734D01*
X109817Y230654D01*
X109868Y230569D01*
X109934Y230494D01*
X109946Y230477D01*
X109955Y230469D01*
X109974Y230448D01*
X131365Y209057D01*
X131443Y208997D01*
X131515Y208929D01*
X131568Y208900D01*
X131616Y208862D01*
X131707Y208823D01*
X131794Y208775D01*
X131852Y208760D01*
X131908Y208736D01*
X132006Y208721D01*
X132102Y208696D01*
X132202Y208690D01*
X132222Y208686D01*
X132234Y208687D01*
X132262Y208686D01*
X145301Y208686D01*
X145350Y208692D01*
G37*
G36*
X267973Y146620D02*
X267973Y146620D01*
X268111Y146629D01*
X268131Y146635D01*
X268151Y146637D01*
X268282Y146684D01*
X268414Y146727D01*
X268431Y146737D01*
X268450Y146744D01*
X268565Y146822D01*
X268683Y146897D01*
X268697Y146911D01*
X268713Y146923D01*
X268805Y147027D01*
X268901Y147128D01*
X268910Y147146D01*
X268924Y147161D01*
X268987Y147285D01*
X269054Y147407D01*
X269059Y147426D01*
X269068Y147444D01*
X269099Y147580D01*
X269134Y147715D01*
X269135Y147743D01*
X269138Y147755D01*
X269137Y147775D01*
X269144Y147875D01*
X269144Y183492D01*
X269131Y183590D01*
X269128Y183689D01*
X269112Y183748D01*
X269104Y183808D01*
X269067Y183900D01*
X269040Y183995D01*
X269009Y184047D01*
X268987Y184103D01*
X268929Y184183D01*
X268878Y184269D01*
X268812Y184344D01*
X268800Y184361D01*
X268791Y184368D01*
X268772Y184390D01*
X256425Y196737D01*
X256315Y196822D01*
X256208Y196911D01*
X256189Y196920D01*
X256173Y196932D01*
X256045Y196987D01*
X255920Y197046D01*
X255900Y197050D01*
X255881Y197058D01*
X255743Y197080D01*
X255608Y197106D01*
X255587Y197105D01*
X255567Y197108D01*
X255428Y197095D01*
X255290Y197086D01*
X255271Y197080D01*
X255251Y197078D01*
X255120Y197031D01*
X254988Y196988D01*
X254971Y196978D01*
X254951Y196971D01*
X254836Y196893D01*
X254719Y196818D01*
X254705Y196804D01*
X254688Y196792D01*
X254596Y196688D01*
X254501Y196587D01*
X254491Y196569D01*
X254478Y196554D01*
X254415Y196430D01*
X254348Y196308D01*
X254342Y196289D01*
X254333Y196271D01*
X254303Y196135D01*
X254268Y196000D01*
X254266Y195972D01*
X254264Y195960D01*
X254264Y195940D01*
X254258Y195840D01*
X254258Y151543D01*
X254241Y151438D01*
X254215Y151302D01*
X254216Y151282D01*
X254213Y151262D01*
X254226Y151123D01*
X254235Y150984D01*
X254241Y150965D01*
X254243Y150945D01*
X254290Y150814D01*
X254333Y150682D01*
X254344Y150665D01*
X254350Y150646D01*
X254429Y150531D01*
X254503Y150413D01*
X254518Y150399D01*
X254529Y150383D01*
X254633Y150291D01*
X254735Y150195D01*
X254752Y150186D01*
X254767Y150172D01*
X254891Y150109D01*
X255013Y150042D01*
X255033Y150037D01*
X255050Y150028D01*
X255186Y149997D01*
X255321Y149962D01*
X255349Y149961D01*
X255361Y149958D01*
X255381Y149958D01*
X255482Y149952D01*
X264003Y149952D01*
X266977Y146978D01*
X267087Y146893D01*
X267194Y146804D01*
X267212Y146795D01*
X267228Y146783D01*
X267356Y146728D01*
X267482Y146669D01*
X267501Y146665D01*
X267520Y146657D01*
X267658Y146635D01*
X267794Y146609D01*
X267814Y146610D01*
X267834Y146607D01*
X267973Y146620D01*
G37*
G36*
X214407Y94994D02*
X214407Y94994D01*
X214517Y95001D01*
X214564Y95016D01*
X214613Y95023D01*
X214766Y95075D01*
X215607Y95424D01*
X217094Y95424D01*
X217192Y95436D01*
X217291Y95439D01*
X217349Y95456D01*
X217409Y95464D01*
X217501Y95500D01*
X217597Y95528D01*
X217649Y95558D01*
X217705Y95581D01*
X217785Y95639D01*
X217870Y95689D01*
X217946Y95755D01*
X217962Y95767D01*
X217970Y95777D01*
X217991Y95795D01*
X239991Y117795D01*
X240317Y117795D01*
X240415Y117807D01*
X240514Y117810D01*
X240573Y117827D01*
X240633Y117835D01*
X240725Y117871D01*
X240820Y117899D01*
X240872Y117929D01*
X240928Y117952D01*
X241008Y118010D01*
X241094Y118060D01*
X241169Y118127D01*
X241186Y118139D01*
X241194Y118148D01*
X241215Y118167D01*
X242356Y119307D01*
X244223Y120081D01*
X246244Y120081D01*
X248140Y119296D01*
X248207Y119277D01*
X248271Y119249D01*
X248360Y119235D01*
X248447Y119212D01*
X248516Y119211D01*
X248586Y119200D01*
X248675Y119208D01*
X248765Y119207D01*
X248833Y119223D01*
X248902Y119229D01*
X248987Y119260D01*
X249074Y119281D01*
X249136Y119313D01*
X249201Y119337D01*
X249276Y119387D01*
X249355Y119429D01*
X249407Y119476D01*
X249465Y119516D01*
X249524Y119583D01*
X249591Y119643D01*
X249629Y119702D01*
X249675Y119754D01*
X249716Y119834D01*
X249765Y119909D01*
X249788Y119975D01*
X249820Y120037D01*
X249839Y120125D01*
X249868Y120210D01*
X249874Y120279D01*
X249889Y120348D01*
X249887Y120437D01*
X249894Y120527D01*
X249882Y120596D01*
X249880Y120665D01*
X249855Y120752D01*
X249839Y120840D01*
X249811Y120904D01*
X249791Y120971D01*
X249746Y121048D01*
X249709Y121130D01*
X249665Y121185D01*
X249630Y121245D01*
X249523Y121366D01*
X248485Y122404D01*
X248462Y122422D01*
X248443Y122444D01*
X248337Y122519D01*
X248234Y122599D01*
X248207Y122610D01*
X248183Y122627D01*
X248062Y122673D01*
X247942Y122725D01*
X247913Y122730D01*
X247885Y122740D01*
X247757Y122754D01*
X247628Y122775D01*
X247599Y122772D01*
X247569Y122775D01*
X247441Y122757D01*
X247312Y122745D01*
X247284Y122735D01*
X247254Y122731D01*
X247102Y122679D01*
X247083Y122671D01*
X245062Y122671D01*
X243195Y123444D01*
X241765Y124874D01*
X240992Y126741D01*
X240992Y128762D01*
X241319Y129552D01*
X241332Y129600D01*
X241353Y129645D01*
X241374Y129752D01*
X241403Y129859D01*
X241404Y129908D01*
X241413Y129957D01*
X241406Y130067D01*
X241408Y130177D01*
X241396Y130225D01*
X241393Y130274D01*
X241359Y130379D01*
X241334Y130486D01*
X241311Y130530D01*
X241295Y130577D01*
X241236Y130670D01*
X241185Y130767D01*
X241152Y130804D01*
X241125Y130846D01*
X241045Y130921D01*
X240971Y131002D01*
X240930Y131030D01*
X240893Y131064D01*
X240797Y131117D01*
X240705Y131177D01*
X240658Y131193D01*
X240615Y131217D01*
X240509Y131245D01*
X240405Y131280D01*
X240355Y131284D01*
X240307Y131297D01*
X240146Y131307D01*
X237045Y131307D01*
X236947Y131294D01*
X236848Y131291D01*
X236789Y131275D01*
X236729Y131267D01*
X236637Y131231D01*
X236542Y131203D01*
X236490Y131172D01*
X236434Y131150D01*
X236354Y131092D01*
X236268Y131041D01*
X236193Y130975D01*
X236176Y130963D01*
X236168Y130954D01*
X236147Y130935D01*
X228370Y123157D01*
X228369Y123157D01*
X225989Y120777D01*
X222474Y117262D01*
X222413Y117183D01*
X222345Y117111D01*
X222316Y117058D01*
X222279Y117010D01*
X222240Y116919D01*
X222192Y116833D01*
X222177Y116774D01*
X222153Y116718D01*
X222137Y116621D01*
X222112Y116525D01*
X222106Y116425D01*
X222103Y116404D01*
X222104Y116392D01*
X222102Y116364D01*
X222102Y114751D01*
X221329Y112883D01*
X219899Y111454D01*
X218032Y110681D01*
X216011Y110681D01*
X214766Y111196D01*
X214718Y111210D01*
X214673Y111231D01*
X214565Y111251D01*
X214459Y111280D01*
X214409Y111281D01*
X214360Y111291D01*
X214251Y111284D01*
X214141Y111285D01*
X214092Y111274D01*
X214043Y111271D01*
X213939Y111237D01*
X213832Y111211D01*
X213788Y111188D01*
X213740Y111173D01*
X213648Y111114D01*
X213551Y111063D01*
X213514Y111029D01*
X213472Y111003D01*
X213397Y110923D01*
X213315Y110849D01*
X213288Y110807D01*
X213254Y110771D01*
X213201Y110675D01*
X213140Y110583D01*
X213124Y110536D01*
X213100Y110492D01*
X213073Y110386D01*
X213037Y110282D01*
X213033Y110233D01*
X213021Y110185D01*
X213011Y110024D01*
X213011Y96248D01*
X213017Y96198D01*
X213015Y96149D01*
X213037Y96041D01*
X213050Y95932D01*
X213069Y95886D01*
X213079Y95837D01*
X213127Y95738D01*
X213168Y95636D01*
X213197Y95596D01*
X213219Y95552D01*
X213290Y95468D01*
X213354Y95379D01*
X213393Y95347D01*
X213425Y95310D01*
X213515Y95246D01*
X213599Y95176D01*
X213644Y95155D01*
X213685Y95127D01*
X213788Y95088D01*
X213887Y95041D01*
X213936Y95031D01*
X213982Y95014D01*
X214092Y95002D01*
X214199Y94981D01*
X214249Y94984D01*
X214298Y94979D01*
X214407Y94994D01*
G37*
%LPC*%
G36*
X146393Y99407D02*
X146393Y99407D01*
X142500Y101020D01*
X139520Y104000D01*
X137907Y107893D01*
X137907Y112107D01*
X139520Y116000D01*
X142500Y118980D01*
X146393Y120593D01*
X150607Y120593D01*
X154500Y118980D01*
X157480Y116000D01*
X159093Y112107D01*
X159093Y107893D01*
X157480Y104000D01*
X154500Y101020D01*
X150607Y99407D01*
X146393Y99407D01*
G37*
%LPD*%
%LPC*%
G36*
X89828Y49173D02*
X89828Y49173D01*
X87736Y50040D01*
X86136Y51640D01*
X85269Y53732D01*
X85269Y55996D01*
X86136Y58088D01*
X87736Y59688D01*
X89828Y60555D01*
X92092Y60555D01*
X94131Y59710D01*
X94145Y59706D01*
X94158Y59699D01*
X94299Y59664D01*
X94438Y59626D01*
X94453Y59626D01*
X94467Y59622D01*
X94611Y59623D01*
X94756Y59621D01*
X94770Y59625D01*
X94785Y59625D01*
X94925Y59662D01*
X95065Y59695D01*
X95078Y59702D01*
X95092Y59706D01*
X95219Y59777D01*
X95346Y59844D01*
X95357Y59854D01*
X95370Y59861D01*
X95475Y59961D01*
X95582Y60058D01*
X95590Y60070D01*
X95600Y60080D01*
X95677Y60203D01*
X95756Y60324D01*
X95761Y60338D01*
X95769Y60350D01*
X95813Y60488D01*
X95813Y60490D01*
X102536Y60490D01*
X102536Y53943D01*
X101730Y54103D01*
X100214Y54731D01*
X98850Y55643D01*
X98818Y55675D01*
X98708Y55760D01*
X98601Y55849D01*
X98582Y55858D01*
X98566Y55870D01*
X98439Y55925D01*
X98313Y55985D01*
X98293Y55988D01*
X98275Y55996D01*
X98137Y56018D01*
X98000Y56044D01*
X97980Y56043D01*
X97960Y56046D01*
X97822Y56033D01*
X97683Y56025D01*
X97664Y56018D01*
X97644Y56016D01*
X97513Y55969D01*
X97381Y55927D01*
X97363Y55916D01*
X97345Y55909D01*
X97230Y55831D01*
X97112Y55756D01*
X97098Y55742D01*
X97081Y55730D01*
X96989Y55626D01*
X96894Y55525D01*
X96884Y55507D01*
X96871Y55492D01*
X96808Y55368D01*
X96740Y55246D01*
X96735Y55227D01*
X96726Y55209D01*
X96696Y55073D01*
X96661Y54938D01*
X96659Y54910D01*
X96656Y54898D01*
X96657Y54878D01*
X96651Y54778D01*
X96651Y53732D01*
X95784Y51640D01*
X94184Y50040D01*
X92092Y49173D01*
X89828Y49173D01*
G37*
%LPD*%
%LPC*%
G36*
X29828Y49173D02*
X29828Y49173D01*
X27736Y50040D01*
X26136Y51640D01*
X25269Y53732D01*
X25269Y54778D01*
X25252Y54916D01*
X25239Y55054D01*
X25232Y55073D01*
X25229Y55093D01*
X25178Y55223D01*
X25131Y55353D01*
X25120Y55370D01*
X25112Y55389D01*
X25031Y55502D01*
X24953Y55616D01*
X24937Y55630D01*
X24926Y55646D01*
X24818Y55735D01*
X24714Y55827D01*
X24696Y55836D01*
X24681Y55849D01*
X24555Y55908D01*
X24431Y55972D01*
X24411Y55976D01*
X24393Y55985D01*
X24257Y56011D01*
X24121Y56041D01*
X24100Y56041D01*
X24081Y56044D01*
X23942Y56036D01*
X23803Y56031D01*
X23783Y56026D01*
X23763Y56025D01*
X23631Y55982D01*
X23497Y55943D01*
X23480Y55933D01*
X23461Y55927D01*
X23343Y55852D01*
X23223Y55781D01*
X23202Y55763D01*
X23192Y55756D01*
X23178Y55741D01*
X23102Y55675D01*
X23070Y55643D01*
X21706Y54731D01*
X20190Y54103D01*
X19384Y53943D01*
X19384Y60490D01*
X26098Y60490D01*
X26099Y60487D01*
X26102Y60472D01*
X26166Y60342D01*
X26226Y60211D01*
X26235Y60200D01*
X26242Y60187D01*
X26335Y60077D01*
X26427Y59965D01*
X26439Y59956D01*
X26448Y59945D01*
X26566Y59862D01*
X26682Y59776D01*
X26696Y59770D01*
X26708Y59762D01*
X26843Y59710D01*
X26977Y59656D01*
X26992Y59654D01*
X27006Y59649D01*
X27150Y59633D01*
X27292Y59614D01*
X27307Y59615D01*
X27322Y59614D01*
X27465Y59634D01*
X27608Y59651D01*
X27622Y59656D01*
X27636Y59658D01*
X27789Y59710D01*
X29828Y60555D01*
X32092Y60555D01*
X34184Y59688D01*
X35784Y58088D01*
X36651Y55996D01*
X36651Y53732D01*
X35784Y51640D01*
X34184Y50040D01*
X32092Y49173D01*
X29828Y49173D01*
G37*
%LPD*%
G36*
X19657Y108132D02*
X19657Y108132D01*
X19795Y108140D01*
X19814Y108147D01*
X19834Y108148D01*
X19966Y108196D01*
X20097Y108238D01*
X20115Y108249D01*
X20134Y108256D01*
X20249Y108334D01*
X20366Y108409D01*
X20380Y108423D01*
X20397Y108435D01*
X20489Y108539D01*
X20584Y108640D01*
X20594Y108658D01*
X20607Y108673D01*
X20671Y108797D01*
X20738Y108919D01*
X20743Y108938D01*
X20752Y108956D01*
X20782Y109092D01*
X20817Y109227D01*
X20819Y109255D01*
X20822Y109267D01*
X20821Y109287D01*
X20827Y109387D01*
X20827Y109985D01*
X21601Y111852D01*
X22607Y112858D01*
X22668Y112936D01*
X22736Y113009D01*
X22765Y113062D01*
X22802Y113110D01*
X22841Y113200D01*
X22889Y113287D01*
X22904Y113346D01*
X22928Y113401D01*
X22944Y113499D01*
X22969Y113595D01*
X22975Y113695D01*
X22978Y113716D01*
X22977Y113728D01*
X22979Y113756D01*
X22979Y124243D01*
X22961Y124381D01*
X22948Y124520D01*
X22942Y124539D01*
X22939Y124559D01*
X22888Y124688D01*
X22841Y124819D01*
X22829Y124836D01*
X22822Y124855D01*
X22740Y124967D01*
X22662Y125082D01*
X22647Y125096D01*
X22635Y125112D01*
X22528Y125201D01*
X22424Y125293D01*
X22406Y125302D01*
X22390Y125315D01*
X22264Y125374D01*
X22141Y125437D01*
X22121Y125442D01*
X22102Y125450D01*
X21966Y125476D01*
X21830Y125507D01*
X21810Y125506D01*
X21790Y125510D01*
X21652Y125501D01*
X21512Y125497D01*
X21493Y125492D01*
X21473Y125490D01*
X21341Y125448D01*
X21207Y125409D01*
X21189Y125398D01*
X21170Y125392D01*
X21053Y125318D01*
X20933Y125247D01*
X20912Y125229D01*
X20901Y125222D01*
X20887Y125207D01*
X20812Y125141D01*
X19388Y123717D01*
X17521Y122943D01*
X15499Y122943D01*
X14669Y123287D01*
X14621Y123300D01*
X14576Y123322D01*
X14468Y123342D01*
X14362Y123371D01*
X14312Y123372D01*
X14263Y123381D01*
X14154Y123375D01*
X14044Y123376D01*
X13996Y123365D01*
X13946Y123362D01*
X13842Y123328D01*
X13735Y123302D01*
X13691Y123279D01*
X13644Y123264D01*
X13551Y123205D01*
X13454Y123153D01*
X13417Y123120D01*
X13375Y123093D01*
X13300Y123013D01*
X13218Y122940D01*
X13191Y122898D01*
X13157Y122862D01*
X13104Y122766D01*
X13044Y122674D01*
X13027Y122627D01*
X13003Y122583D01*
X12976Y122477D01*
X12940Y122373D01*
X12936Y122323D01*
X12924Y122275D01*
X12914Y122115D01*
X12914Y114762D01*
X12926Y114664D01*
X12929Y114565D01*
X12946Y114507D01*
X12954Y114447D01*
X12990Y114355D01*
X13018Y114260D01*
X13048Y114207D01*
X13071Y114151D01*
X13129Y114071D01*
X13179Y113986D01*
X13245Y113910D01*
X13257Y113894D01*
X13267Y113886D01*
X13285Y113865D01*
X18661Y108490D01*
X18770Y108405D01*
X18877Y108316D01*
X18896Y108307D01*
X18912Y108295D01*
X19040Y108239D01*
X19165Y108180D01*
X19185Y108177D01*
X19204Y108169D01*
X19342Y108147D01*
X19478Y108121D01*
X19498Y108122D01*
X19518Y108119D01*
X19657Y108132D01*
G37*
%LPC*%
G36*
X105784Y63738D02*
X105784Y63738D01*
X105784Y70285D01*
X106590Y70125D01*
X108106Y69497D01*
X109471Y68585D01*
X110631Y67425D01*
X111543Y66060D01*
X112171Y64544D01*
X112331Y63738D01*
X105784Y63738D01*
G37*
%LPD*%
%LPC*%
G36*
X19384Y25488D02*
X19384Y25488D01*
X19384Y32035D01*
X20190Y31875D01*
X21706Y31247D01*
X23071Y30335D01*
X24231Y29175D01*
X25143Y27810D01*
X25771Y26294D01*
X25931Y25488D01*
X19384Y25488D01*
G37*
%LPD*%
%LPC*%
G36*
X19384Y63738D02*
X19384Y63738D01*
X19384Y70285D01*
X20190Y70125D01*
X21706Y69497D01*
X23071Y68585D01*
X24231Y67425D01*
X25143Y66060D01*
X25771Y64544D01*
X25931Y63738D01*
X19384Y63738D01*
G37*
%LPD*%
%LPC*%
G36*
X105784Y25488D02*
X105784Y25488D01*
X105784Y32035D01*
X106590Y31875D01*
X108106Y31247D01*
X109471Y30335D01*
X110631Y29175D01*
X111543Y27810D01*
X112171Y26294D01*
X112331Y25488D01*
X105784Y25488D01*
G37*
%LPD*%
%LPC*%
G36*
X105784Y60490D02*
X105784Y60490D01*
X112331Y60490D01*
X112171Y59684D01*
X111543Y58168D01*
X110631Y56803D01*
X109471Y55643D01*
X108106Y54731D01*
X106590Y54103D01*
X105784Y53943D01*
X105784Y60490D01*
G37*
%LPD*%
%LPC*%
G36*
X95989Y25488D02*
X95989Y25488D01*
X96149Y26294D01*
X96777Y27810D01*
X97689Y29175D01*
X98849Y30335D01*
X100214Y31247D01*
X101730Y31875D01*
X102536Y32035D01*
X102536Y25488D01*
X95989Y25488D01*
G37*
%LPD*%
%LPC*%
G36*
X95989Y63738D02*
X95989Y63738D01*
X96149Y64544D01*
X96777Y66060D01*
X97689Y67425D01*
X98849Y68585D01*
X100214Y69497D01*
X101730Y70125D01*
X102536Y70285D01*
X102536Y63738D01*
X95989Y63738D01*
G37*
%LPD*%
%LPC*%
G36*
X19384Y22240D02*
X19384Y22240D01*
X25931Y22240D01*
X25771Y21434D01*
X25143Y19918D01*
X24231Y18553D01*
X23071Y17393D01*
X21706Y16481D01*
X20190Y15853D01*
X19384Y15693D01*
X19384Y22240D01*
G37*
%LPD*%
%LPC*%
G36*
X105784Y22240D02*
X105784Y22240D01*
X112331Y22240D01*
X112171Y21434D01*
X111543Y19918D01*
X110631Y18553D01*
X109471Y17393D01*
X108106Y16481D01*
X106590Y15853D01*
X105784Y15693D01*
X105784Y22240D01*
G37*
%LPD*%
%LPC*%
G36*
X101730Y15853D02*
X101730Y15853D01*
X100214Y16481D01*
X98849Y17393D01*
X97689Y18553D01*
X96777Y19918D01*
X96149Y21434D01*
X95989Y22240D01*
X102536Y22240D01*
X102536Y15693D01*
X101730Y15853D01*
G37*
%LPD*%
D10*
X17760Y62114D03*
X104160Y62114D03*
X17760Y23864D03*
X104160Y23864D03*
D11*
X148500Y110000D03*
D12*
X224180Y18740D03*
X245300Y105320D03*
D13*
X245112Y39672D02*
X224180Y18740D01*
X245112Y105132D02*
X245300Y105320D01*
X245112Y105132D02*
X245112Y39672D01*
D12*
X184440Y174560D03*
X116263Y127384D03*
X305127Y197568D03*
X305080Y161144D03*
X28156Y254897D03*
X32636Y18571D03*
X61220Y12825D03*
X270555Y8679D03*
X120631Y235955D03*
X64959Y314405D03*
X163070Y62405D03*
X165147Y277612D03*
X102738Y281152D03*
X226131Y72733D03*
X32250Y204477D03*
X81034Y286275D03*
X87714Y331242D03*
X189082Y21937D03*
X44410Y81115D03*
X17321Y79976D03*
X65199Y239062D03*
X123939Y28732D03*
X258611Y160309D03*
X18989Y330369D03*
X53594Y165108D03*
X61944Y144058D03*
X191878Y255495D03*
X150176Y220434D03*
X116375Y103555D03*
X93645Y113473D03*
X49784Y137168D03*
X238787Y325078D03*
X135998Y220269D03*
X33980Y244425D03*
X122580Y261691D03*
X88441Y213388D03*
X146074Y261259D03*
X243118Y25169D03*
X115521Y12154D03*
X237185Y351547D03*
X166565Y259487D03*
X232897Y232364D03*
X112736Y46354D03*
X135464Y12577D03*
X185869Y126704D03*
X200834Y252762D03*
X85350Y257782D03*
X139399Y147342D03*
X238021Y122298D03*
X8989Y291369D03*
X18957Y119618D03*
X99653Y223779D03*
X105016Y80747D03*
X93585Y89576D03*
X132330Y97028D03*
X116091Y151431D03*
X185623Y39957D03*
X203680Y46913D03*
X185879Y115443D03*
X284454Y148253D03*
X193247Y291990D03*
X33980Y234425D03*
X33980Y224425D03*
X219183Y256350D03*
X227183Y256350D03*
X287183Y256350D03*
X297183Y256350D03*
X297183Y246350D03*
X297183Y236350D03*
X297183Y226350D03*
X297183Y216350D03*
X32636Y28571D03*
X28156Y264897D03*
X28156Y274897D03*
X28156Y284897D03*
X40156Y298897D03*
X50156Y298897D03*
X60156Y298897D03*
X70156Y298897D03*
X80156Y298897D03*
X90156Y298897D03*
X100156Y298897D03*
X110156Y298897D03*
X120156Y298897D03*
X287183Y266350D03*
X287183Y276350D03*
X287183Y286350D03*
X287183Y296350D03*
X277183Y300350D03*
X267183Y300350D03*
X257183Y300350D03*
X227183Y266350D03*
X227183Y276350D03*
X227183Y286350D03*
X227183Y296350D03*
X303183Y276350D03*
X303183Y296350D03*
X280787Y325078D03*
X281377Y351241D03*
X88636Y28571D03*
X88636Y18571D03*
X61220Y30825D03*
X271268Y30318D03*
X279268Y24318D03*
X257118Y25169D03*
X90272Y125786D03*
X194975Y115443D03*
X128611Y104200D03*
X146748Y137956D03*
X236680Y18480D03*
X218644Y131305D03*
D13*
X221550Y12390D02*
X230270Y12390D01*
X236360Y18480D01*
X236680Y18480D01*
X210216Y88268D02*
X210216Y122877D01*
X210216Y88268D02*
X210268Y88216D01*
X210268Y23672D02*
X221550Y12390D01*
X210268Y23672D02*
X210268Y86177D01*
X210268Y88216D01*
X210216Y122877D02*
X218644Y131305D01*
D12*
X135985Y193216D03*
X223622Y171298D03*
X25908Y108974D03*
X24892Y136914D03*
X32341Y182127D03*
X217021Y115761D03*
X270924Y123238D03*
X290138Y23638D03*
D13*
X259601Y135310D02*
X255882Y139029D01*
X259601Y135310D02*
X259601Y134560D01*
X270924Y123238D01*
X245508Y134102D02*
X235361Y134102D01*
X245508Y134102D02*
X250436Y139029D01*
X225203Y123943D02*
X217021Y115761D01*
X225203Y123943D02*
X235361Y134102D01*
X250436Y139029D02*
X255882Y139029D01*
X234487Y134976D02*
X234361Y134976D01*
X234487Y134976D02*
X235361Y134102D01*
X223622Y145715D02*
X223622Y171298D01*
X223622Y145715D02*
X234361Y134976D01*
X223622Y135308D02*
X223622Y145715D01*
X223622Y135308D02*
X224994Y133936D01*
X224994Y124152D02*
X225203Y123943D01*
X224994Y124152D02*
X224994Y133936D01*
X223622Y171298D02*
X234419Y182095D01*
X234419Y188578D01*
X226987Y196010D01*
D12*
X211603Y212948D03*
D13*
X211340Y212685D01*
X211340Y211657D01*
X226987Y196010D01*
X226987Y196010D01*
X135985Y193216D02*
X99021Y193216D01*
X96605Y190800D01*
X60318Y154513D01*
X42491Y154513D01*
D12*
X78626Y228448D03*
D13*
X78626Y228413D01*
X32341Y182127D01*
X142689Y190785D02*
X147950Y190785D01*
X151669Y194505D01*
X151669Y199766D01*
X140258Y193216D02*
X135985Y193216D01*
X140258Y193216D02*
X142689Y190785D01*
X151669Y199766D02*
X145544Y205891D01*
X142689Y190785D02*
X96620Y190785D01*
X96605Y190800D01*
D12*
X104522Y231948D03*
D13*
X130579Y205891D01*
X145544Y205891D01*
X276329Y117833D02*
X276329Y75077D01*
X276329Y117833D02*
X270924Y123238D01*
X276329Y75077D02*
X277656Y73750D01*
X277656Y36119D02*
X290138Y23638D01*
X277656Y36119D02*
X277656Y73750D01*
X25774Y109108D02*
X25774Y136032D01*
X25774Y109108D02*
X25908Y108974D01*
X28294Y140316D02*
X42491Y154513D01*
X24892Y136914D02*
X25774Y136032D01*
X24892Y136914D02*
X28294Y140316D01*
D12*
X238982Y218132D03*
D13*
X271939Y185175D01*
X271939Y144267D01*
X290859Y102473D02*
X291058Y102274D01*
X290859Y102473D02*
X290859Y125346D01*
X271939Y144267D01*
D12*
X291058Y102274D03*
X62230Y103894D03*
X82544Y147191D03*
D13*
X82563Y147172D01*
X82563Y139018D01*
X67310Y123765D01*
X67310Y108974D02*
X62230Y103894D01*
X67310Y108974D02*
X67310Y123765D01*
D12*
X103083Y176321D03*
D13*
X72455Y146194D02*
X72455Y134926D01*
X101581Y175321D02*
X102083Y175321D01*
X103083Y176321D01*
X101581Y175321D02*
X72455Y146194D01*
D12*
X60960Y114308D03*
D13*
X60960Y123431D01*
X72455Y134926D01*
D12*
X260580Y105120D03*
X249580Y18620D03*
D13*
X249874Y18914D01*
X249874Y94414D01*
X260580Y105120D01*
D12*
X115784Y160197D03*
X60527Y75889D03*
D13*
X72644Y88006D01*
D12*
X83920Y93613D03*
D13*
X72644Y88006D02*
X72644Y88002D01*
X75438Y90800D02*
X75438Y120398D01*
X75438Y90800D02*
X72644Y88006D01*
X75438Y120398D02*
X115511Y160471D01*
X115784Y160197D01*
X83920Y93613D02*
X78255Y93613D01*
X72644Y88002D01*
D12*
X116152Y171156D03*
X51770Y75961D03*
D13*
X54177Y78367D02*
X54177Y78519D01*
X54177Y78367D02*
X51770Y75961D01*
X54177Y78519D02*
X71374Y95717D01*
X71374Y122082D01*
X87869Y138576D02*
X87869Y143262D01*
X115763Y171156D02*
X116152Y171156D01*
X115763Y171156D02*
X87869Y143262D01*
X87869Y138576D02*
X71374Y122082D01*
D12*
X145319Y197135D03*
X20574Y165108D03*
D13*
X20690Y165108D01*
X27221Y158577D01*
X58635Y158577D01*
X101885Y201827D01*
X140628Y201827D02*
X145319Y197135D01*
X140628Y201827D02*
X101885Y201827D01*
D12*
X57912Y129548D03*
X178735Y134660D03*
D13*
X57921Y129548D02*
X57912Y129548D01*
X57921Y129548D02*
X68315Y139942D01*
X68315Y150885D01*
X100150Y182720D01*
X177996Y135399D02*
X178735Y134660D01*
D12*
X180286Y222468D03*
X151417Y211782D03*
D13*
X177996Y220177D02*
X180286Y222468D01*
X177996Y220177D02*
X177996Y135399D01*
X147362Y182720D02*
X100150Y182720D01*
X151417Y211782D02*
X158127Y205073D01*
X158127Y193485D01*
X147362Y182720D01*
D12*
X22352Y100846D03*
X17638Y199532D03*
D13*
X10119Y192013D01*
X10119Y113079D01*
X22352Y100846D01*
X231960Y148970D02*
X237800Y143130D01*
D12*
X154653Y144750D03*
X272649Y226506D03*
D13*
X284531Y80751D02*
X290004Y75278D01*
X284531Y80751D02*
X284531Y125472D01*
X231960Y148970D02*
X231960Y155528D01*
X242834Y166403D01*
X242834Y192017D01*
X222105Y234885D02*
X210711Y246280D01*
X189318Y246280D01*
X169676Y226637D01*
X169676Y159773D02*
X154653Y144750D01*
X169676Y159773D02*
X169676Y226637D01*
D12*
X290004Y75278D03*
D13*
X230500Y216783D02*
X230500Y221000D01*
X230500Y216783D02*
X251463Y195819D01*
X230500Y221000D02*
X235982Y226482D01*
X222105Y234885D02*
X222105Y212746D01*
X242834Y192017D01*
X272625Y226482D02*
X272649Y226506D01*
X272625Y226482D02*
X235982Y226482D01*
X251463Y152950D02*
X245218Y146705D01*
X241644Y143130D01*
X237800Y143130D01*
X251463Y152950D02*
X251463Y195819D01*
X247069Y147157D02*
X246617Y146705D01*
X245218Y146705D01*
X247069Y147157D02*
X262845Y147157D01*
X284531Y125472D01*
D12*
X169998Y135441D03*
X290343Y50033D03*
D13*
X236044Y139040D02*
X227779Y147305D01*
X227779Y157493D01*
X238483Y168197D01*
X238483Y190261D02*
X217979Y210765D01*
X238483Y190261D02*
X238483Y168197D01*
X184125Y228838D02*
X177624Y228838D01*
X173904Y225118D02*
X173904Y139347D01*
X169998Y135441D01*
X173904Y225118D02*
X177624Y228838D01*
X290343Y65792D02*
X290343Y50033D01*
X290343Y65792D02*
X284372Y71763D01*
D12*
X292449Y151645D03*
X215701Y224356D03*
D13*
X215701Y224249D01*
X215701Y223602D01*
D12*
X250271Y220025D03*
D13*
X292262Y151832D02*
X292449Y151645D01*
X292262Y151832D02*
X292262Y178149D01*
X250385Y220025D01*
X250271Y220025D01*
X196321Y216642D02*
X184125Y228838D01*
X236044Y139040D02*
X244699Y139040D01*
X248753Y143093D01*
X260928Y143093D01*
X280393Y123628D01*
X217979Y210765D02*
X217979Y216344D01*
X217979Y221971D01*
X215701Y224249D01*
X203201Y216642D02*
X196321Y216642D01*
X203201Y216642D02*
X206123Y219564D01*
X211663Y219564D01*
X215701Y223602D01*
X214884Y219564D02*
X211663Y219564D01*
X214884Y219564D02*
X218042Y216407D01*
X284372Y71930D02*
X284372Y71763D01*
X284372Y71930D02*
X283654Y72648D01*
X283654Y75881D01*
X280393Y79142D01*
X280393Y123628D01*
X217979Y216344D02*
X218042Y216407D01*
D12*
X216618Y90343D03*
X41148Y137041D03*
X245234Y115000D03*
D13*
X216618Y90470D02*
X216618Y90343D01*
X241148Y115000D02*
X245234Y115000D01*
X241148Y115000D02*
X216618Y90470D01*
D12*
X216629Y7427D03*
D13*
X41148Y110662D02*
X41148Y137041D01*
X41148Y110662D02*
X24982Y94496D01*
D12*
X14129Y97631D03*
D13*
X17263Y94496D01*
X24982Y94496D01*
D12*
X10911Y41431D03*
D13*
X8351Y38872D01*
X8351Y9556D01*
X12827Y5080D01*
X214282Y5080D01*
X216629Y7427D01*
D12*
X246073Y127752D03*
X270214Y58817D03*
D13*
X267051Y75845D02*
X267051Y107790D01*
X267051Y75845D02*
X264956Y73750D01*
X264956Y63992D01*
X270130Y58817D02*
X270214Y58817D01*
X270130Y58817D02*
X264956Y63992D01*
X246073Y127535D02*
X246073Y127752D01*
X246073Y127535D02*
X247306Y127535D01*
X267051Y107790D01*
D12*
X253251Y132679D03*
X271306Y71120D03*
D13*
X253251Y131799D02*
X253251Y132679D01*
X253251Y131799D02*
X271306Y113744D01*
X271306Y71120D01*
D12*
X191785Y237996D03*
X199868Y223565D03*
D13*
X191785Y231648D02*
X191785Y237996D01*
X191785Y231648D02*
X199868Y223565D01*
D12*
X190164Y213698D03*
X194000Y57500D03*
D13*
X201456Y64956D01*
X201456Y202406D01*
X190164Y213698D01*
D12*
X238865Y153357D03*
D13*
X195570Y267707D02*
X195570Y267938D01*
D12*
X195570Y267938D03*
D13*
X247243Y161734D02*
X238865Y153357D01*
X247243Y161734D02*
X247243Y194292D01*
X226233Y215302D01*
X226233Y237044D01*
X195570Y267707D01*
D12*
X194800Y46931D03*
D13*
X194800Y47105D01*
X205672Y57977D01*
D12*
X223612Y184330D03*
D13*
X206285Y166907D02*
X205672Y57977D01*
X223612Y184233D02*
X223612Y184330D01*
X223612Y184233D02*
X206285Y166907D01*
D12*
X185353Y82598D03*
X124278Y90452D03*
X149801Y27590D03*
X166928Y32560D03*
D13*
X154771Y32560D01*
X149910Y32560D01*
X154771Y32560D02*
X149801Y27590D01*
X166821Y32667D02*
X166821Y56457D01*
X166821Y32667D02*
X166928Y32560D01*
X185353Y74989D02*
X185353Y82598D01*
X185353Y74989D02*
X166821Y56457D01*
D12*
X134380Y63105D03*
X142496Y38910D03*
D13*
X149801Y38910D02*
X149801Y27590D01*
X149801Y38910D02*
X142496Y38910D01*
X149910Y32560D02*
X149910Y59454D01*
X123861Y90035D02*
X124278Y90452D01*
X123861Y90035D02*
X123861Y73733D01*
X134380Y63213D02*
X134380Y63105D01*
X134380Y63213D02*
X123861Y73733D01*
X142496Y38910D02*
X22454Y38910D01*
X6025Y55339D01*
X6025Y197391D01*
D12*
X19313Y178124D03*
D13*
X23988Y196902D02*
X23988Y202163D01*
X20269Y205882D01*
X14516Y205882D01*
X19313Y192226D02*
X19313Y178124D01*
X19313Y192226D02*
X23988Y196902D01*
X14516Y205882D02*
X6025Y197391D01*
X134380Y63105D02*
X146259Y63105D01*
X149910Y59454D01*
X143560Y38910D02*
X142496Y38910D01*
X143560Y38910D02*
X149910Y32560D01*
D12*
X25671Y188041D03*
X164835Y268070D03*
D13*
X105700Y268070D02*
X25671Y188041D01*
X105700Y268070D02*
X164835Y268070D01*
D12*
X73406Y50038D03*
X35660Y78340D03*
D13*
X35720Y78340D01*
X63554Y50506D01*
X72938Y50506D02*
X73406Y50038D01*
X72938Y50506D02*
X63554Y50506D01*
D12*
X48514Y50038D03*
X26416Y75954D03*
D13*
X48514Y53845D02*
X48514Y50038D01*
X48514Y53845D02*
X26416Y75943D01*
X26416Y75954D01*
D12*
X154877Y261184D03*
D13*
X170767Y245335D02*
X170767Y239275D01*
X161787Y230295D01*
D12*
X161787Y213665D03*
D13*
X161787Y230295D01*
X154918Y261184D02*
X154877Y261184D01*
X154918Y261184D02*
X170767Y245335D01*
D12*
X16510Y128024D03*
X164396Y242671D03*
D13*
X14224Y167738D02*
X14224Y130161D01*
X14224Y167738D02*
X17944Y171458D01*
X16510Y128024D02*
X16361Y128024D01*
X14224Y130161D01*
X17944Y171458D02*
X34915Y171458D01*
X106129Y242671D02*
X164396Y242671D01*
X106129Y242671D02*
X34915Y171458D01*
M02*
