G04 EAGLE Gerber RS-274X export*
G75*
%MOMM*%
%FSLAX34Y34*%
%LPD*%
%INSolderpaste Top*%
%IPPOS*%
%AMOC8*
5,1,8,0,0,1.08239X$1,22.5*%
G01*
%ADD10R,0.600000X0.500000*%
%ADD11R,0.600000X0.900000*%
%ADD12R,0.900000X0.600000*%
%ADD13R,0.500000X0.600000*%
%ADD14R,1.000000X1.800000*%
%ADD15R,0.700000X0.250000*%
%ADD16R,0.250000X0.700000*%
%ADD17R,1.300000X1.300000*%
%ADD18R,1.016000X0.711200*%
%ADD19R,0.609600X0.685800*%
%ADD20R,1.580000X1.580000*%
%ADD21C,0.067500*%
%ADD22R,2.200000X0.850000*%
%ADD23R,1.050000X1.000000*%
%ADD24R,0.800000X0.600000*%
%ADD25R,0.450000X0.950000*%
%ADD26R,4.350000X3.450000*%
%ADD27C,0.300000*%
%ADD28R,0.520000X1.000000*%
%ADD29R,0.270000X1.000000*%
%ADD30R,1.000000X2.000000*%
%ADD31R,0.450000X0.600000*%
%ADD32R,0.890000X0.940000*%
%ADD33R,1.080000X1.050000*%
%ADD34R,0.632000X1.012000*%
%ADD35R,0.660000X0.320000*%
%ADD36R,2.000000X0.650000*%
%ADD37R,3.180000X3.180000*%


D10*
X217544Y98106D03*
X217544Y108106D03*
D11*
X94590Y184450D03*
X79590Y184450D03*
D10*
X207400Y106995D03*
X207400Y96995D03*
X270980Y130820D03*
X270980Y140820D03*
X280140Y130820D03*
X280140Y140820D03*
D12*
X301500Y131280D03*
X301500Y146280D03*
D10*
X197240Y106995D03*
X197240Y96995D03*
X290300Y130820D03*
X290300Y140820D03*
D11*
X94590Y170115D03*
X79590Y170115D03*
X94590Y156780D03*
X79590Y156780D03*
D13*
X246476Y152173D03*
X256476Y152173D03*
X276916Y152133D03*
X266916Y152133D03*
D14*
X268762Y167437D03*
X243762Y167437D03*
D15*
X214440Y151810D03*
X214440Y158310D03*
X214440Y164810D03*
X214440Y171310D03*
X214440Y177810D03*
X214440Y184310D03*
X214440Y190810D03*
X214440Y197310D03*
D16*
X207190Y204560D03*
X200690Y204560D03*
X194190Y204560D03*
X187690Y204560D03*
X181190Y204560D03*
X174690Y204560D03*
X168190Y204560D03*
X161690Y204560D03*
D15*
X154440Y197310D03*
X154440Y190810D03*
X154440Y184310D03*
X154440Y177810D03*
X154440Y171310D03*
X154440Y164810D03*
X154440Y158310D03*
X154440Y151810D03*
D16*
X161690Y144560D03*
X168190Y144560D03*
X174690Y144560D03*
X181190Y144560D03*
X187690Y144560D03*
X194190Y144560D03*
X200690Y144560D03*
X207190Y144560D03*
D17*
X193440Y165560D03*
X193440Y183560D03*
X175440Y183560D03*
X175440Y165560D03*
D18*
X93973Y100467D03*
D19*
X76955Y100467D03*
X76955Y80147D03*
X95751Y80147D03*
D13*
X142210Y29004D03*
X132210Y29004D03*
D20*
X163070Y62405D03*
D21*
X174557Y77792D02*
X174557Y85718D01*
X176583Y85718D01*
X176583Y77792D01*
X174557Y77792D01*
X174557Y78433D02*
X176583Y78433D01*
X176583Y79074D02*
X174557Y79074D01*
X174557Y79715D02*
X176583Y79715D01*
X176583Y80356D02*
X174557Y80356D01*
X174557Y80997D02*
X176583Y80997D01*
X176583Y81638D02*
X174557Y81638D01*
X174557Y82279D02*
X176583Y82279D01*
X176583Y82920D02*
X174557Y82920D01*
X174557Y83561D02*
X176583Y83561D01*
X176583Y84202D02*
X174557Y84202D01*
X174557Y84843D02*
X176583Y84843D01*
X176583Y85484D02*
X174557Y85484D01*
X169557Y85718D02*
X169557Y77792D01*
X169557Y85718D02*
X171583Y85718D01*
X171583Y77792D01*
X169557Y77792D01*
X169557Y78433D02*
X171583Y78433D01*
X171583Y79074D02*
X169557Y79074D01*
X169557Y79715D02*
X171583Y79715D01*
X171583Y80356D02*
X169557Y80356D01*
X169557Y80997D02*
X171583Y80997D01*
X171583Y81638D02*
X169557Y81638D01*
X169557Y82279D02*
X171583Y82279D01*
X171583Y82920D02*
X169557Y82920D01*
X169557Y83561D02*
X171583Y83561D01*
X171583Y84202D02*
X169557Y84202D01*
X169557Y84843D02*
X171583Y84843D01*
X171583Y85484D02*
X169557Y85484D01*
X164557Y85718D02*
X164557Y77792D01*
X164557Y85718D02*
X166583Y85718D01*
X166583Y77792D01*
X164557Y77792D01*
X164557Y78433D02*
X166583Y78433D01*
X166583Y79074D02*
X164557Y79074D01*
X164557Y79715D02*
X166583Y79715D01*
X166583Y80356D02*
X164557Y80356D01*
X164557Y80997D02*
X166583Y80997D01*
X166583Y81638D02*
X164557Y81638D01*
X164557Y82279D02*
X166583Y82279D01*
X166583Y82920D02*
X164557Y82920D01*
X164557Y83561D02*
X166583Y83561D01*
X166583Y84202D02*
X164557Y84202D01*
X164557Y84843D02*
X166583Y84843D01*
X166583Y85484D02*
X164557Y85484D01*
X159557Y85718D02*
X159557Y77792D01*
X159557Y85718D02*
X161583Y85718D01*
X161583Y77792D01*
X159557Y77792D01*
X159557Y78433D02*
X161583Y78433D01*
X161583Y79074D02*
X159557Y79074D01*
X159557Y79715D02*
X161583Y79715D01*
X161583Y80356D02*
X159557Y80356D01*
X159557Y80997D02*
X161583Y80997D01*
X161583Y81638D02*
X159557Y81638D01*
X159557Y82279D02*
X161583Y82279D01*
X161583Y82920D02*
X159557Y82920D01*
X159557Y83561D02*
X161583Y83561D01*
X161583Y84202D02*
X159557Y84202D01*
X159557Y84843D02*
X161583Y84843D01*
X161583Y85484D02*
X159557Y85484D01*
X154557Y85718D02*
X154557Y77792D01*
X154557Y85718D02*
X156583Y85718D01*
X156583Y77792D01*
X154557Y77792D01*
X154557Y78433D02*
X156583Y78433D01*
X156583Y79074D02*
X154557Y79074D01*
X154557Y79715D02*
X156583Y79715D01*
X156583Y80356D02*
X154557Y80356D01*
X154557Y80997D02*
X156583Y80997D01*
X156583Y81638D02*
X154557Y81638D01*
X154557Y82279D02*
X156583Y82279D01*
X156583Y82920D02*
X154557Y82920D01*
X154557Y83561D02*
X156583Y83561D01*
X156583Y84202D02*
X154557Y84202D01*
X154557Y84843D02*
X156583Y84843D01*
X156583Y85484D02*
X154557Y85484D01*
X149557Y85718D02*
X149557Y77792D01*
X149557Y85718D02*
X151583Y85718D01*
X151583Y77792D01*
X149557Y77792D01*
X149557Y78433D02*
X151583Y78433D01*
X151583Y79074D02*
X149557Y79074D01*
X149557Y79715D02*
X151583Y79715D01*
X151583Y80356D02*
X149557Y80356D01*
X149557Y80997D02*
X151583Y80997D01*
X151583Y81638D02*
X149557Y81638D01*
X149557Y82279D02*
X151583Y82279D01*
X151583Y82920D02*
X149557Y82920D01*
X149557Y83561D02*
X151583Y83561D01*
X151583Y84202D02*
X149557Y84202D01*
X149557Y84843D02*
X151583Y84843D01*
X151583Y85484D02*
X149557Y85484D01*
X147683Y73892D02*
X139757Y73892D01*
X139757Y75918D01*
X147683Y75918D01*
X147683Y73892D01*
X147683Y74533D02*
X139757Y74533D01*
X139757Y75174D02*
X147683Y75174D01*
X147683Y75815D02*
X139757Y75815D01*
X139757Y68892D02*
X147683Y68892D01*
X139757Y68892D02*
X139757Y70918D01*
X147683Y70918D01*
X147683Y68892D01*
X147683Y69533D02*
X139757Y69533D01*
X139757Y70174D02*
X147683Y70174D01*
X147683Y70815D02*
X139757Y70815D01*
X139757Y63892D02*
X147683Y63892D01*
X139757Y63892D02*
X139757Y65918D01*
X147683Y65918D01*
X147683Y63892D01*
X147683Y64533D02*
X139757Y64533D01*
X139757Y65174D02*
X147683Y65174D01*
X147683Y65815D02*
X139757Y65815D01*
X139757Y58892D02*
X147683Y58892D01*
X139757Y58892D02*
X139757Y60918D01*
X147683Y60918D01*
X147683Y58892D01*
X147683Y59533D02*
X139757Y59533D01*
X139757Y60174D02*
X147683Y60174D01*
X147683Y60815D02*
X139757Y60815D01*
X139757Y53892D02*
X147683Y53892D01*
X139757Y53892D02*
X139757Y55918D01*
X147683Y55918D01*
X147683Y53892D01*
X147683Y54533D02*
X139757Y54533D01*
X139757Y55174D02*
X147683Y55174D01*
X147683Y55815D02*
X139757Y55815D01*
X139757Y48892D02*
X147683Y48892D01*
X139757Y48892D02*
X139757Y50918D01*
X147683Y50918D01*
X147683Y48892D01*
X147683Y49533D02*
X139757Y49533D01*
X139757Y50174D02*
X147683Y50174D01*
X147683Y50815D02*
X139757Y50815D01*
X149557Y47018D02*
X149557Y39092D01*
X149557Y47018D02*
X151583Y47018D01*
X151583Y39092D01*
X149557Y39092D01*
X149557Y39733D02*
X151583Y39733D01*
X151583Y40374D02*
X149557Y40374D01*
X149557Y41015D02*
X151583Y41015D01*
X151583Y41656D02*
X149557Y41656D01*
X149557Y42297D02*
X151583Y42297D01*
X151583Y42938D02*
X149557Y42938D01*
X149557Y43579D02*
X151583Y43579D01*
X151583Y44220D02*
X149557Y44220D01*
X149557Y44861D02*
X151583Y44861D01*
X151583Y45502D02*
X149557Y45502D01*
X149557Y46143D02*
X151583Y46143D01*
X151583Y46784D02*
X149557Y46784D01*
X154557Y47018D02*
X154557Y39092D01*
X154557Y47018D02*
X156583Y47018D01*
X156583Y39092D01*
X154557Y39092D01*
X154557Y39733D02*
X156583Y39733D01*
X156583Y40374D02*
X154557Y40374D01*
X154557Y41015D02*
X156583Y41015D01*
X156583Y41656D02*
X154557Y41656D01*
X154557Y42297D02*
X156583Y42297D01*
X156583Y42938D02*
X154557Y42938D01*
X154557Y43579D02*
X156583Y43579D01*
X156583Y44220D02*
X154557Y44220D01*
X154557Y44861D02*
X156583Y44861D01*
X156583Y45502D02*
X154557Y45502D01*
X154557Y46143D02*
X156583Y46143D01*
X156583Y46784D02*
X154557Y46784D01*
X159557Y47018D02*
X159557Y39092D01*
X159557Y47018D02*
X161583Y47018D01*
X161583Y39092D01*
X159557Y39092D01*
X159557Y39733D02*
X161583Y39733D01*
X161583Y40374D02*
X159557Y40374D01*
X159557Y41015D02*
X161583Y41015D01*
X161583Y41656D02*
X159557Y41656D01*
X159557Y42297D02*
X161583Y42297D01*
X161583Y42938D02*
X159557Y42938D01*
X159557Y43579D02*
X161583Y43579D01*
X161583Y44220D02*
X159557Y44220D01*
X159557Y44861D02*
X161583Y44861D01*
X161583Y45502D02*
X159557Y45502D01*
X159557Y46143D02*
X161583Y46143D01*
X161583Y46784D02*
X159557Y46784D01*
X164557Y47018D02*
X164557Y39092D01*
X164557Y47018D02*
X166583Y47018D01*
X166583Y39092D01*
X164557Y39092D01*
X164557Y39733D02*
X166583Y39733D01*
X166583Y40374D02*
X164557Y40374D01*
X164557Y41015D02*
X166583Y41015D01*
X166583Y41656D02*
X164557Y41656D01*
X164557Y42297D02*
X166583Y42297D01*
X166583Y42938D02*
X164557Y42938D01*
X164557Y43579D02*
X166583Y43579D01*
X166583Y44220D02*
X164557Y44220D01*
X164557Y44861D02*
X166583Y44861D01*
X166583Y45502D02*
X164557Y45502D01*
X164557Y46143D02*
X166583Y46143D01*
X166583Y46784D02*
X164557Y46784D01*
X169557Y47018D02*
X169557Y39092D01*
X169557Y47018D02*
X171583Y47018D01*
X171583Y39092D01*
X169557Y39092D01*
X169557Y39733D02*
X171583Y39733D01*
X171583Y40374D02*
X169557Y40374D01*
X169557Y41015D02*
X171583Y41015D01*
X171583Y41656D02*
X169557Y41656D01*
X169557Y42297D02*
X171583Y42297D01*
X171583Y42938D02*
X169557Y42938D01*
X169557Y43579D02*
X171583Y43579D01*
X171583Y44220D02*
X169557Y44220D01*
X169557Y44861D02*
X171583Y44861D01*
X171583Y45502D02*
X169557Y45502D01*
X169557Y46143D02*
X171583Y46143D01*
X171583Y46784D02*
X169557Y46784D01*
X174557Y47018D02*
X174557Y39092D01*
X174557Y47018D02*
X176583Y47018D01*
X176583Y39092D01*
X174557Y39092D01*
X174557Y39733D02*
X176583Y39733D01*
X176583Y40374D02*
X174557Y40374D01*
X174557Y41015D02*
X176583Y41015D01*
X176583Y41656D02*
X174557Y41656D01*
X174557Y42297D02*
X176583Y42297D01*
X176583Y42938D02*
X174557Y42938D01*
X174557Y43579D02*
X176583Y43579D01*
X176583Y44220D02*
X174557Y44220D01*
X174557Y44861D02*
X176583Y44861D01*
X176583Y45502D02*
X174557Y45502D01*
X174557Y46143D02*
X176583Y46143D01*
X176583Y46784D02*
X174557Y46784D01*
X178457Y48892D02*
X186383Y48892D01*
X178457Y48892D02*
X178457Y50918D01*
X186383Y50918D01*
X186383Y48892D01*
X186383Y49533D02*
X178457Y49533D01*
X178457Y50174D02*
X186383Y50174D01*
X186383Y50815D02*
X178457Y50815D01*
X178457Y53892D02*
X186383Y53892D01*
X178457Y53892D02*
X178457Y55918D01*
X186383Y55918D01*
X186383Y53892D01*
X186383Y54533D02*
X178457Y54533D01*
X178457Y55174D02*
X186383Y55174D01*
X186383Y55815D02*
X178457Y55815D01*
X178457Y58892D02*
X186383Y58892D01*
X178457Y58892D02*
X178457Y60918D01*
X186383Y60918D01*
X186383Y58892D01*
X186383Y59533D02*
X178457Y59533D01*
X178457Y60174D02*
X186383Y60174D01*
X186383Y60815D02*
X178457Y60815D01*
X178457Y63892D02*
X186383Y63892D01*
X178457Y63892D02*
X178457Y65918D01*
X186383Y65918D01*
X186383Y63892D01*
X186383Y64533D02*
X178457Y64533D01*
X178457Y65174D02*
X186383Y65174D01*
X186383Y65815D02*
X178457Y65815D01*
X178457Y68892D02*
X186383Y68892D01*
X178457Y68892D02*
X178457Y70918D01*
X186383Y70918D01*
X186383Y68892D01*
X186383Y69533D02*
X178457Y69533D01*
X178457Y70174D02*
X186383Y70174D01*
X186383Y70815D02*
X178457Y70815D01*
X178457Y73892D02*
X186383Y73892D01*
X178457Y73892D02*
X178457Y75918D01*
X186383Y75918D01*
X186383Y73892D01*
X186383Y74533D02*
X178457Y74533D01*
X178457Y75174D02*
X186383Y75174D01*
X186383Y75815D02*
X178457Y75815D01*
D10*
X121160Y37466D03*
X121160Y47466D03*
X160070Y23590D03*
X160070Y13590D03*
D13*
X152370Y18590D03*
X142370Y18590D03*
D10*
X130685Y47466D03*
X130685Y37466D03*
D13*
X204900Y75740D03*
X194900Y75740D03*
X204900Y65580D03*
X194900Y65580D03*
X204900Y86980D03*
X194900Y86980D03*
D10*
X187200Y106910D03*
X187200Y96910D03*
X165610Y97410D03*
X165610Y107410D03*
D22*
X116210Y141130D03*
X116210Y113630D03*
D23*
X131460Y127380D03*
X100960Y127380D03*
D24*
X131308Y71297D03*
X131308Y83297D03*
X117308Y83297D03*
X117308Y71297D03*
D10*
X177040Y96910D03*
X177040Y106910D03*
X237650Y110260D03*
X237650Y100260D03*
X252890Y110260D03*
X252890Y100260D03*
X268130Y110260D03*
X268130Y100260D03*
X11176Y105244D03*
X11176Y115244D03*
D13*
X184286Y279568D03*
X174286Y279568D03*
D25*
X224030Y8640D03*
X236730Y8640D03*
X249430Y8640D03*
X262130Y8640D03*
X262130Y86640D03*
X249430Y86640D03*
X236730Y86640D03*
X224030Y86640D03*
D26*
X243080Y47640D03*
D27*
X282490Y169200D02*
X282490Y176200D01*
X289490Y176200D01*
X289490Y169200D01*
X282490Y169200D01*
X282490Y172050D02*
X289490Y172050D01*
X289490Y174900D02*
X282490Y174900D01*
X300030Y176200D02*
X300030Y169200D01*
X300030Y176200D02*
X307030Y176200D01*
X307030Y169200D01*
X300030Y169200D01*
X300030Y172050D02*
X307030Y172050D01*
X307030Y174900D02*
X300030Y174900D01*
X282490Y181900D02*
X282490Y188900D01*
X289490Y188900D01*
X289490Y181900D01*
X282490Y181900D01*
X282490Y184750D02*
X289490Y184750D01*
X289490Y187600D02*
X282490Y187600D01*
X300030Y188900D02*
X300030Y181900D01*
X300030Y188900D02*
X307030Y188900D01*
X307030Y181900D01*
X300030Y181900D01*
X300030Y184750D02*
X307030Y184750D01*
X307030Y187600D02*
X300030Y187600D01*
D13*
X133915Y171298D03*
X123915Y171298D03*
X133929Y160304D03*
X123929Y160304D03*
X72470Y110244D03*
X82470Y110244D03*
X82216Y125738D03*
X72216Y125738D03*
D10*
X11176Y188650D03*
X11176Y178650D03*
X11176Y152074D03*
X11176Y142074D03*
X63246Y159600D03*
X63246Y169600D03*
D13*
X297220Y160000D03*
X287220Y160000D03*
X297220Y198100D03*
X287220Y198100D03*
X64888Y89637D03*
X54888Y89637D03*
X174207Y245039D03*
X184207Y245039D03*
X174207Y256469D03*
X184207Y256469D03*
X184207Y233609D03*
X174207Y233609D03*
X184207Y267899D03*
X174207Y267899D03*
X24479Y89530D03*
X14479Y89530D03*
X34838Y89540D03*
X44838Y89540D03*
D28*
X29960Y65864D03*
X91960Y65864D03*
X37460Y65864D03*
X84460Y65864D03*
D29*
X43460Y65864D03*
X78460Y65864D03*
X48460Y65864D03*
X53460Y65864D03*
X58460Y65864D03*
X63460Y65864D03*
X68460Y65864D03*
X73460Y65864D03*
D30*
X46960Y23864D03*
X74960Y23864D03*
D31*
X50136Y116974D03*
X43636Y116974D03*
X37136Y116974D03*
X30636Y116974D03*
X30636Y100974D03*
X37136Y100974D03*
X43636Y100974D03*
X50136Y100974D03*
D32*
X201482Y30898D03*
X176682Y30898D03*
X176682Y13198D03*
X201482Y13198D03*
D31*
X50390Y145168D03*
X43890Y145168D03*
X37390Y145168D03*
X30890Y145168D03*
X30890Y129168D03*
X37390Y129168D03*
X43890Y129168D03*
X50390Y129168D03*
X50390Y173108D03*
X43890Y173108D03*
X37390Y173108D03*
X30890Y173108D03*
X30890Y157108D03*
X37390Y157108D03*
X43890Y157108D03*
X50390Y157108D03*
D33*
X153890Y248302D03*
X153890Y230802D03*
X135452Y248185D03*
X135452Y230685D03*
D34*
X145549Y274376D03*
D35*
X135299Y280876D03*
X135299Y274376D03*
X135299Y267876D03*
X155799Y267876D03*
X155799Y274376D03*
X155799Y280876D03*
D36*
X114076Y198932D03*
X114076Y212432D03*
D37*
X54500Y198000D03*
X54500Y344000D03*
X259500Y344000D03*
X259500Y198000D03*
M02*
