G04 EAGLE Gerber RS-274X export*
G75*
%MOMM*%
%FSLAX34Y34*%
%LPD*%
%INSoldermask Top*%
%IPPOS*%
%AMOC8*
5,1,8,0,0,1.08239X$1,22.5*%
G01*
%ADD10R,0.803200X0.703200*%
%ADD11R,0.803200X1.103200*%
%ADD12R,1.103200X0.803200*%
%ADD13R,0.703200X0.803200*%
%ADD14R,1.203200X2.003200*%
%ADD15R,0.920000X0.470000*%
%ADD16R,0.470000X0.920000*%
%ADD17R,4.520000X4.520000*%
%ADD18R,1.219200X0.914400*%
%ADD19R,0.812800X0.889000*%
%ADD20C,0.269722*%
%ADD21R,2.703200X2.703200*%
%ADD22R,2.403200X1.053200*%
%ADD23R,1.253200X1.203200*%
%ADD24R,1.003200X0.803200*%
%ADD25R,0.653200X1.153200*%
%ADD26R,4.553200X3.653200*%
%ADD27C,0.505344*%
%ADD28R,0.723200X1.203200*%
%ADD29R,0.473200X1.203200*%
%ADD30C,0.803200*%
%ADD31C,0.833200*%
%ADD32R,1.203200X2.203200*%
%ADD33C,1.361200*%
%ADD34C,1.403200*%
%ADD35R,0.653200X0.803200*%
%ADD36R,3.378200X1.473200*%
%ADD37R,1.093200X1.143200*%
%ADD38C,2.703200*%
%ADD39R,1.283200X1.253200*%
%ADD40R,0.863200X0.523200*%
%ADD41R,1.203200X1.803200*%
%ADD42R,2.203200X0.853200*%
%ADD43R,3.383200X3.383200*%
%ADD44R,4.163200X4.163200*%


D10*
X217544Y98106D03*
X217544Y108106D03*
D11*
X94590Y184450D03*
X79590Y184450D03*
D10*
X207400Y106995D03*
X207400Y96995D03*
X270980Y130820D03*
X270980Y140820D03*
X280140Y130820D03*
X280140Y140820D03*
D12*
X301500Y131280D03*
X301500Y146280D03*
D10*
X197240Y106995D03*
X197240Y96995D03*
X290300Y130820D03*
X290300Y140820D03*
D11*
X94590Y170115D03*
X79590Y170115D03*
X94590Y156780D03*
X79590Y156780D03*
D13*
X246476Y152173D03*
X256476Y152173D03*
X276916Y152133D03*
X266916Y152133D03*
D14*
X268762Y167437D03*
X243762Y167437D03*
D15*
X214440Y151810D03*
X214440Y158310D03*
X214440Y164810D03*
X214440Y171310D03*
X214440Y177810D03*
X214440Y184310D03*
X214440Y190810D03*
X214440Y197310D03*
D16*
X207190Y204560D03*
X200690Y204560D03*
X194190Y204560D03*
X187690Y204560D03*
X181190Y204560D03*
X174690Y204560D03*
X168190Y204560D03*
X161690Y204560D03*
D15*
X154440Y197310D03*
X154440Y190810D03*
X154440Y184310D03*
X154440Y177810D03*
X154440Y171310D03*
X154440Y164810D03*
X154440Y158310D03*
X154440Y151810D03*
D16*
X161690Y144560D03*
X168190Y144560D03*
X174690Y144560D03*
X181190Y144560D03*
X187690Y144560D03*
X194190Y144560D03*
X200690Y144560D03*
X207190Y144560D03*
D17*
X184440Y174560D03*
D18*
X93973Y100467D03*
D19*
X76955Y100467D03*
X76955Y80147D03*
X95751Y80147D03*
D13*
X142210Y29004D03*
X132210Y29004D03*
D20*
X174552Y77787D02*
X174552Y85723D01*
X176588Y85723D01*
X176588Y77787D01*
X174552Y77787D01*
X174552Y80349D02*
X176588Y80349D01*
X176588Y82911D02*
X174552Y82911D01*
X174552Y85473D02*
X176588Y85473D01*
X169552Y85723D02*
X169552Y77787D01*
X169552Y85723D02*
X171588Y85723D01*
X171588Y77787D01*
X169552Y77787D01*
X169552Y80349D02*
X171588Y80349D01*
X171588Y82911D02*
X169552Y82911D01*
X169552Y85473D02*
X171588Y85473D01*
X164552Y85723D02*
X164552Y77787D01*
X164552Y85723D02*
X166588Y85723D01*
X166588Y77787D01*
X164552Y77787D01*
X164552Y80349D02*
X166588Y80349D01*
X166588Y82911D02*
X164552Y82911D01*
X164552Y85473D02*
X166588Y85473D01*
X159552Y85723D02*
X159552Y77787D01*
X159552Y85723D02*
X161588Y85723D01*
X161588Y77787D01*
X159552Y77787D01*
X159552Y80349D02*
X161588Y80349D01*
X161588Y82911D02*
X159552Y82911D01*
X159552Y85473D02*
X161588Y85473D01*
X154552Y85723D02*
X154552Y77787D01*
X154552Y85723D02*
X156588Y85723D01*
X156588Y77787D01*
X154552Y77787D01*
X154552Y80349D02*
X156588Y80349D01*
X156588Y82911D02*
X154552Y82911D01*
X154552Y85473D02*
X156588Y85473D01*
X149552Y85723D02*
X149552Y77787D01*
X149552Y85723D02*
X151588Y85723D01*
X151588Y77787D01*
X149552Y77787D01*
X149552Y80349D02*
X151588Y80349D01*
X151588Y82911D02*
X149552Y82911D01*
X149552Y85473D02*
X151588Y85473D01*
X147688Y73887D02*
X139752Y73887D01*
X139752Y75923D01*
X147688Y75923D01*
X147688Y73887D01*
X147688Y68887D02*
X139752Y68887D01*
X139752Y70923D01*
X147688Y70923D01*
X147688Y68887D01*
X147688Y63887D02*
X139752Y63887D01*
X139752Y65923D01*
X147688Y65923D01*
X147688Y63887D01*
X147688Y58887D02*
X139752Y58887D01*
X139752Y60923D01*
X147688Y60923D01*
X147688Y58887D01*
X147688Y53887D02*
X139752Y53887D01*
X139752Y55923D01*
X147688Y55923D01*
X147688Y53887D01*
X147688Y48887D02*
X139752Y48887D01*
X139752Y50923D01*
X147688Y50923D01*
X147688Y48887D01*
X149552Y47023D02*
X149552Y39087D01*
X149552Y47023D02*
X151588Y47023D01*
X151588Y39087D01*
X149552Y39087D01*
X149552Y41649D02*
X151588Y41649D01*
X151588Y44211D02*
X149552Y44211D01*
X149552Y46773D02*
X151588Y46773D01*
X154552Y47023D02*
X154552Y39087D01*
X154552Y47023D02*
X156588Y47023D01*
X156588Y39087D01*
X154552Y39087D01*
X154552Y41649D02*
X156588Y41649D01*
X156588Y44211D02*
X154552Y44211D01*
X154552Y46773D02*
X156588Y46773D01*
X159552Y47023D02*
X159552Y39087D01*
X159552Y47023D02*
X161588Y47023D01*
X161588Y39087D01*
X159552Y39087D01*
X159552Y41649D02*
X161588Y41649D01*
X161588Y44211D02*
X159552Y44211D01*
X159552Y46773D02*
X161588Y46773D01*
X164552Y47023D02*
X164552Y39087D01*
X164552Y47023D02*
X166588Y47023D01*
X166588Y39087D01*
X164552Y39087D01*
X164552Y41649D02*
X166588Y41649D01*
X166588Y44211D02*
X164552Y44211D01*
X164552Y46773D02*
X166588Y46773D01*
X169552Y47023D02*
X169552Y39087D01*
X169552Y47023D02*
X171588Y47023D01*
X171588Y39087D01*
X169552Y39087D01*
X169552Y41649D02*
X171588Y41649D01*
X171588Y44211D02*
X169552Y44211D01*
X169552Y46773D02*
X171588Y46773D01*
X174552Y47023D02*
X174552Y39087D01*
X174552Y47023D02*
X176588Y47023D01*
X176588Y39087D01*
X174552Y39087D01*
X174552Y41649D02*
X176588Y41649D01*
X176588Y44211D02*
X174552Y44211D01*
X174552Y46773D02*
X176588Y46773D01*
X178452Y48887D02*
X186388Y48887D01*
X178452Y48887D02*
X178452Y50923D01*
X186388Y50923D01*
X186388Y48887D01*
X186388Y53887D02*
X178452Y53887D01*
X178452Y55923D01*
X186388Y55923D01*
X186388Y53887D01*
X186388Y58887D02*
X178452Y58887D01*
X178452Y60923D01*
X186388Y60923D01*
X186388Y58887D01*
X186388Y63887D02*
X178452Y63887D01*
X178452Y65923D01*
X186388Y65923D01*
X186388Y63887D01*
X186388Y68887D02*
X178452Y68887D01*
X178452Y70923D01*
X186388Y70923D01*
X186388Y68887D01*
X186388Y73887D02*
X178452Y73887D01*
X178452Y75923D01*
X186388Y75923D01*
X186388Y73887D01*
D21*
X163070Y62405D03*
D10*
X121160Y37466D03*
X121160Y47466D03*
X160070Y23590D03*
X160070Y13590D03*
D13*
X152370Y18590D03*
X142370Y18590D03*
D10*
X130685Y47466D03*
X130685Y37466D03*
D13*
X204900Y75740D03*
X194900Y75740D03*
X204900Y65580D03*
X194900Y65580D03*
X204900Y86980D03*
X194900Y86980D03*
D10*
X187200Y106910D03*
X187200Y96910D03*
X165610Y97410D03*
X165610Y107410D03*
D22*
X116210Y141130D03*
X116210Y113630D03*
D23*
X131460Y127380D03*
X100960Y127380D03*
D24*
X131308Y71297D03*
X131308Y83297D03*
X117308Y83297D03*
X117308Y71297D03*
D10*
X177040Y96910D03*
X177040Y106910D03*
X237650Y110260D03*
X237650Y100260D03*
X252890Y110260D03*
X252890Y100260D03*
X268130Y110260D03*
X268130Y100260D03*
X11176Y105244D03*
X11176Y115244D03*
D13*
X184286Y279568D03*
X174286Y279568D03*
D25*
X224030Y8640D03*
X236730Y8640D03*
X249430Y8640D03*
X262130Y8640D03*
X262130Y86640D03*
X249430Y86640D03*
X236730Y86640D03*
X224030Y86640D03*
D26*
X243080Y47640D03*
D27*
X282500Y169210D02*
X282500Y176190D01*
X289480Y176190D01*
X289480Y169210D01*
X282500Y169210D01*
X282500Y174010D02*
X289480Y174010D01*
X300040Y176190D02*
X300040Y169210D01*
X300040Y176190D02*
X307020Y176190D01*
X307020Y169210D01*
X300040Y169210D01*
X300040Y174010D02*
X307020Y174010D01*
X282500Y181910D02*
X282500Y188890D01*
X289480Y188890D01*
X289480Y181910D01*
X282500Y181910D01*
X282500Y186710D02*
X289480Y186710D01*
X300040Y188890D02*
X300040Y181910D01*
X300040Y188890D02*
X307020Y188890D01*
X307020Y181910D01*
X300040Y181910D01*
X300040Y186710D02*
X307020Y186710D01*
D13*
X133915Y171298D03*
X123915Y171298D03*
X133929Y160304D03*
X123929Y160304D03*
X72470Y110244D03*
X82470Y110244D03*
X82216Y125738D03*
X72216Y125738D03*
D10*
X11176Y188650D03*
X11176Y178650D03*
X11176Y152074D03*
X11176Y142074D03*
X63246Y159600D03*
X63246Y169600D03*
D13*
X297220Y160000D03*
X287220Y160000D03*
X297220Y198100D03*
X287220Y198100D03*
X64888Y89637D03*
X54888Y89637D03*
X174207Y245039D03*
X184207Y245039D03*
X174207Y256469D03*
X184207Y256469D03*
X184207Y233609D03*
X174207Y233609D03*
X184207Y267899D03*
X174207Y267899D03*
X24479Y89530D03*
X14479Y89530D03*
X34838Y89540D03*
X44838Y89540D03*
D28*
X29960Y65864D03*
X91960Y65864D03*
X37460Y65864D03*
X84460Y65864D03*
D29*
X43460Y65864D03*
X78460Y65864D03*
X48460Y65864D03*
X53460Y65864D03*
X58460Y65864D03*
X63460Y65864D03*
X68460Y65864D03*
X73460Y65864D03*
D30*
X90960Y54864D03*
D31*
X90960Y54864D03*
D32*
X46960Y23864D03*
X74960Y23864D03*
D31*
X30960Y54864D03*
D33*
X17760Y56324D02*
X17760Y67904D01*
X104160Y67904D02*
X104160Y56324D01*
D34*
X17760Y29864D02*
X17760Y17864D01*
X104160Y17864D02*
X104160Y29864D01*
D35*
X50136Y116974D03*
X43636Y116974D03*
X37136Y116974D03*
X30636Y116974D03*
X30636Y100974D03*
X37136Y100974D03*
X43636Y100974D03*
X50136Y100974D03*
D36*
X292626Y12150D03*
X292626Y37550D03*
X292626Y62950D03*
X292626Y88350D03*
X292626Y113750D03*
D37*
X201482Y30898D03*
X176682Y30898D03*
X176682Y13198D03*
X201482Y13198D03*
D35*
X50390Y145168D03*
X43890Y145168D03*
X37390Y145168D03*
X30890Y145168D03*
X30890Y129168D03*
X37390Y129168D03*
X43890Y129168D03*
X50390Y129168D03*
X50390Y173108D03*
X43890Y173108D03*
X37390Y173108D03*
X30890Y173108D03*
X30890Y157108D03*
X37390Y157108D03*
X43890Y157108D03*
X50390Y157108D03*
D38*
X148500Y110000D03*
D39*
X153890Y248302D03*
X153890Y230802D03*
X135452Y248185D03*
X135452Y230685D03*
D40*
X135299Y280876D03*
X135299Y274376D03*
X135299Y267876D03*
X155799Y267876D03*
X155799Y274376D03*
X155799Y280876D03*
D41*
X145549Y274376D03*
D42*
X114076Y198932D03*
X114076Y212432D03*
D43*
X54500Y198000D03*
X54500Y344000D03*
D44*
X54500Y271000D03*
D43*
X259500Y344000D03*
X259500Y198000D03*
D44*
X259500Y271000D03*
M02*
