M48
;GenerationSoftware,Autodesk,EAGLE,9.6.2*%
;CreationDate,2023-02-13T03:44:34Z*%
FMAT,2
ICI,OFF
METRIC,TZ,000.000
T5C0.305
T4C0.600
T3C0.630
T2C0.650
T1C0.950
%
G90
M71
T1
X14850Y11000
T5
X6122Y1283
X27055Y868
X12063Y23596
X6496Y31441
X16307Y6240
X16515Y27761
X10274Y28115
X22613Y7273
X3225Y20448
X8103Y28628
X8771Y33124
X18908Y2194
X4441Y8112
X1732Y7998
X6520Y23906
X12394Y2873
X25861Y16031
X1899Y33037
X5359Y16511
X6194Y14406
X19188Y25549
X15018Y22043
X11637Y10356
X9364Y11347
X4978Y13717
X23879Y32508
X13600Y22027
X3398Y24442
X12258Y26169
X8844Y21339
X14607Y26126
X24312Y2517
X11552Y1215
X23718Y35155
X16656Y25949
X23290Y23236
X11274Y4635
X13546Y1258
X18587Y12670
X20083Y25276
X8535Y25778
X13940Y14734
X23802Y12230
X899Y29137
X1896Y11962
X9965Y22378
X10502Y8075
X9358Y8958
X13233Y9703
X11609Y15143
X18562Y3996
X20368Y4691
X18588Y11544
X28445Y14825
X19325Y29199
X3398Y23442
X3398Y22442
X21918Y25635
X22718Y25635
X28718Y25635
X29718Y25635
X29718Y24635
X29718Y23635
X29718Y22635
X29718Y21635
X3264Y2857
X2816Y26490
X2816Y27490
X2816Y28490
X4016Y29890
X5016Y29890
X6016Y29890
X7016Y29890
X8016Y29890
X9016Y29890
X10016Y29890
X11016Y29890
X12016Y29890
X28718Y26635
X28718Y27635
X28718Y28635
X28718Y29635
X27718Y30035
X26718Y30035
X25718Y30035
X22718Y26635
X22718Y27635
X22718Y28635
X22718Y29635
X30318Y27635
X30318Y29635
X28079Y32508
X28138Y35124
X8864Y2857
X8864Y1857
X6122Y3083
X27127Y3032
X27927Y2432
X25712Y2517
X9027Y12579
X19497Y11544
X12861Y10420
X14675Y13796
X23668Y1848
X21864Y13131
X13598Y19322
X22362Y17130
X2591Y10897
X2489Y13691
X3234Y18213
X21702Y11576
X27092Y12324
X29014Y2364
X21160Y21295
X7863Y22845
X10452Y23195
X23898Y21813
X29106Y10227
X6223Y10389
X8254Y14719
X10308Y17632
X6096Y11431
X26058Y10512
X24958Y1862
X11578Y16020
X6053Y7589
X8392Y9361
X11615Y17116
X5177Y7596
X14532Y19714
X2057Y16511
X5791Y12955
X17873Y13466
X18029Y22247
X15142Y21178
X2235Y10085
X1764Y19953
X15465Y14475
X27265Y22651
X22418Y1874
X17000Y13544
X29034Y5003
X29245Y15164
X21570Y22436
X25027Y22002
X21662Y9034
X4115Y13704
X24523Y11500
X21663Y743
X1413Y9763
X1091Y4143
X24607Y12775
X27021Y5882
X25325Y13268
X27131Y7112
X19178Y23800
X19987Y22356
X19016Y21370
X19400Y5750
X23887Y15336
X19557Y26794
X19480Y4693
X22361Y18433
X29000Y7528
X12428Y9045
X14980Y2759
X16693Y3256
X13438Y6310
X14250Y3891
X1931Y17812
X2567Y18804
X16484Y26807
X7341Y5004
X3566Y7834
X4851Y5004
X2642Y7595
X15488Y26118
X16179Y21366
X1651Y12802
X16440Y24267
X24530Y10532
X18444Y17456
X11626Y12738
X30513Y19757
X30508Y16114
X2816Y25490
X3264Y1857
X18535Y8260
M30